Monoto-ExtendedLight.ufo
<glyph name="numbersign" format="2">
  <advance width="800"/>
  <unicode hex="0023"/>
  <outline>
    <contour>
      <point x="121" y="0" type="line"/>
      <point x="147" y="0" type="line"/>
      <point x="198" y="231" type="line"/>
      <point x="442" y="231" type="line"/>
      <point x="391" y="0" type="line"/>
      <point x="419" y="0" type="line"/>
      <point x="470" y="231" type="line"/>
      <point x="644" y="231" type="line"/>
      <point x="644" y="255" type="line"/>
      <point x="472" y="255" type="line"/>
      <point x="520" y="471" type="line"/>
      <point x="691" y="471" type="line"/>
      <point x="691" y="495" type="line"/>
      <point x="522" y="495" type="line"/>
      <point x="568" y="714" type="line"/>
      <point x="542" y="714" type="line"/>
      <point x="494" y="495" type="line"/>
      <point x="252" y="495" type="line"/>
      <point x="298" y="714" type="line"/>
      <point x="272" y="714" type="line"/>
      <point x="225" y="495" type="line"/>
      <point x="46" y="495" type="line"/>
      <point x="46" y="471" type="line"/>
      <point x="220" y="471" type="line"/>
      <point x="173" y="255" type="line"/>
      <point x="3" y="255" type="line"/>
      <point x="3" y="231" type="line"/>
      <point x="170" y="231" type="line"/>
    </contour>
    <contour>
      <point x="201" y="255" type="line"/>
      <point x="248" y="471" type="line"/>
      <point x="492" y="471" type="line"/>
      <point x="446" y="255" type="line"/>
    </contour>
  </outline>
</glyph>
<glyph name="dollar" format="2">
  <advance width="800"/>
  <unicode hex="0024"/>
  <outline>
    <contour>
      <point x="384" y="-58" type="line"/>
      <point x="411" y="-58" type="line"/>
      <point x="411" y="20" type="line"/>
      <point x="568" y="26"/>
      <point x="686" y="79"/>
      <point x="686" y="186" type="curve" smooth="yes"/>
      <point x="686" y="292"/>
      <point x="569" y="329"/>
      <point x="411" y="370" type="curve"/>
      <point x="411" y="669" type="line"/>
      <point x="472" y="668"/>
      <point x="547" y="659"/>
      <point x="630" y="634" type="curve"/>
      <point x="643" y="657" type="line"/>
      <point x="564" y="682"/>
      <point x="485" y="693"/>
      <point x="411" y="694" type="curve"/>
      <point x="411" y="759" type="line"/>
      <point x="384" y="759" type="line"/>
      <point x="384" y="694" type="line"/>
      <point x="230" y="688"/>
      <point x="112" y="635"/>
      <point x="112" y="536" type="curve" smooth="yes"/>
      <point x="112" y="428"/>
      <point x="239" y="392"/>
      <point x="384" y="353" type="curve"/>
      <point x="384" y="45" type="line"/>
      <point x="277" y="46"/>
      <point x="181" y="60"/>
      <point x="115" y="78" type="curve"/>
      <point x="115" y="49" type="line"/>
      <point x="175" y="35"/>
      <point x="261" y="21"/>
      <point x="384" y="20" type="curve"/>
    </contour>
    <contour>
      <point x="411" y="45" type="curve"/>
      <point x="411" y="343" type="line"/>
      <point x="559" y="304"/>
      <point x="658" y="271"/>
      <point x="658" y="187" type="curve" smooth="yes"/>
      <point x="658" y="94"/>
      <point x="551" y="50"/>
    </contour>
    <contour>
      <point x="384" y="379" type="line"/>
      <point x="260" y="411"/>
      <point x="140" y="445"/>
      <point x="140" y="538" type="curve" smooth="yes"/>
      <point x="140" y="623"/>
      <point x="251" y="665"/>
      <point x="384" y="669" type="curve"/>
    </contour>
  </outline>
</glyph>
<glyph name="percent" format="2">
  <advance width="800"/>
  <unicode hex="0025"/>
  <outline>
    <contour>
      <point x="107" y="0" type="line"/>
      <point x="141" y="0" type="line"/>
      <point x="674" y="714" type="line"/>
      <point x="639" y="714" type="line"/>
    </contour>
    <contour>
      <point x="635" y="-9" type="curve" smooth="yes"/>
      <point x="769" y="-9"/>
      <point x="830" y="63"/>
      <point x="830" y="163" type="curve" smooth="yes"/>
      <point x="830" y="258"/>
      <point x="770" y="330"/>
      <point x="634" y="330" type="curve" smooth="yes"/>
      <point x="497" y="330"/>
      <point x="436" y="258"/>
      <point x="436" y="163" type="curve" smooth="yes"/>
      <point x="436" y="63"/>
      <point x="496" y="-9"/>
    </contour>
    <contour>
      <point x="635" y="15" type="curve" smooth="yes"/>
      <point x="517" y="15"/>
      <point x="465" y="78"/>
      <point x="465" y="163" type="curve" smooth="yes"/>
      <point x="465" y="246"/>
      <point x="517" y="306"/>
      <point x="635" y="306" type="curve" smooth="yes"/>
      <point x="749" y="306"/>
      <point x="801" y="244"/>
      <point x="801" y="163" type="curve" smooth="yes"/>
      <point x="801" y="77"/>
      <point x="747" y="15"/>
    </contour>
    <contour>
      <point x="169" y="383" type="curve" smooth="yes"/>
      <point x="303" y="383"/>
      <point x="364" y="455"/>
      <point x="364" y="555" type="curve" smooth="yes"/>
      <point x="364" y="650"/>
      <point x="304" y="722"/>
      <point x="168" y="722" type="curve" smooth="yes"/>
      <point x="31" y="722"/>
      <point x="-30" y="650"/>
      <point x="-30" y="555" type="curve" smooth="yes"/>
      <point x="-30" y="455"/>
      <point x="30" y="383"/>
    </contour>
    <contour>
      <point x="168" y="407" type="curve" smooth="yes"/>
      <point x="51" y="407"/>
      <point x="-1" y="470"/>
      <point x="-1" y="555" type="curve" smooth="yes"/>
      <point x="-1" y="638"/>
      <point x="51" y="698"/>
      <point x="168" y="698" type="curve" smooth="yes"/>
      <point x="283" y="698"/>
      <point x="335" y="636"/>
      <point x="335" y="555" type="curve" smooth="yes"/>
      <point x="335" y="469"/>
      <point x="281" y="407"/>
    </contour>
  </outline>
</glyph>
<glyph name="parenleft" format="2">
  <advance width="800"/>
  <unicode hex="0028"/>
  <outline>
    <contour>
      <point x="499" y="-158" type="curve"/>
      <point x="532" y="-158" type="line"/>
      <point x="385" y="-39"/>
      <point x="320" y="109"/>
      <point x="320" y="275" type="curve" smooth="yes"/>
      <point x="320" y="443"/>
      <point x="384" y="596"/>
      <point x="533" y="714" type="curve"/>
      <point x="499" y="714" type="line"/>
      <point x="371" y="606"/>
      <point x="292" y="451"/>
      <point x="292" y="274" type="curve" smooth="yes"/>
      <point x="292" y="99"/>
      <point x="371" y="-46"/>
    </contour>
  </outline>
</glyph>
<glyph name="plus" format="2">
  <advance width="800"/>
  <unicode hex="002B"/>
  <outline>
    <contour>
      <point x="387" y="123" type="line"/>
      <point x="413" y="123" type="line"/>
      <point x="413" y="341" type="line"/>
      <point x="732" y="341" type="line"/>
      <point x="732" y="365" type="line"/>
      <point x="413" y="365" type="line"/>
      <point x="413" y="583" type="line"/>
      <point x="387" y="583" type="line"/>
      <point x="387" y="365" type="line"/>
      <point x="69" y="365" type="line"/>
      <point x="69" y="341" type="line"/>
      <point x="387" y="341" type="line"/>
    </contour>
  </outline>
</glyph>
<glyph name="comma" format="2">
  <advance width="800"/>
  <unicode hex="002C"/>
  <outline>
    <contour>
      <point x="332" y="-129" type="curve"/>
      <point x="354" y="-129" type="line"/>
      <point x="393" y="-60"/>
      <point x="422" y="30"/>
      <point x="442" y="104" type="curve"/>
      <point x="439" y="116" type="line"/>
      <point x="413" y="116" type="line"/>
      <point x="397" y="40"/>
      <point x="375" y="-32"/>
    </contour>
  </outline>
</glyph>
<glyph name="period" format="2">
  <advance width="800"/>
  <unicode hex="002E"/>
  <outline>
    <contour>
      <point x="400" y="-12" type="curve" smooth="yes"/>
      <point x="435" y="-12"/>
      <point x="438" y="4"/>
      <point x="438" y="23" type="curve" smooth="yes"/>
      <point x="438" y="41"/>
      <point x="435" y="58"/>
      <point x="400" y="58" type="curve" smooth="yes"/>
      <point x="368" y="58"/>
      <point x="363" y="41"/>
      <point x="363" y="23" type="curve" smooth="yes"/>
      <point x="363" y="4"/>
      <point x="368" y="-12"/>
    </contour>
  </outline>
</glyph>
<glyph name="four" format="2">
  <advance width="800"/>
  <unicode hex="0034"/>
  <outline>
    <contour>
      <point x="550" y="0" type="line"/>
      <point x="577" y="0" type="line"/>
      <point x="577" y="195" type="line"/>
      <point x="742" y="195" type="line"/>
      <point x="742" y="219" type="line"/>
      <point x="577" y="219" type="line"/>
      <point x="577" y="718" type="line"/>
      <point x="544" y="718" type="line"/>
      <point x="58" y="213" type="line"/>
      <point x="58" y="195" type="line"/>
      <point x="550" y="195" type="line"/>
    </contour>
    <contour>
      <point x="97" y="219" type="line"/>
      <point x="457" y="587" type="line" smooth="yes"/>
      <point x="499" y="630"/>
      <point x="515" y="650"/>
      <point x="549" y="686" type="curve"/>
      <point x="551" y="686" type="line"/>
      <point x="550" y="635"/>
      <point x="550" y="610"/>
      <point x="550" y="524" type="curve" smooth="yes"/>
      <point x="550" y="219" type="line"/>
    </contour>
  </outline>
</glyph>
<glyph name="seven" format="2">
  <advance width="800"/>
  <unicode hex="0037"/>
  <outline>
    <contour>
      <point x="282" y="0" type="line"/>
      <point x="312" y="0" type="line"/>
      <point x="695" y="697" type="line"/>
      <point x="695" y="714" type="line"/>
      <point x="165" y="714" type="line"/>
      <point x="165" y="689" type="line"/>
      <point x="663" y="689" type="line"/>
    </contour>
  </outline>
</glyph>
<glyph name="eight" format="2">
  <advance width="800"/>
  <unicode hex="0038"/>
  <outline>
    <contour>
      <point x="365" y="-10" type="curve" smooth="yes"/>
      <point x="533" y="-10"/>
      <point x="670" y="59"/>
      <point x="670" y="181" type="curve" smooth="yes"/>
      <point x="670" y="281"/>
      <point x="582" y="339"/>
      <point x="409" y="382" type="curve"/>
      <point x="555" y="424"/>
      <point x="635" y="474"/>
      <point x="635" y="564" type="curve" smooth="yes"/>
      <point x="635" y="663"/>
      <point x="530" y="724"/>
      <point x="379" y="724" type="curve" smooth="yes"/>
      <point x="212" y="724"/>
      <point x="110" y="659"/>
      <point x="110" y="558" type="curve" smooth="yes"/>
      <point x="110" y="461"/>
      <point x="211" y="415"/>
      <point x="336" y="381" type="curve"/>
      <point x="176" y="342"/>
      <point x="77" y="282"/>
      <point x="77" y="176" type="curve" smooth="yes"/>
      <point x="77" y="65"/>
      <point x="196" y="-10"/>
    </contour>
    <contour>
      <point x="365" y="15" type="curve" smooth="yes"/>
      <point x="212" y="15"/>
      <point x="105" y="79"/>
      <point x="105" y="176" type="curve" smooth="yes"/>
      <point x="105" y="282"/>
      <point x="225" y="332"/>
      <point x="372" y="368" type="curve"/>
      <point x="577" y="318"/>
      <point x="642" y="269"/>
      <point x="642" y="183" type="curve" smooth="yes"/>
      <point x="642" y="72"/>
      <point x="523" y="15"/>
    </contour>
    <contour>
      <point x="374" y="395" type="curve"/>
      <point x="227" y="431"/>
      <point x="138" y="469"/>
      <point x="138" y="560" type="curve" smooth="yes"/>
      <point x="138" y="649"/>
      <point x="236" y="699"/>
      <point x="379" y="699" type="curve" smooth="yes"/>
      <point x="520" y="699"/>
      <point x="607" y="649"/>
      <point x="607" y="565" type="curve" smooth="yes"/>
      <point x="607" y="477"/>
      <point x="533" y="437"/>
    </contour>
  </outline>
</glyph>
<glyph name="nine" format="2">
  <advance width="800"/>
  <unicode hex="0039"/>
  <outline>
    <contour>
      <point x="300" y="-10" type="curve" smooth="yes"/>
      <point x="509" y="-10"/>
      <point x="691" y="108"/>
      <point x="691" y="401" type="curve" smooth="yes"/>
      <point x="691" y="569"/>
      <point x="613" y="726"/>
      <point x="380" y="726" type="curve" smooth="yes"/>
      <point x="196" y="726"/>
      <point x="93" y="630"/>
      <point x="93" y="491" type="curve" smooth="yes"/>
      <point x="93" y="361"/>
      <point x="192" y="277"/>
      <point x="372" y="277" type="curve" smooth="yes"/>
      <point x="534" y="277"/>
      <point x="625" y="336"/>
      <point x="666" y="394" type="curve"/>
      <point x="668" y="394" type="line"/>
      <point x="659" y="112"/>
      <point x="491" y="15"/>
      <point x="301" y="15" type="curve" smooth="yes"/>
      <point x="239" y="15"/>
      <point x="177" y="22"/>
      <point x="142" y="31" type="curve"/>
      <point x="142" y="3" type="line"/>
      <point x="182" y="-5"/>
      <point x="238" y="-10"/>
    </contour>
    <contour>
      <point x="373" y="302" type="curve" smooth="yes"/>
      <point x="204" y="302"/>
      <point x="121" y="374"/>
      <point x="121" y="491" type="curve" smooth="yes"/>
      <point x="121" y="621"/>
      <point x="211" y="701"/>
      <point x="380" y="701" type="curve" smooth="yes"/>
      <point x="609" y="701"/>
      <point x="657" y="537"/>
      <point x="657" y="458" type="curve" smooth="yes"/>
      <point x="657" y="389"/>
      <point x="550" y="302"/>
    </contour>
  </outline>
</glyph>
<glyph name="colon" format="2">
  <advance width="800"/>
  <unicode hex="003A"/>
  <outline>
    <contour>
      <point x="399" y="466" type="curve" smooth="yes"/>
      <point x="434" y="466"/>
      <point x="434" y="482"/>
      <point x="434" y="501" type="curve" smooth="yes"/>
      <point x="434" y="519"/>
      <point x="434" y="536"/>
      <point x="399" y="536" type="curve" smooth="yes"/>
      <point x="367" y="536"/>
      <point x="362" y="519"/>
      <point x="362" y="501" type="curve" smooth="yes"/>
      <point x="362" y="482"/>
      <point x="367" y="466"/>
    </contour>
    <contour>
      <point x="400" y="-12" type="curve" smooth="yes"/>
      <point x="434" y="-12"/>
      <point x="434" y="4"/>
      <point x="434" y="23" type="curve" smooth="yes"/>
      <point x="434" y="41"/>
      <point x="434" y="58"/>
      <point x="400" y="58" type="curve" smooth="yes"/>
      <point x="367" y="58"/>
      <point x="362" y="41"/>
      <point x="362" y="23" type="curve" smooth="yes"/>
      <point x="362" y="4"/>
      <point x="367" y="-12"/>
    </contour>
  </outline>
</glyph>
<glyph name="greater" format="2">
  <advance width="800"/>
  <unicode hex="003E"/>
  <outline>
    <contour>
      <point x="68" y="138" type="line"/>
      <point x="731" y="353" type="line"/>
      <point x="731" y="371" type="line"/>
      <point x="68" y="586" type="line"/>
      <point x="68" y="560" type="line"/>
      <point x="691" y="362" type="line"/>
      <point x="68" y="164" type="line"/>
    </contour>
  </outline>
</glyph>
<glyph name="at" format="2">
  <advance width="800"/>
  <unicode hex="0040"/>
  <outline>
    <contour>
      <point x="435" y="-89" type="curve" smooth="yes"/>
      <point x="521" y="-89"/>
      <point x="610" y="-74"/>
      <point x="680" y="-49" type="curve"/>
      <point x="680" y="-21" type="line"/>
      <point x="600" y="-49"/>
      <point x="513" y="-64"/>
      <point x="432" y="-64" type="curve" smooth="yes"/>
      <point x="177" y="-64"/>
      <point x="22" y="72"/>
      <point x="22" y="292" type="curve" smooth="yes"/>
      <point x="22" y="545"/>
      <point x="193" y="688"/>
      <point x="430" y="688" type="curve" smooth="yes"/>
      <point x="657" y="688"/>
      <point x="776" y="559"/>
      <point x="776" y="353" type="curve" smooth="yes"/>
      <point x="776" y="232"/>
      <point x="735" y="139"/>
      <point x="642" y="139" type="curve" smooth="yes"/>
      <point x="574" y="139"/>
      <point x="551" y="180"/>
      <point x="551" y="257" type="curve" smooth="yes"/>
      <point x="551" y="285"/>
      <point x="556" y="324"/>
      <point x="558" y="348" type="curve" smooth="yes"/>
      <point x="567" y="493" type="line"/>
      <point x="521" y="506"/>
      <point x="477" y="513"/>
      <point x="441" y="513" type="curve" smooth="yes"/>
      <point x="295" y="513"/>
      <point x="212" y="419"/>
      <point x="212" y="287" type="curve" smooth="yes"/>
      <point x="212" y="179"/>
      <point x="268" y="114"/>
      <point x="370" y="114" type="curve" smooth="yes"/>
      <point x="437" y="114"/>
      <point x="498" y="144"/>
      <point x="526" y="197" type="curve"/>
      <point x="528" y="197" type="line"/>
      <point x="535" y="146"/>
      <point x="579" y="114"/>
      <point x="645" y="114" type="curve" smooth="yes"/>
      <point x="752" y="114"/>
      <point x="808" y="221"/>
      <point x="808" y="356" type="curve" smooth="yes"/>
      <point x="808" y="576"/>
      <point x="667" y="713"/>
      <point x="425" y="713" type="curve" smooth="yes"/>
      <point x="177" y="713"/>
      <point x="-9" y="562"/>
      <point x="-9" y="294" type="curve" smooth="yes"/>
      <point x="-9" y="59"/>
      <point x="155" y="-89"/>
    </contour>
    <contour>
      <point x="372" y="139" type="curve" smooth="yes"/>
      <point x="282" y="139"/>
      <point x="242" y="195"/>
      <point x="242" y="288" type="curve" smooth="yes"/>
      <point x="242" y="412"/>
      <point x="318" y="488"/>
      <point x="441" y="488" type="curve" smooth="yes"/>
      <point x="472" y="488"/>
      <point x="506" y="483"/>
      <point x="540" y="473" type="curve"/>
      <point x="526" y="323" type="line" smooth="yes"/>
      <point x="514" y="195"/>
      <point x="459" y="139"/>
    </contour>
  </outline>
</glyph>
<glyph name="A" format="2">
  <advance width="800"/>
  <unicode hex="0041"/>
  <anchor x="400" y="0" name="bottom"/>
  <anchor x="744" y="10" name="ogonek"/>
  <anchor x="400" y="714" name="top"/>
  <anchor x="801" y="714" name="topright"/>
  <outline>
    <contour>
      <point x="-1" y="0" type="line"/>
      <point x="28" y="0" type="line"/>
      <point x="354" y="592" type="line" smooth="yes"/>
      <point x="369" y="619"/>
      <point x="386" y="651"/>
      <point x="400" y="681" type="curve"/>
      <point x="417" y="651"/>
      <point x="435" y="618"/>
      <point x="449" y="592" type="curve" smooth="yes"/>
      <point x="772" y="0" type="line"/>
      <point x="801" y="0" type="line"/>
      <point x="413" y="716" type="line"/>
      <point x="389" y="716" type="line"/>
    </contour>
    <contour>
      <point x="164" y="271" type="line"/>
      <point x="642" y="271" type="line"/>
      <point x="632" y="296" type="line"/>
      <point x="174" y="296" type="line"/>
    </contour>
  </outline>
</glyph>
<glyph name="B" format="2">
  <advance width="800"/>
  <unicode hex="0042"/>
  <anchor x="400" y="0" name="bottom"/>
  <anchor x="400" y="714" name="top"/>
  <anchor x="801" y="714" name="topright"/>
  <outline>
    <contour>
      <point x="138" y="0" type="line"/>
      <point x="374" y="0" type="line" smooth="yes"/>
      <point x="584" y="0"/>
      <point x="743" y="56"/>
      <point x="743" y="203" type="curve" smooth="yes"/>
      <point x="743" y="293"/>
      <point x="688" y="357"/>
      <point x="513" y="375" type="curve"/>
      <point x="513" y="377" type="line"/>
      <point x="647" y="393"/>
      <point x="717" y="461"/>
      <point x="717" y="542" type="curve" smooth="yes"/>
      <point x="717" y="657"/>
      <point x="625" y="714"/>
      <point x="370" y="714" type="curve" smooth="yes"/>
      <point x="138" y="714" type="line"/>
    </contour>
    <contour>
      <point x="165" y="25" type="line"/>
      <point x="165" y="363" type="line"/>
      <point x="373" y="363" type="line" smooth="yes"/>
      <point x="582" y="363"/>
      <point x="715" y="326"/>
      <point x="715" y="203" type="curve" smooth="yes"/>
      <point x="715" y="80"/>
      <point x="582" y="25"/>
      <point x="372" y="25" type="curve" smooth="yes"/>
    </contour>
    <contour>
      <point x="165" y="388" type="line"/>
      <point x="165" y="689" type="line"/>
      <point x="361" y="689" type="line" smooth="yes"/>
      <point x="591" y="689"/>
      <point x="690" y="647"/>
      <point x="690" y="542" type="curve" smooth="yes"/>
      <point x="690" y="441"/>
      <point x="587" y="388"/>
      <point x="378" y="388" type="curve" smooth="yes"/>
    </contour>
  </outline>
</glyph>
<glyph name="C" format="2">
  <advance width="800"/>
  <unicode hex="0043"/>
  <anchor x="467" y="0" name="bottom"/>
  <anchor x="486" y="714" name="top"/>
  <anchor x="801" y="714" name="topright"/>
  <outline>
    <contour>
      <point x="491" y="-10" type="curve" smooth="yes"/>
      <point x="596" y="-10"/>
      <point x="683" y="4"/>
      <point x="743" y="21" type="curve"/>
      <point x="743" y="48" type="line"/>
      <point x="676" y="31"/>
      <point x="586" y="15"/>
      <point x="498" y="15" type="curve" smooth="yes"/>
      <point x="232" y="15"/>
      <point x="98" y="152"/>
      <point x="98" y="349" type="curve" smooth="yes"/>
      <point x="98" y="564"/>
      <point x="251" y="699"/>
      <point x="521" y="699" type="curve" smooth="yes"/>
      <point x="580" y="699"/>
      <point x="662" y="691"/>
      <point x="748" y="663" type="curve"/>
      <point x="758" y="687" type="line"/>
      <point x="680" y="713"/>
      <point x="594" y="724"/>
      <point x="520" y="724" type="curve" smooth="yes"/>
      <point x="234" y="724"/>
      <point x="71" y="577"/>
      <point x="71" y="349" type="curve" smooth="yes"/>
      <point x="71" y="139"/>
      <point x="211" y="-10"/>
    </contour>
  </outline>
</glyph>
<glyph name="E" format="2">
  <advance width="800"/>
  <unicode hex="0045"/>
  <anchor x="415" y="0" name="bottom"/>
  <anchor x="625" y="10" name="ogonek"/>
  <anchor x="415" y="714" name="top"/>
  <anchor x="-2" y="714" name="topleft"/>
  <anchor x="801" y="714" name="topright"/>
  <outline>
    <contour>
      <point x="138" y="0" type="line"/>
      <point x="700" y="0" type="line"/>
      <point x="700" y="25" type="line"/>
      <point x="164" y="25" type="line"/>
      <point x="164" y="364" type="line"/>
      <point x="671" y="364" type="line"/>
      <point x="671" y="389" type="line"/>
      <point x="164" y="389" type="line"/>
      <point x="164" y="689" type="line"/>
      <point x="700" y="689" type="line"/>
      <point x="700" y="714" type="line"/>
      <point x="138" y="714" type="line"/>
    </contour>
  </outline>
</glyph>
<glyph name="F" format="2">
  <advance width="800"/>
  <unicode hex="0046"/>
  <anchor x="418" y="0" name="bottom"/>
  <anchor x="432" y="714" name="top"/>
  <anchor x="801" y="714" name="topright"/>
  <outline>
    <contour>
      <point x="138" y="0" type="line"/>
      <point x="164" y="0" type="line"/>
      <point x="164" y="329" type="line"/>
      <point x="672" y="329" type="line"/>
      <point x="672" y="354" type="line"/>
      <point x="164" y="354" type="line"/>
      <point x="164" y="689" type="line"/>
      <point x="700" y="689" type="line"/>
      <point x="700" y="714" type="line"/>
      <point x="138" y="714" type="line"/>
    </contour>
  </outline>
</glyph>
<glyph name="G" format="2">
  <advance width="800"/>
  <unicode hex="0047"/>
  <anchor x="442" y="0" name="bottom"/>
  <anchor x="438" y="714" name="top"/>
  <anchor x="802" y="714" name="topright"/>
  <outline>
    <contour>
      <point x="432" y="-10" type="curve" smooth="yes"/>
      <point x="514" y="-10"/>
      <point x="610" y="5"/>
      <point x="690" y="36" type="curve"/>
      <point x="690" y="350" type="line"/>
      <point x="425" y="350" type="line"/>
      <point x="425" y="325" type="line"/>
      <point x="663" y="325" type="line"/>
      <point x="663" y="52" type="line"/>
      <point x="599" y="30"/>
      <point x="519" y="15"/>
      <point x="434" y="15" type="curve" smooth="yes"/>
      <point x="219" y="15"/>
      <point x="78" y="118"/>
      <point x="78" y="343" type="curve" smooth="yes"/>
      <point x="78" y="566"/>
      <point x="214" y="701"/>
      <point x="449" y="701" type="curve" smooth="yes"/>
      <point x="500" y="701"/>
      <point x="582" y="694"/>
      <point x="665" y="662" type="curve"/>
      <point x="678" y="685" type="line"/>
      <point x="605" y="715"/>
      <point x="518" y="726"/>
      <point x="451" y="726" type="curve" smooth="yes"/>
      <point x="196" y="726"/>
      <point x="51" y="576"/>
      <point x="51" y="344" type="curve" smooth="yes"/>
      <point x="51" y="124"/>
      <point x="181" y="-10"/>
    </contour>
  </outline>
</glyph>
<glyph name="J" format="2">
  <advance width="800"/>
  <unicode hex="004A"/>
  <anchor x="399" y="0" name="bottom"/>
  <anchor x="552" y="714" name="top"/>
  <anchor x="801" y="714" name="topright"/>
  <outline>
    <contour>
      <point x="335" y="-15" type="curve" smooth="yes"/>
      <point x="509" y="-15"/>
      <point x="563" y="65"/>
      <point x="563" y="196" type="curve" smooth="yes"/>
      <point x="563" y="714" type="line"/>
      <point x="537" y="714" type="line"/>
      <point x="537" y="204" type="line" smooth="yes"/>
      <point x="537" y="76"/>
      <point x="489" y="9"/>
      <point x="337" y="9" type="curve" smooth="yes"/>
      <point x="251" y="9"/>
      <point x="199" y="31"/>
      <point x="145" y="55" type="curve"/>
      <point x="145" y="27" type="line"/>
      <point x="203" y="2"/>
      <point x="253" y="-15"/>
    </contour>
  </outline>
</glyph>
<glyph name="K" format="2">
  <advance width="800"/>
  <unicode hex="004B"/>
  <anchor x="431" y="0" name="bottom"/>
  <anchor x="400" y="714" name="top"/>
  <anchor x="802" y="714" name="topright"/>
  <outline>
    <contour>
      <point x="111" y="0" type="line"/>
      <point x="137" y="0" type="line"/>
      <point x="137" y="293" type="line"/>
      <point x="297" y="400" type="line"/>
      <point x="712" y="0" type="line"/>
      <point x="743" y="0" type="line"/>
      <point x="313" y="417" type="line"/>
      <point x="734" y="714" type="line"/>
      <point x="692" y="714" type="line"/>
      <point x="206" y="376" type="line" smooth="yes"/>
      <point x="179" y="357"/>
      <point x="162" y="343"/>
      <point x="137" y="322" type="curve"/>
      <point x="137" y="714" type="line"/>
      <point x="111" y="714" type="line"/>
    </contour>
  </outline>
</glyph>
<glyph name="L" format="2">
  <advance width="800"/>
  <unicode hex="004C"/>
  <anchor x="459" y="0" name="bottom"/>
  <anchor x="400" y="357" name="center"/>
  <anchor x="204" y="714" name="top"/>
  <anchor x="572" y="714" name="topright"/>
  <outline>
    <contour>
      <point x="191" y="0" type="line"/>
      <point x="700" y="0" type="line"/>
      <point x="700" y="25" type="line"/>
      <point x="217" y="25" type="line"/>
      <point x="217" y="714" type="line"/>
      <point x="191" y="714" type="line"/>
    </contour>
  </outline>
</glyph>
<glyph name="M" format="2">
  <advance width="800"/>
  <unicode hex="004D"/>
  <anchor x="400" y="0" name="bottom"/>
  <anchor x="406" y="714" name="top"/>
  <anchor x="830" y="714" name="topright"/>
  <outline>
    <contour>
      <point x="58" y="0" type="line"/>
      <point x="85" y="0" type="line"/>
      <point x="85" y="586" type="line" smooth="yes"/>
      <point x="85" y="615"/>
      <point x="86" y="630"/>
      <point x="84" y="675" type="curve"/>
      <point x="87" y="675" type="line"/>
      <point x="385" y="203" type="line"/>
      <point x="415" y="203" type="line"/>
      <point x="711" y="674" type="line"/>
      <point x="713" y="674" type="line"/>
      <point x="715" y="643"/>
      <point x="715" y="613"/>
      <point x="715" y="582" type="curve" smooth="yes"/>
      <point x="715" y="0" type="line"/>
      <point x="742" y="0" type="line"/>
      <point x="742" y="714" type="line"/>
      <point x="704" y="714" type="line"/>
      <point x="402" y="235" type="line"/>
      <point x="397" y="235" type="line"/>
      <point x="93" y="714" type="line"/>
      <point x="58" y="714" type="line"/>
    </contour>
  </outline>
</glyph>
<glyph name="O" format="2">
  <advance width="800"/>
  <unicode hex="004F"/>
  <anchor x="400" y="0" name="bottom"/>
  <anchor x="400" y="357" name="center"/>
  <anchor x="404" y="10" name="ogonek"/>
  <anchor x="400" y="714" name="top"/>
  <anchor x="-1" y="714" name="topleft"/>
  <anchor x="830" y="714" name="topright"/>
  <outline>
    <contour>
      <point x="402" y="-10" type="curve" smooth="yes"/>
      <point x="649" y="-10"/>
      <point x="750" y="154"/>
      <point x="750" y="360" type="curve" smooth="yes"/>
      <point x="750" y="579"/>
      <point x="634" y="724"/>
      <point x="405" y="724" type="curve" smooth="yes"/>
      <point x="182" y="724"/>
      <point x="51" y="587"/>
      <point x="51" y="360" type="curve" smooth="yes"/>
      <point x="51" y="158"/>
      <point x="152" y="-10"/>
    </contour>
    <contour>
      <point x="403" y="15" type="curve" smooth="yes"/>
      <point x="188" y="15"/>
      <point x="77" y="151"/>
      <point x="77" y="358" type="curve" smooth="yes"/>
      <point x="77" y="564"/>
      <point x="191" y="699"/>
      <point x="403" y="699" type="curve" smooth="yes"/>
      <point x="608" y="699"/>
      <point x="722" y="576"/>
      <point x="722" y="358" type="curve" smooth="yes"/>
      <point x="722" y="146"/>
      <point x="614" y="15"/>
    </contour>
  </outline>
</glyph>
<glyph name="Q" format="2">
  <advance width="800"/>
  <unicode hex="0051"/>
  <anchor x="400" y="-210" name="bottom"/>
  <anchor x="400" y="714" name="top"/>
  <anchor x="830" y="714" name="topright"/>
  <anchor x="-31" y="714" name="topleft"/>
  <anchor x="374" y="10" name="ogonek"/>
  <anchor x="370" y="357" name="center"/>
  <outline>
    <contour>
      <point x="644" y="-170" type="line"/>
      <point x="675" y="-170" type="line"/>
      <point x="523" y="16" type="line"/>
      <point x="492" y="12" type="line"/>
    </contour>
    <component base="O" xOffset="-30"/>
  </outline>
</glyph>
<glyph name="S" format="2">
  <advance width="800"/>
  <unicode hex="0053"/>
  <anchor x="400" y="0" name="bottom"/>
  <anchor x="430" y="714" name="top"/>
  <anchor x="801" y="714" name="topright"/>
  <outline>
    <contour>
      <point x="368" y="-10" type="curve" smooth="yes"/>
      <point x="574" y="-10"/>
      <point x="722" y="52"/>
      <point x="722" y="181" type="curve" smooth="yes"/>
      <point x="722" y="302"/>
      <point x="591" y="334"/>
      <point x="411" y="375" type="curve" smooth="yes"/>
      <point x="258" y="410"/>
      <point x="137" y="438"/>
      <point x="137" y="542" type="curve" smooth="yes"/>
      <point x="137" y="657"/>
      <point x="285" y="699"/>
      <point x="440" y="699" type="curve" smooth="yes"/>
      <point x="505" y="699"/>
      <point x="588" y="691"/>
      <point x="679" y="664" type="curve"/>
      <point x="692" y="688" type="line"/>
      <point x="606" y="714"/>
      <point x="521" y="724"/>
      <point x="442" y="724" type="curve" smooth="yes"/>
      <point x="257" y="724"/>
      <point x="110" y="668"/>
      <point x="110" y="540" type="curve" smooth="yes"/>
      <point x="110" y="426"/>
      <point x="224" y="392"/>
      <point x="400" y="352" type="curve" smooth="yes"/>
      <point x="579" y="311"/>
      <point x="695" y="283"/>
      <point x="695" y="180" type="curve" smooth="yes"/>
      <point x="695" y="65"/>
      <point x="549" y="15"/>
      <point x="368" y="15" type="curve" smooth="yes"/>
      <point x="279" y="15"/>
      <point x="178" y="28"/>
      <point x="100" y="48" type="curve"/>
      <point x="100" y="20" type="line"/>
      <point x="162" y="7"/>
      <point x="259" y="-10"/>
    </contour>
  </outline>
</glyph>
<glyph name="U" format="2">
  <advance width="800"/>
  <unicode hex="0055"/>
  <anchor x="400" y="0" name="bottom"/>
  <anchor x="744" y="10" name="ogonek"/>
  <anchor x="400" y="714" name="top"/>
  <anchor x="802" y="714" name="topright"/>
  <outline>
    <contour>
      <point x="394" y="-10" type="curve" smooth="yes"/>
      <point x="578" y="-10"/>
      <point x="690" y="74"/>
      <point x="690" y="252" type="curve" smooth="yes"/>
      <point x="690" y="714" type="line"/>
      <point x="664" y="714" type="line"/>
      <point x="664" y="258" type="line" smooth="yes"/>
      <point x="664" y="91"/>
      <point x="567" y="15"/>
      <point x="396" y="15" type="curve" smooth="yes"/>
      <point x="217" y="15"/>
      <point x="137" y="97"/>
      <point x="137" y="258" type="curve" smooth="yes"/>
      <point x="137" y="714" type="line"/>
      <point x="111" y="714" type="line"/>
      <point x="111" y="254" type="line" smooth="yes"/>
      <point x="111" y="82"/>
      <point x="200" y="-10"/>
    </contour>
  </outline>
</glyph>
<glyph name="Y" format="2">
  <advance width="800"/>
  <unicode hex="0059"/>
  <anchor x="400" y="0" name="bottom"/>
  <anchor x="400" y="714" name="top"/>
  <anchor x="-2" y="714" name="topleft"/>
  <anchor x="801" y="714" name="topright"/>
  <outline>
    <contour>
      <point x="389" y="0" type="line"/>
      <point x="416" y="0" type="line"/>
      <point x="416" y="271" type="line"/>
      <point x="755" y="714" type="line"/>
      <point x="725" y="714" type="line"/>
      <point x="403" y="294" type="line"/>
      <point x="73" y="714" type="line"/>
      <point x="44" y="714" type="line"/>
      <point x="389" y="271" type="line"/>
    </contour>
  </outline>
</glyph>
<glyph name="Z" format="2">
  <advance width="800"/>
  <unicode hex="005A"/>
  <anchor x="430" y="0" name="bottom"/>
  <anchor x="425" y="714" name="top"/>
  <anchor x="801" y="714" name="topright"/>
  <outline>
    <contour>
      <point x="138" y="0" type="line"/>
      <point x="677" y="0" type="line"/>
      <point x="677" y="25" type="line"/>
      <point x="174" y="25" type="line"/>
      <point x="658" y="696" type="line"/>
      <point x="658" y="714" type="line"/>
      <point x="180" y="714" type="line"/>
      <point x="180" y="689" type="line"/>
      <point x="621" y="689" type="line"/>
      <point x="138" y="18" type="line"/>
    </contour>
  </outline>
</glyph>
<glyph name="asciicircum" format="2">
  <advance width="800"/>
  <unicode hex="005E"/>
  <outline>
    <contour>
      <point x="59" y="278" type="line"/>
      <point x="92" y="278" type="line"/>
      <point x="413" y="686" type="line"/>
      <point x="707" y="278" type="line"/>
      <point x="740" y="278" type="line"/>
      <point x="429" y="719" type="line"/>
      <point x="401" y="719" type="line"/>
    </contour>
  </outline>
</glyph>
<glyph name="grave" format="2">
  <advance width="800"/>
  <unicode hex="0060"/>
  <outline>
    <contour>
      <point x="489" y="606" type="curve"/>
      <point x="513" y="606" type="line"/>
      <point x="513" y="612" type="line"/>
      <point x="446" y="652"/>
      <point x="349" y="723"/>
      <point x="306" y="766" type="curve"/>
      <point x="276" y="766" type="line"/>
      <point x="276" y="759" type="line"/>
      <point x="328" y="714"/>
      <point x="412" y="650"/>
    </contour>
  </outline>
</glyph>
<glyph name="a" format="2">
  <advance width="800"/>
  <unicode hex="0061"/>
  <anchor x="409" y="0" name="bottom"/>
  <anchor x="743" y="10" name="ogonek"/>
  <anchor x="407" y="528" name="top"/>
  <anchor x="801" y="528" name="topright"/>
  <outline>
    <contour>
      <point x="335" y="-10" type="curve" smooth="yes"/>
      <point x="497" y="-10"/>
      <point x="598" y="39"/>
      <point x="638" y="103" type="curve"/>
      <point x="641" y="103" type="line"/>
      <point x="645" y="0" type="line"/>
      <point x="668" y="0" type="line"/>
      <point x="668" y="350" type="line" smooth="yes"/>
      <point x="668" y="480"/>
      <point x="583" y="537"/>
      <point x="407" y="537" type="curve" smooth="yes"/>
      <point x="328" y="537"/>
      <point x="251" y="523"/>
      <point x="174" y="497" type="curve"/>
      <point x="183" y="472" type="line"/>
      <point x="267" y="501"/>
      <point x="338" y="512"/>
      <point x="407" y="512" type="curve" smooth="yes"/>
      <point x="568" y="512"/>
      <point x="641" y="465"/>
      <point x="641" y="343" type="curve" smooth="yes"/>
      <point x="641" y="300" type="line"/>
      <point x="464" y="294" type="line" smooth="yes"/>
      <point x="247" y="287"/>
      <point x="102" y="240"/>
      <point x="102" y="128" type="curve" smooth="yes"/>
      <point x="102" y="44"/>
      <point x="180" y="-10"/>
    </contour>
    <contour>
      <point x="335" y="15" type="curve" smooth="yes"/>
      <point x="199" y="15"/>
      <point x="130" y="58"/>
      <point x="130" y="128" type="curve" smooth="yes"/>
      <point x="130" y="228"/>
      <point x="273" y="264"/>
      <point x="468" y="270" type="curve" smooth="yes"/>
      <point x="641" y="275" type="line"/>
      <point x="641" y="220" type="line" smooth="yes"/>
      <point x="641" y="100"/>
      <point x="539" y="15"/>
    </contour>
  </outline>
</glyph>
<glyph name="e" format="2">
  <advance width="800"/>
  <unicode hex="0065"/>
  <anchor x="414" y="0" name="bottom"/>
  <anchor x="423" y="10" name="ogonek"/>
  <anchor x="404" y="528" name="top"/>
  <anchor x="801" y="528" name="topright"/>
  <outline>
    <contour>
      <point x="451" y="-10" type="curve" smooth="yes"/>
      <point x="535" y="-10"/>
      <point x="625" y="1"/>
      <point x="700" y="23" type="curve"/>
      <point x="700" y="51" type="line"/>
      <point x="620" y="28"/>
      <point x="546" y="15"/>
      <point x="452" y="15" type="curve" smooth="yes"/>
      <point x="201" y="15"/>
      <point x="107" y="108"/>
      <point x="107" y="266" type="curve"/>
      <point x="720" y="266" type="line"/>
      <point x="720" y="291" type="line" smooth="yes"/>
      <point x="720" y="430"/>
      <point x="637" y="537"/>
      <point x="426" y="537" type="curve" smooth="yes"/>
      <point x="184" y="537"/>
      <point x="80" y="410"/>
      <point x="80" y="254" type="curve" smooth="yes"/>
      <point x="80" y="104"/>
      <point x="177" y="-10"/>
    </contour>
    <contour>
      <point x="109" y="291" type="line"/>
      <point x="127" y="436"/>
      <point x="254" y="512"/>
      <point x="426" y="512" type="curve" smooth="yes"/>
      <point x="608" y="512"/>
      <point x="693" y="425"/>
      <point x="692" y="291" type="curve"/>
    </contour>
  </outline>
</glyph>
<glyph name="f" format="2">
  <advance width="800"/>
  <unicode hex="0066"/>
  <anchor x="400" y="0" name="bottom"/>
  <anchor x="575" y="765" name="top"/>
  <anchor x="802" y="765" name="topright"/>
  <outline>
    <contour>
      <point x="367" y="0" type="line"/>
      <point x="393" y="0" type="line"/>
      <point x="393" y="503" type="line"/>
      <point x="726" y="503" type="line"/>
      <point x="726" y="528" type="line"/>
      <point x="393" y="528" type="line"/>
      <point x="393" y="592" type="line" smooth="yes"/>
      <point x="393" y="703"/>
      <point x="462" y="740"/>
      <point x="609" y="740" type="curve" smooth="yes"/>
      <point x="665" y="740"/>
      <point x="728" y="735"/>
      <point x="768" y="728" type="curve"/>
      <point x="771" y="752" type="line"/>
      <point x="736" y="759"/>
      <point x="656" y="765"/>
      <point x="610" y="765" type="curve" smooth="yes"/>
      <point x="437" y="765"/>
      <point x="367" y="707"/>
      <point x="367" y="603" type="curve" smooth="yes"/>
      <point x="367" y="528" type="line"/>
      <point x="110" y="524" type="line"/>
      <point x="110" y="503" type="line"/>
      <point x="367" y="503" type="line"/>
    </contour>
  </outline>
</glyph>
<glyph name="k" format="2">
  <advance width="800"/>
  <unicode hex="006B"/>
  <anchor x="448" y="0" name="bottom"/>
  <anchor x="457" y="760" name="top"/>
  <anchor x="801" y="760" name="topright"/>
  <outline>
    <contour>
      <point x="177" y="0" type="line"/>
      <point x="203" y="0" type="line"/>
      <point x="203" y="169" type="line"/>
      <point x="403" y="297" type="line"/>
      <point x="715" y="0" type="line"/>
      <point x="747" y="0" type="line"/>
      <point x="422" y="315" type="line"/>
      <point x="717" y="528" type="line"/>
      <point x="681" y="528" type="line"/>
      <point x="302" y="269" type="line" smooth="yes"/>
      <point x="266" y="244"/>
      <point x="235" y="222"/>
      <point x="205" y="201" type="curve"/>
      <point x="203" y="201" type="line"/>
      <point x="204" y="265"/>
      <point x="203" y="321"/>
      <point x="203" y="385" type="curve" smooth="yes"/>
      <point x="203" y="760" type="line"/>
      <point x="177" y="760" type="line"/>
    </contour>
  </outline>
</glyph>
<glyph name="l" format="2">
  <advance width="800"/>
  <unicode hex="006C"/>
  <anchor x="419" y="0" name="bottom"/>
  <anchor x="419" y="379" name="center"/>
  <anchor x="400" y="760" name="top"/>
  <anchor x="665" y="760" name="topright"/>
  <outline>
    <contour>
      <point x="117" y="0" type="line"/>
      <point x="728" y="0" type="line"/>
      <point x="728" y="21" type="line"/>
      <point x="432" y="25" type="line"/>
      <point x="432" y="760" type="line"/>
      <point x="151" y="760" type="line"/>
      <point x="151" y="739" type="line"/>
      <point x="406" y="735" type="line"/>
      <point x="406" y="25" type="line"/>
      <point x="117" y="21" type="line"/>
    </contour>
  </outline>
</glyph>
<glyph name="m" format="2">
  <advance width="800"/>
  <unicode hex="006D"/>
  <anchor x="404" y="0" name="bottom"/>
  <anchor x="413" y="528" name="top"/>
  <anchor x="801" y="528" name="topright"/>
  <outline>
    <contour>
      <point x="74" y="0" type="line"/>
      <point x="102" y="0" type="line"/>
      <point x="102" y="328" type="line" smooth="yes"/>
      <point x="102" y="410"/>
      <point x="147" y="512"/>
      <point x="266" y="512" type="curve" smooth="yes"/>
      <point x="332" y="512"/>
      <point x="392" y="479"/>
      <point x="392" y="355" type="curve" smooth="yes"/>
      <point x="392" y="0" type="line"/>
      <point x="420" y="0" type="line"/>
      <point x="420" y="341" type="line" smooth="yes"/>
      <point x="420" y="443"/>
      <point x="483" y="512"/>
      <point x="581" y="512" type="curve" smooth="yes"/>
      <point x="649" y="512"/>
      <point x="706" y="476"/>
      <point x="706" y="372" type="curve" smooth="yes"/>
      <point x="706" y="0" type="line"/>
      <point x="734" y="0" type="line"/>
      <point x="734" y="381" type="line" smooth="yes"/>
      <point x="734" y="487"/>
      <point x="673" y="537"/>
      <point x="580" y="537" type="curve" smooth="yes"/>
      <point x="485" y="537"/>
      <point x="441" y="491"/>
      <point x="412" y="431" type="curve"/>
      <point x="408" y="431" type="line"/>
      <point x="400" y="486"/>
      <point x="363" y="537"/>
      <point x="263" y="537" type="curve" smooth="yes"/>
      <point x="151" y="537"/>
      <point x="118" y="476"/>
      <point x="99" y="430" type="curve"/>
      <point x="96" y="430" type="line"/>
      <point x="94" y="527" type="line"/>
      <point x="74" y="527" type="line"/>
    </contour>
  </outline>
</glyph>
<glyph name="n" format="2">
  <advance width="800"/>
  <unicode hex="006E"/>
  <anchor x="413" y="0" name="bottom"/>
  <anchor x="411" y="528" name="top"/>
  <anchor x="801" y="528" name="topright"/>
  <outline>
    <contour>
      <point x="125" y="0" type="line"/>
      <point x="151" y="0" type="line"/>
      <point x="151" y="302" type="line" smooth="yes"/>
      <point x="151" y="446"/>
      <point x="266" y="512"/>
      <point x="427" y="512" type="curve" smooth="yes"/>
      <point x="569" y="512"/>
      <point x="656" y="462"/>
      <point x="656" y="345" type="curve" smooth="yes"/>
      <point x="656" y="0" type="line"/>
      <point x="682" y="0" type="line"/>
      <point x="682" y="354" type="line" smooth="yes"/>
      <point x="682" y="477"/>
      <point x="585" y="537"/>
      <point x="424" y="537" type="curve" smooth="yes"/>
      <point x="260" y="537"/>
      <point x="184" y="478"/>
      <point x="153" y="417" type="curve"/>
      <point x="150" y="417" type="line"/>
      <point x="148" y="528" type="line"/>
      <point x="125" y="528" type="line"/>
    </contour>
  </outline>
</glyph>
<glyph name="o" format="2">
  <advance width="800"/>
  <unicode hex="006F"/>
  <anchor x="400" y="0" name="bottom"/>
  <anchor x="400" y="264" name="center"/>
  <anchor x="400" y="10" name="ogonek"/>
  <anchor x="400" y="528" name="top"/>
  <anchor x="801" y="528" name="topright"/>
  <outline>
    <contour>
      <point x="400" y="-10" type="curve" smooth="yes"/>
      <point x="628" y="-10"/>
      <point x="727" y="109"/>
      <point x="727" y="267" type="curve" smooth="yes"/>
      <point x="727" y="416"/>
      <point x="641" y="537"/>
      <point x="408" y="537" type="curve" smooth="yes"/>
      <point x="195" y="537"/>
      <point x="73" y="432"/>
      <point x="73" y="264" type="curve" smooth="yes"/>
      <point x="73" y="107"/>
      <point x="175" y="-10"/>
    </contour>
    <contour>
      <point x="400" y="15" type="curve" smooth="yes"/>
      <point x="198" y="15"/>
      <point x="101" y="116"/>
      <point x="101" y="263" type="curve" smooth="yes"/>
      <point x="101" y="420"/>
      <point x="216" y="512"/>
      <point x="408" y="512" type="curve" smooth="yes"/>
      <point x="622" y="512"/>
      <point x="699" y="402"/>
      <point x="699" y="265" type="curve" smooth="yes"/>
      <point x="699" y="119"/>
      <point x="607" y="15"/>
    </contour>
  </outline>
</glyph>
<glyph name="q" format="2">
  <advance width="800"/>
  <unicode hex="0071"/>
  <anchor x="387" y="-240" name="bottom"/>
  <anchor x="387" y="528" name="top"/>
  <anchor x="801" y="528" name="topright"/>
  <outline>
    <contour>
      <point x="649" y="-240" type="line"/>
      <point x="675" y="-240" type="line"/>
      <point x="675" y="528" type="line"/>
      <point x="652" y="528" type="line"/>
      <point x="648" y="422" type="line"/>
      <point x="646" y="422" type="line"/>
      <point x="614" y="484"/>
      <point x="531" y="537"/>
      <point x="382" y="537" type="curve" smooth="yes"/>
      <point x="161" y="537"/>
      <point x="73" y="416"/>
      <point x="73" y="254" type="curve" smooth="yes"/>
      <point x="73" y="86"/>
      <point x="170" y="-10"/>
      <point x="368" y="-10" type="curve" smooth="yes"/>
      <point x="522" y="-10"/>
      <point x="610" y="46"/>
      <point x="649" y="124" type="curve"/>
      <point x="652" y="124" type="line"/>
      <point x="650" y="91"/>
      <point x="649" y="35"/>
      <point x="649" y="3" type="curve" smooth="yes"/>
    </contour>
    <contour>
      <point x="365" y="15" type="curve" smooth="yes"/>
      <point x="187" y="15"/>
      <point x="100" y="98"/>
      <point x="100" y="256" type="curve" smooth="yes"/>
      <point x="100" y="420"/>
      <point x="196" y="512"/>
      <point x="380" y="512" type="curve" smooth="yes"/>
      <point x="556" y="512"/>
      <point x="649" y="430"/>
      <point x="649" y="275" type="curve" smooth="yes"/>
      <point x="649" y="265" type="line" smooth="yes"/>
      <point x="649" y="109"/>
      <point x="556" y="15"/>
    </contour>
  </outline>
</glyph>
<glyph name="r" format="2">
  <advance width="800"/>
  <unicode hex="0072"/>
  <anchor x="382" y="0" name="bottom"/>
  <anchor x="467" y="528" name="top"/>
  <anchor x="801" y="528" name="topright"/>
  <outline>
    <contour>
      <point x="120" y="0" type="line"/>
      <point x="691" y="0" type="line"/>
      <point x="691" y="21" type="line"/>
      <point x="397" y="25" type="line"/>
      <point x="397" y="273" type="line" smooth="yes"/>
      <point x="397" y="417"/>
      <point x="478" y="510"/>
      <point x="648" y="510" type="curve" smooth="yes"/>
      <point x="695" y="510"/>
      <point x="740" y="505"/>
      <point x="776" y="497" type="curve"/>
      <point x="782" y="523" type="line"/>
      <point x="751" y="530"/>
      <point x="698" y="536"/>
      <point x="650" y="536" type="curve" smooth="yes"/>
      <point x="516" y="536"/>
      <point x="423" y="479"/>
      <point x="402" y="407" type="curve"/>
      <point x="398" y="407" type="line"/>
      <point x="400" y="528" type="line"/>
      <point x="146" y="528" type="line"/>
      <point x="146" y="507" type="line"/>
      <point x="371" y="503" type="line"/>
      <point x="371" y="25" type="line"/>
      <point x="120" y="21" type="line"/>
    </contour>
  </outline>
</glyph>
<glyph name="t" format="2">
  <advance width="800"/>
  <unicode hex="0074"/>
  <anchor x="527" y="0" name="bottom"/>
  <anchor x="355" y="264" name="center"/>
  <anchor x="359" y="659" name="top"/>
  <anchor x="801" y="659" name="topright"/>
  <outline>
    <contour>
      <point x="560" y="-10" type="curve" smooth="yes"/>
      <point x="609" y="-10"/>
      <point x="638" y="-4"/>
      <point x="667" y="3" type="curve"/>
      <point x="667" y="28" type="line"/>
      <point x="637" y="20"/>
      <point x="606" y="15"/>
      <point x="559" y="15" type="curve" smooth="yes"/>
      <point x="410" y="15"/>
      <point x="370" y="75"/>
      <point x="370" y="183" type="curve" smooth="yes"/>
      <point x="370" y="503" type="line"/>
      <point x="683" y="503" type="line"/>
      <point x="683" y="528" type="line"/>
      <point x="370" y="528" type="line"/>
      <point x="370" y="659" type="line"/>
      <point x="348" y="659" type="line"/>
      <point x="343" y="528" type="line"/>
      <point x="95" y="524" type="line"/>
      <point x="95" y="503" type="line"/>
      <point x="344" y="503" type="line"/>
      <point x="344" y="180" type="line" smooth="yes"/>
      <point x="344" y="62"/>
      <point x="387" y="-10"/>
    </contour>
  </outline>
</glyph>
<glyph name="sterling" format="2">
  <advance width="800"/>
  <unicode hex="00A3"/>
  <outline>
    <contour>
      <point x="102" y="0" type="line"/>
      <point x="743" y="0" type="line"/>
      <point x="743" y="25" type="line"/>
      <point x="192" y="25" type="line"/>
      <point x="260" y="48"/>
      <point x="310" y="95"/>
      <point x="310" y="178" type="curve" smooth="yes"/>
      <point x="310" y="335" type="line"/>
      <point x="567" y="335" type="line"/>
      <point x="567" y="360" type="line"/>
      <point x="310" y="360" type="line"/>
      <point x="310" y="512" type="line" smooth="yes"/>
      <point x="310" y="642"/>
      <point x="379" y="698"/>
      <point x="530" y="698" type="curve" smooth="yes"/>
      <point x="599" y="698"/>
      <point x="657" y="686"/>
      <point x="724" y="660" type="curve"/>
      <point x="733" y="684" type="line"/>
      <point x="680" y="706"/>
      <point x="614" y="723"/>
      <point x="531" y="723" type="curve" smooth="yes"/>
      <point x="366" y="723"/>
      <point x="284" y="657"/>
      <point x="284" y="516" type="curve" smooth="yes"/>
      <point x="284" y="360" type="line"/>
      <point x="127" y="360" type="line"/>
      <point x="127" y="335" type="line"/>
      <point x="284" y="335" type="line"/>
      <point x="284" y="187" type="line" smooth="yes"/>
      <point x="284" y="89"/>
      <point x="223" y="37"/>
      <point x="102" y="23" type="curve"/>
    </contour>
  </outline>
</glyph>
<glyph name="currency" format="2">
  <advance width="800"/>
  <unicode hex="00A4"/>
  <outline>
    <contour>
      <point x="704" y="124" type="line"/>
      <point x="726" y="142" type="line"/>
      <point x="612" y="220" type="line"/>
      <point x="663" y="258"/>
      <point x="688" y="306"/>
      <point x="688" y="354" type="curve" smooth="yes"/>
      <point x="688" y="402"/>
      <point x="666" y="448"/>
      <point x="615" y="486" type="curve"/>
      <point x="728" y="563" type="line"/>
      <point x="709" y="581" type="line"/>
      <point x="597" y="504" type="line"/>
      <point x="542" y="538"/>
      <point x="469" y="555"/>
      <point x="399" y="555" type="curve" smooth="yes"/>
      <point x="330" y="555"/>
      <point x="260" y="538"/>
      <point x="204" y="504" type="curve"/>
      <point x="90" y="582" type="line"/>
      <point x="70" y="564" type="line"/>
      <point x="182" y="486" type="line"/>
      <point x="133" y="448"/>
      <point x="113" y="402"/>
      <point x="113" y="354" type="curve" smooth="yes"/>
      <point x="113" y="306"/>
      <point x="138" y="258"/>
      <point x="187" y="220" type="curve"/>
      <point x="75" y="144" type="line"/>
      <point x="95" y="126" type="line"/>
      <point x="209" y="202" type="line"/>
      <point x="265" y="168"/>
      <point x="330" y="153"/>
      <point x="399" y="153" type="curve" smooth="yes"/>
      <point x="469" y="153"/>
      <point x="537" y="168"/>
      <point x="592" y="202" type="curve"/>
    </contour>
    <contour>
      <point x="398" y="179" type="curve" smooth="yes"/>
      <point x="261" y="179"/>
      <point x="141" y="254"/>
      <point x="141" y="353" type="curve" smooth="yes"/>
      <point x="141" y="451"/>
      <point x="248" y="530"/>
      <point x="404" y="530" type="curve" smooth="yes"/>
      <point x="551" y="530"/>
      <point x="658" y="450"/>
      <point x="658" y="356" type="curve" smooth="yes"/>
      <point x="658" y="259"/>
      <point x="541" y="179"/>
    </contour>
  </outline>
</glyph>
<glyph name="dieresis" format="2">
  <advance width="800"/>
  <unicode hex="00A8"/>
  <anchor x="400" y="528" name="_top"/>
  <anchor x="400" y="638" name="top"/>
  <outline>
    <contour>
      <point x="537" y="643" type="curve" smooth="yes"/>
      <point x="569" y="643"/>
      <point x="569" y="660"/>
      <point x="569" y="678" type="curve" smooth="yes"/>
      <point x="569" y="695"/>
      <point x="569" y="713"/>
      <point x="537" y="713" type="curve" smooth="yes"/>
      <point x="507" y="713"/>
      <point x="503" y="697"/>
      <point x="503" y="678" type="curve" smooth="yes"/>
      <point x="503" y="658"/>
      <point x="507" y="643"/>
    </contour>
    <contour>
      <point x="260" y="643" type="curve" smooth="yes"/>
      <point x="294" y="643"/>
      <point x="294" y="661"/>
      <point x="294" y="678" type="curve" smooth="yes"/>
      <point x="294" y="695"/>
      <point x="294" y="713"/>
      <point x="260" y="713" type="curve" smooth="yes"/>
      <point x="232" y="713"/>
      <point x="228" y="698"/>
      <point x="228" y="678" type="curve" smooth="yes"/>
      <point x="228" y="658"/>
      <point x="232" y="643"/>
    </contour>
  </outline>
</glyph>
<glyph name="copyright" format="2">
  <advance width="800"/>
  <unicode hex="00A9"/>
  <outline>
    <contour>
      <point x="394" y="100" type="curve" smooth="yes"/>
      <point x="603" y="100"/>
      <point x="774" y="204"/>
      <point x="774" y="358" type="curve" smooth="yes"/>
      <point x="774" y="507"/>
      <point x="614" y="618"/>
      <point x="402" y="618" type="curve" smooth="yes"/>
      <point x="197" y="618"/>
      <point x="27" y="514"/>
      <point x="27" y="357" type="curve" smooth="yes"/>
      <point x="27" y="205"/>
      <point x="185" y="100"/>
    </contour>
    <contour>
      <point x="422" y="203" type="curve" smooth="yes"/>
      <point x="465" y="203"/>
      <point x="503" y="209"/>
      <point x="538" y="218" type="curve"/>
      <point x="538" y="239" type="line"/>
      <point x="497" y="228"/>
      <point x="462" y="225"/>
      <point x="432" y="225" type="curve" smooth="yes"/>
      <point x="310" y="225"/>
      <point x="233" y="269"/>
      <point x="233" y="356" type="curve" smooth="yes"/>
      <point x="233" y="441"/>
      <point x="306" y="493"/>
      <point x="432" y="493" type="curve" smooth="yes"/>
      <point x="473" y="493"/>
      <point x="513" y="487"/>
      <point x="544" y="477" type="curve"/>
      <point x="553" y="497" type="line"/>
      <point x="521" y="510"/>
      <point x="477" y="515"/>
      <point x="435" y="515" type="curve" smooth="yes"/>
      <point x="289" y="515"/>
      <point x="205" y="454"/>
      <point x="205" y="356" type="curve" smooth="yes"/>
      <point x="205" y="256"/>
      <point x="293" y="203"/>
    </contour>
    <contour>
      <point x="397" y="123" type="curve" smooth="yes"/>
      <point x="195" y="123"/>
      <point x="55" y="224"/>
      <point x="55" y="359" type="curve" smooth="yes"/>
      <point x="55" y="498"/>
      <point x="206" y="595"/>
      <point x="400" y="595" type="curve" smooth="yes"/>
      <point x="601" y="595"/>
      <point x="746" y="493"/>
      <point x="746" y="358" type="curve" smooth="yes"/>
      <point x="746" y="220"/>
      <point x="596" y="123"/>
    </contour>
  </outline>
</glyph>
<glyph name="guillemotleft" format="2">
  <advance width="800"/>
  <unicode hex="00AB"/>
  <outline>
    <contour>
      <point x="601" y="82" type="line"/>
      <point x="617" y="93" type="line"/>
      <point x="420" y="274" type="line"/>
      <point x="617" y="455" type="line"/>
      <point x="601" y="467" type="line"/>
      <point x="387" y="280" type="line"/>
      <point x="387" y="267" type="line"/>
    </contour>
    <contour>
      <point x="364" y="82" type="line"/>
      <point x="380" y="93" type="line"/>
      <point x="183" y="274" type="line"/>
      <point x="379" y="455" type="line"/>
      <point x="364" y="467" type="line"/>
      <point x="149" y="280" type="line"/>
      <point x="149" y="267" type="line"/>
    </contour>
  </outline>
</glyph>
<glyph name="logicalnot" format="2">
  <advance width="800"/>
  <unicode hex="00AC"/>
  <outline>
    <contour>
      <point x="654" y="132" type="line"/>
      <point x="680" y="132" type="line"/>
      <point x="680" y="365" type="line"/>
      <point x="45" y="365" type="line"/>
      <point x="45" y="341" type="line"/>
      <point x="654" y="341" type="line"/>
    </contour>
  </outline>
</glyph>
<glyph name="registered" format="2">
  <advance width="800"/>
  <unicode hex="00AE"/>
  <outline>
    <contour>
      <point x="394" y="100" type="curve" smooth="yes"/>
      <point x="603" y="100"/>
      <point x="774" y="204"/>
      <point x="774" y="358" type="curve" smooth="yes"/>
      <point x="774" y="507"/>
      <point x="614" y="618"/>
      <point x="402" y="618" type="curve" smooth="yes"/>
      <point x="197" y="618"/>
      <point x="27" y="514"/>
      <point x="27" y="357" type="curve" smooth="yes"/>
      <point x="27" y="205"/>
      <point x="185" y="100"/>
    </contour>
    <contour>
      <point x="397" y="123" type="curve" smooth="yes"/>
      <point x="195" y="123"/>
      <point x="55" y="224"/>
      <point x="55" y="359" type="curve" smooth="yes"/>
      <point x="55" y="498"/>
      <point x="206" y="595"/>
      <point x="400" y="595" type="curve" smooth="yes"/>
      <point x="601" y="595"/>
      <point x="746" y="493"/>
      <point x="746" y="358" type="curve" smooth="yes"/>
      <point x="746" y="220"/>
      <point x="596" y="123"/>
    </contour>
    <contour>
      <point x="270" y="190" type="line"/>
      <point x="296" y="190" type="line"/>
      <point x="296" y="336" type="line"/>
      <point x="433" y="336" type="line"/>
      <point x="563" y="190" type="line"/>
      <point x="596" y="190" type="line"/>
      <point x="462" y="340" type="line"/>
      <point x="525" y="353"/>
      <point x="573" y="382"/>
      <point x="573" y="438" type="curve" smooth="yes"/>
      <point x="573" y="504"/>
      <point x="505" y="534"/>
      <point x="410" y="534" type="curve" smooth="yes"/>
      <point x="270" y="534" type="line"/>
    </contour>
    <contour>
      <point x="296" y="356" type="line"/>
      <point x="296" y="512" type="line"/>
      <point x="409" y="512" type="line" smooth="yes"/>
      <point x="490" y="512"/>
      <point x="545" y="492"/>
      <point x="545" y="437" type="curve" smooth="yes"/>
      <point x="545" y="379"/>
      <point x="486" y="356"/>
      <point x="406" y="356" type="curve" smooth="yes"/>
    </contour>
  </outline>
</glyph>
<glyph name="twosuperior" format="2">
  <advance width="800"/>
  <unicode hex="00B2"/>
  <outline>
    <contour>
      <point x="195" y="416" type="line"/>
      <point x="593" y="416" type="line"/>
      <point x="593" y="441" type="line"/>
      <point x="240" y="441" type="line"/>
      <point x="391" y="546" type="line" smooth="yes"/>
      <point x="505" y="626"/>
      <point x="576" y="671"/>
      <point x="576" y="741" type="curve" smooth="yes"/>
      <point x="576" y="807"/>
      <point x="512" y="855"/>
      <point x="398" y="855" type="curve" smooth="yes"/>
      <point x="333" y="855"/>
      <point x="271" y="839"/>
      <point x="220" y="809" type="curve"/>
      <point x="235" y="789" type="line"/>
      <point x="289" y="817"/>
      <point x="338" y="830"/>
      <point x="398" y="830" type="curve" smooth="yes"/>
      <point x="495" y="830"/>
      <point x="545" y="793"/>
      <point x="545" y="741" type="curve" smooth="yes"/>
      <point x="545" y="681"/>
      <point x="475" y="636"/>
      <point x="373" y="563" type="curve" smooth="yes"/>
      <point x="195" y="437" type="line"/>
    </contour>
  </outline>
</glyph>
<glyph name="paragraph" format="2">
  <advance width="800"/>
  <unicode hex="00B6"/>
  <outline>
    <contour>
      <point x="364" y="-127" type="line"/>
      <point x="394" y="-127" type="line"/>
      <point x="394" y="734" type="line"/>
      <point x="622" y="734" type="line"/>
      <point x="622" y="-127" type="line"/>
      <point x="652" y="-127" type="line"/>
      <point x="652" y="760" type="line"/>
      <point x="310" y="760" type="line" smooth="yes"/>
      <point x="149" y="760"/>
      <point x="85" y="684"/>
      <point x="85" y="556" type="curve" smooth="yes"/>
      <point x="85" y="437"/>
      <point x="144" y="346"/>
      <point x="280" y="346" type="curve" smooth="yes"/>
      <point x="316" y="346"/>
      <point x="336" y="349"/>
      <point x="364" y="355" type="curve"/>
    </contour>
  </outline>
</glyph>
<glyph name="cedilla" format="2">
  <advance width="800"/>
  <unicode hex="00B8"/>
  <outline>
    <contour>
      <point x="386" y="-240" type="curve" smooth="yes"/>
      <point x="486" y="-240"/>
      <point x="552" y="-203"/>
      <point x="552" y="-146" type="curve" smooth="yes"/>
      <point x="552" y="-95"/>
      <point x="501" y="-68"/>
      <point x="419" y="-65" type="curve"/>
      <point x="467" y="0" type="line"/>
      <point x="436" y="0" type="line"/>
      <point x="374" y="-85" type="line"/>
      <point x="480" y="-85"/>
      <point x="524" y="-104"/>
      <point x="524" y="-147" type="curve" smooth="yes"/>
      <point x="524" y="-191"/>
      <point x="476" y="-216"/>
      <point x="381" y="-216" type="curve" smooth="yes"/>
      <point x="363" y="-216"/>
      <point x="338" y="-215"/>
      <point x="313" y="-210" type="curve"/>
      <point x="313" y="-234" type="line"/>
      <point x="335" y="-238"/>
      <point x="363" y="-240"/>
    </contour>
  </outline>
</glyph>
<glyph name="onesuperior" format="2">
  <advance width="800"/>
  <unicode hex="00B9"/>
  <outline>
    <contour>
      <point x="398" y="416" type="line"/>
      <point x="429" y="416" type="line"/>
      <point x="429" y="844" type="line"/>
      <point x="408" y="844" type="line"/>
      <point x="213" y="771" type="line"/>
      <point x="224" y="749" type="line"/>
      <point x="290" y="774" type="line" smooth="yes"/>
      <point x="339" y="792"/>
      <point x="365" y="800"/>
      <point x="400" y="815" type="curve"/>
      <point x="398" y="779"/>
      <point x="398" y="734"/>
      <point x="398" y="696" type="curve" smooth="yes"/>
    </contour>
    <contour>
      <point x="244" y="416" type="line"/>
      <point x="574" y="416" type="line"/>
      <point x="574" y="435" type="line"/>
      <point x="428" y="440" type="line"/>
      <point x="398" y="440" type="line"/>
      <point x="244" y="435" type="line"/>
    </contour>
  </outline>
</glyph>
<glyph name="AE" format="2">
  <advance width="800"/>
  <unicode hex="00C6"/>
  <anchor x="400" y="0" name="bottom"/>
  <anchor x="492" y="714" name="top"/>
  <outline>
    <contour>
      <point x="-1" y="0" type="line"/>
      <point x="29" y="0" type="line"/>
      <point x="394" y="689" type="line"/>
      <point x="432" y="689" type="line"/>
      <point x="432" y="0" type="line"/>
      <point x="816" y="0" type="line"/>
      <point x="816" y="25" type="line"/>
      <point x="458" y="25" type="line"/>
      <point x="458" y="364" type="line"/>
      <point x="794" y="364" type="line"/>
      <point x="794" y="389" type="line"/>
      <point x="458" y="389" type="line"/>
      <point x="458" y="689" type="line"/>
      <point x="816" y="689" type="line"/>
      <point x="816" y="714" type="line"/>
      <point x="380" y="714" type="line"/>
    </contour>
    <contour>
      <point x="171" y="275" type="line"/>
      <point x="445" y="275" type="line"/>
      <point x="458" y="300" type="line"/>
      <point x="173" y="300" type="line"/>
    </contour>
  </outline>
</glyph>
<glyph name="Eth" format="2">
  <advance width="800"/>
  <unicode hex="00D0"/>
  <anchor x="400" y="0" name="bottom"/>
  <anchor x="400" y="714" name="top"/>
  <anchor x="814" y="714" name="topright"/>
  <anchor x="359" y="357" name="center"/>
  <outline>
    <contour>
      <point x="-30" y="353" type="line"/>
      <point x="361" y="353" type="line"/>
      <point x="361" y="378" type="line"/>
      <point x="-30" y="378" type="line"/>
    </contour>
    <component base="D" xOffset="-16"/>
  </outline>
</glyph>
<glyph name="Oslash" format="2">
  <advance width="800"/>
  <unicode hex="00D8"/>
  <anchor x="400" y="0" name="bottom"/>
  <anchor x="400" y="714" name="top"/>
  <anchor x="-31" y="714" name="topleft"/>
  <anchor x="374" y="10" name="ogonek"/>
  <anchor x="370" y="357" name="center"/>
  <anchor x="800" y="714" name="topright"/>
  <outline>
    <contour>
      <point x="95" y="-28" type="line"/>
      <point x="710" y="724" type="line"/>
      <point x="687" y="737" type="line"/>
      <point x="71" y="-15" type="line"/>
    </contour>
    <component base="O" xOffset="-30"/>
  </outline>
</glyph>
<glyph name="germandbls" format="2">
  <advance width="800"/>
  <unicode hex="00DF"/>
  <anchor x="400" y="0" name="bottom"/>
  <anchor x="400" y="765" name="top"/>
  <outline>
    <contour>
      <point x="476" y="-10" type="curve" smooth="yes"/>
      <point x="637" y="-10"/>
      <point x="710" y="57"/>
      <point x="710" y="134" type="curve" smooth="yes"/>
      <point x="710" y="227"/>
      <point x="638" y="263"/>
      <point x="558" y="302" type="curve" smooth="yes"/>
      <point x="477" y="342"/>
      <point x="423" y="366"/>
      <point x="423" y="420" type="curve" smooth="yes"/>
      <point x="423" y="526"/>
      <point x="618" y="511"/>
      <point x="618" y="636" type="curve" smooth="yes"/>
      <point x="618" y="713"/>
      <point x="545" y="765"/>
      <point x="404" y="765" type="curve" smooth="yes"/>
      <point x="225" y="765"/>
      <point x="132" y="692"/>
      <point x="132" y="563" type="curve" smooth="yes"/>
      <point x="132" y="0" type="line"/>
      <point x="158" y="0" type="line"/>
      <point x="158" y="555" type="line" smooth="yes"/>
      <point x="158" y="676"/>
      <point x="233" y="740"/>
      <point x="404" y="740" type="curve" smooth="yes"/>
      <point x="528" y="740"/>
      <point x="591" y="700"/>
      <point x="591" y="636" type="curve" smooth="yes"/>
      <point x="591" y="523"/>
      <point x="394" y="540"/>
      <point x="394" y="420" type="curve" smooth="yes"/>
      <point x="394" y="352"/>
      <point x="468" y="323"/>
      <point x="548" y="282" type="curve" smooth="yes"/>
      <point x="620" y="245"/>
      <point x="682" y="211"/>
      <point x="682" y="134" type="curve" smooth="yes"/>
      <point x="682" y="62"/>
      <point x="610" y="15"/>
      <point x="476" y="15" type="curve" smooth="yes"/>
      <point x="405" y="15"/>
      <point x="350" y="25"/>
      <point x="286" y="45" type="curve"/>
      <point x="286" y="17" type="line"/>
      <point x="336" y="3"/>
      <point x="385" y="-10"/>
    </contour>
  </outline>
</glyph>
<glyph name="ae" format="2">
  <advance width="800"/>
  <unicode hex="00E6"/>
  <anchor x="400" y="0" name="bottom"/>
  <anchor x="400" y="528" name="top"/>
  <outline>
    <contour>
      <point x="193" y="-10" type="curve" smooth="yes"/>
      <point x="318" y="-10"/>
      <point x="383" y="54"/>
      <point x="399" y="141" type="curve"/>
      <point x="425" y="54"/>
      <point x="482" y="-10"/>
      <point x="619" y="-10" type="curve" smooth="yes"/>
      <point x="665" y="-10"/>
      <point x="704" y="-1"/>
      <point x="751" y="22" type="curve"/>
      <point x="751" y="50" type="line"/>
      <point x="690" y="21"/>
      <point x="655" y="15"/>
      <point x="621" y="15" type="curve" smooth="yes"/>
      <point x="476" y="15"/>
      <point x="407" y="104"/>
      <point x="407" y="270" type="curve"/>
      <point x="777" y="270" type="line"/>
      <point x="777" y="297" type="line" smooth="yes"/>
      <point x="777" y="453"/>
      <point x="726" y="538"/>
      <point x="594" y="538" type="curve" smooth="yes"/>
      <point x="488" y="538"/>
      <point x="425" y="482"/>
      <point x="405" y="395" type="curve"/>
      <point x="397" y="492"/>
      <point x="331" y="537"/>
      <point x="218" y="537" type="curve" smooth="yes"/>
      <point x="156" y="537"/>
      <point x="101" y="523"/>
      <point x="51" y="502" type="curve"/>
      <point x="61" y="478" type="line"/>
      <point x="121" y="503"/>
      <point x="173" y="512"/>
      <point x="217" y="512" type="curve" smooth="yes"/>
      <point x="321" y="512"/>
      <point x="380" y="466"/>
      <point x="379" y="362" type="curve" smooth="yes"/>
      <point x="378" y="296" type="line"/>
      <point x="300" y="291" type="line" smooth="yes"/>
      <point x="127" y="280"/>
      <point x="20" y="237"/>
      <point x="20" y="128" type="curve" smooth="yes"/>
      <point x="20" y="48"/>
      <point x="73" y="-10"/>
    </contour>
    <contour>
      <point x="190" y="15" type="curve" smooth="yes"/>
      <point x="94" y="15"/>
      <point x="51" y="62"/>
      <point x="51" y="127" type="curve" smooth="yes"/>
      <point x="51" y="216"/>
      <point x="133" y="259"/>
      <point x="296" y="267" type="curve" smooth="yes"/>
      <point x="379" y="271" type="line"/>
      <point x="379" y="200" type="line" smooth="yes"/>
      <point x="379" y="106"/>
      <point x="321" y="15"/>
    </contour>
    <contour>
      <point x="408" y="295" type="line"/>
      <point x="417" y="427"/>
      <point x="478" y="513"/>
      <point x="594" y="513" type="curve" smooth="yes"/>
      <point x="702" y="513"/>
      <point x="750" y="442"/>
      <point x="750" y="295" type="curve"/>
    </contour>
  </outline>
</glyph>
<glyph name="eth" format="2">
  <advance width="800"/>
  <unicode hex="00F0"/>
  <anchor x="400" y="0" name="bottom"/>
  <anchor x="400" y="264" name="center"/>
  <anchor x="400" y="757" name="top"/>
  <anchor x="801" y="760" name="topright"/>
  <outline>
    <contour>
      <point x="401" y="-10" type="curve" smooth="yes"/>
      <point x="619" y="-10"/>
      <point x="727" y="95"/>
      <point x="727" y="264" type="curve" smooth="yes"/>
      <point x="727" y="439"/>
      <point x="616" y="657"/>
      <point x="297" y="757" type="curve"/>
      <point x="283" y="736" type="line"/>
      <point x="498" y="674"/>
      <point x="638" y="543"/>
      <point x="684" y="378" type="curve"/>
      <point x="682" y="378" type="line"/>
      <point x="634" y="425"/>
      <point x="545" y="465"/>
      <point x="413" y="465" type="curve" smooth="yes"/>
      <point x="219" y="465"/>
      <point x="73" y="372"/>
      <point x="73" y="222" type="curve" smooth="yes"/>
      <point x="73" y="83"/>
      <point x="195" y="-10"/>
    </contour>
    <contour>
      <point x="395" y="15" type="curve" smooth="yes"/>
      <point x="231" y="15"/>
      <point x="101" y="89"/>
      <point x="101" y="223" type="curve" smooth="yes"/>
      <point x="101" y="360"/>
      <point x="237" y="440"/>
      <point x="419" y="440" type="curve" smooth="yes"/>
      <point x="626" y="440"/>
      <point x="699" y="340"/>
      <point x="699" y="252" type="curve" smooth="yes"/>
      <point x="699" y="108"/>
      <point x="580" y="15"/>
    </contour>
    <contour>
      <point x="275" y="578" type="line"/>
      <point x="633" y="731" type="line"/>
      <point x="618" y="752" type="line"/>
      <point x="261" y="598" type="line"/>
    </contour>
  </outline>
</glyph>
<glyph name="oslash" format="2">
  <advance width="800"/>
  <unicode hex="00F8"/>
  <anchor x="400" y="0" name="bottom"/>
  <anchor x="400" y="528" name="top"/>
  <anchor x="370" y="10" name="ogonek"/>
  <anchor x="771" y="528" name="topright"/>
  <anchor x="370" y="264" name="center"/>
  <outline>
    <contour>
      <point x="86" y="-27" type="line"/>
      <point x="749" y="539" type="line"/>
      <point x="729" y="555" type="line"/>
      <point x="66" y="-11" type="line"/>
    </contour>
    <component base="o" xOffset="-30"/>
  </outline>
</glyph>
<glyph name="dcaron" format="2">
  <advance width="800"/>
  <unicode hex="010F"/>
  <anchor x="354" y="0" name="bottom"/>
  <anchor x="352" y="264" name="center"/>
  <anchor x="428" y="760" name="top"/>
  <anchor x="802" y="760" name="topright"/>
  <outline>
    <contour>
      <point x="334" y="-10" type="curve" smooth="yes"/>
      <point x="478" y="-10"/>
      <point x="553" y="42"/>
      <point x="592" y="113" type="curve"/>
      <point x="594" y="113" type="line"/>
      <point x="596" y="0" type="line"/>
      <point x="618" y="0" type="line"/>
      <point x="618" y="760" type="line"/>
      <point x="592" y="760" type="line"/>
      <point x="592" y="543" type="line" smooth="yes"/>
      <point x="592" y="501"/>
      <point x="591" y="454"/>
      <point x="594" y="409" type="curve"/>
      <point x="592" y="409" type="line"/>
      <point x="561" y="477"/>
      <point x="489" y="537"/>
      <point x="345" y="537" type="curve" smooth="yes"/>
      <point x="164" y="537"/>
      <point x="59" y="437"/>
      <point x="59" y="254" type="curve" smooth="yes"/>
      <point x="59" y="86"/>
      <point x="145" y="-10"/>
    </contour>
    <contour>
      <point x="336" y="15" type="curve" smooth="yes"/>
      <point x="169" y="15"/>
      <point x="86" y="92"/>
      <point x="86" y="255" type="curve" smooth="yes"/>
      <point x="86" y="427"/>
      <point x="178" y="512"/>
      <point x="344" y="512" type="curve" smooth="yes"/>
      <point x="509" y="512"/>
      <point x="592" y="426"/>
      <point x="592" y="266" type="curve" smooth="yes"/>
      <point x="592" y="263" type="line" smooth="yes"/>
      <point x="592" y="108"/>
      <point x="520" y="15"/>
    </contour>
    <component base="caroncommaaccent" xOffset="355" yOffset="46"/>
  </outline>
</glyph>
<glyph name="IJ" format="2">
  <advance width="800"/>
  <unicode hex="0132"/>
  <anchor x="399" y="0" name="bottom"/>
  <anchor x="-30" y="0" name="caret_1"/>
  <anchor x="399" y="714" name="top"/>
  <anchor x="-2" y="714" name="topleft"/>
  <outline>
    <contour>
      <point x="387" y="-15" type="curve" smooth="yes"/>
      <point x="596" y="-15"/>
      <point x="662" y="64"/>
      <point x="662" y="196" type="curve" smooth="yes"/>
      <point x="662" y="714" type="line"/>
      <point x="636" y="714" type="line"/>
      <point x="636" y="204" type="line" smooth="yes"/>
      <point x="636" y="76"/>
      <point x="576" y="9"/>
      <point x="390" y="9" type="curve" smooth="yes"/>
      <point x="285" y="9"/>
      <point x="198" y="31"/>
      <point x="146" y="55" type="curve"/>
      <point x="146" y="27" type="line"/>
      <point x="202" y="2"/>
      <point x="288" y="-15"/>
    </contour>
    <contour>
      <point x="137" y="147" type="line"/>
      <point x="163" y="147" type="line"/>
      <point x="163" y="714" type="line"/>
      <point x="137" y="714" type="line"/>
    </contour>
  </outline>
</glyph>
<glyph name="ij" format="2">
  <advance width="800"/>
  <unicode hex="0133"/>
  <anchor x="399" y="-248" name="bottom"/>
  <anchor x="-30" y="0" name="caret_1"/>
  <anchor x="400" y="734" name="top"/>
  <outline>
    <contour>
      <point x="367" y="-248" type="curve" smooth="yes"/>
      <point x="528" y="-248"/>
      <point x="622" y="-196"/>
      <point x="622" y="-88" type="curve" smooth="yes"/>
      <point x="622" y="528" type="line"/>
      <point x="596" y="528" type="line"/>
      <point x="596" y="-81" type="line" smooth="yes"/>
      <point x="596" y="-168"/>
      <point x="529" y="-222"/>
      <point x="372" y="-222" type="curve" smooth="yes"/>
      <point x="297" y="-222"/>
      <point x="210" y="-210"/>
      <point x="160" y="-191" type="curve"/>
      <point x="160" y="-218" type="line"/>
      <point x="203" y="-234"/>
      <point x="278" y="-248"/>
    </contour>
    <contour>
      <point x="180" y="0" type="line"/>
      <point x="206" y="0" type="line"/>
      <point x="206" y="528" type="line"/>
      <point x="180" y="528" type="line"/>
    </contour>
    <contour>
      <point x="194" y="660" type="curve" smooth="yes"/>
      <point x="230" y="660"/>
      <point x="232" y="679"/>
      <point x="232" y="696" type="curve" smooth="yes"/>
      <point x="232" y="717"/>
      <point x="227" y="734"/>
      <point x="193" y="734" type="curve" smooth="yes"/>
      <point x="159" y="734"/>
      <point x="154" y="716"/>
      <point x="154" y="697" type="curve" smooth="yes"/>
      <point x="154" y="677"/>
      <point x="160" y="660"/>
    </contour>
    <contour>
      <point x="610" y="660" type="curve" smooth="yes"/>
      <point x="646" y="660"/>
      <point x="647" y="679"/>
      <point x="647" y="696" type="curve" smooth="yes"/>
      <point x="647" y="717"/>
      <point x="642" y="734"/>
      <point x="608" y="734" type="curve" smooth="yes"/>
      <point x="574" y="734"/>
      <point x="569" y="716"/>
      <point x="569" y="697" type="curve" smooth="yes"/>
      <point x="569" y="677"/>
      <point x="576" y="660"/>
    </contour>
  </outline>
</glyph>
<glyph name="kgreenlandic" format="2">
  <advance width="800"/>
  <unicode hex="0138"/>
  <anchor x="400" y="0" name="bottom"/>
  <anchor x="400" y="528" name="top"/>
  <outline>
    <contour>
      <point x="177" y="0" type="line"/>
      <point x="203" y="0" type="line"/>
      <point x="203" y="169" type="line"/>
      <point x="403" y="297" type="line"/>
      <point x="715" y="0" type="line"/>
      <point x="747" y="0" type="line"/>
      <point x="422" y="315" type="line"/>
      <point x="717" y="528" type="line"/>
      <point x="681" y="528" type="line"/>
      <point x="302" y="269" type="line" smooth="yes"/>
      <point x="267" y="244"/>
      <point x="235" y="222"/>
      <point x="205" y="201" type="curve"/>
      <point x="203" y="201" type="line"/>
      <point x="204" y="265"/>
      <point x="203" y="321"/>
      <point x="203" y="385" type="curve" smooth="yes"/>
      <point x="203" y="528" type="line"/>
      <point x="177" y="528" type="line"/>
    </contour>
  </outline>
</glyph>
<glyph name="Lslash" format="2">
  <advance width="800"/>
  <unicode hex="0141"/>
  <anchor x="512" y="0" name="bottom"/>
  <anchor x="259" y="714" name="top"/>
  <anchor x="572" y="714" name="topright"/>
  <anchor x="400" y="357" name="center"/>
  <outline>
    <contour>
      <point x="79" y="304" type="line"/>
      <point x="613" y="515" type="line"/>
      <point x="613" y="536" type="line"/>
      <point x="79" y="326" type="line"/>
    </contour>
    <component base="L"/>
  </outline>
</glyph>
<glyph name="OE" format="2">
  <advance width="800"/>
  <unicode hex="0152"/>
  <anchor x="399" y="0" name="bottom"/>
  <anchor x="399" y="714" name="top"/>
  <outline>
    <contour>
      <point x="408" y="-2" type="curve" smooth="yes"/>
      <point x="441" y="-2"/>
      <point x="466" y="0"/>
      <point x="489" y="0" type="curve" smooth="yes"/>
      <point x="783" y="0" type="line"/>
      <point x="783" y="25" type="line"/>
      <point x="427" y="25" type="line"/>
      <point x="427" y="363" type="line"/>
      <point x="766" y="363" type="line"/>
      <point x="766" y="388" type="line"/>
      <point x="427" y="388" type="line"/>
      <point x="427" y="690" type="line"/>
      <point x="783" y="690" type="line"/>
      <point x="783" y="714" type="line"/>
      <point x="494" y="714" type="line"/>
      <point x="466" y="714"/>
      <point x="439" y="714"/>
      <point x="411" y="714" type="curve" smooth="yes"/>
      <point x="116" y="714"/>
      <point x="51" y="571"/>
      <point x="51" y="359" type="curve" smooth="yes"/>
      <point x="51" y="121"/>
      <point x="165" y="-2"/>
    </contour>
    <contour>
      <point x="399" y="23" type="curve" smooth="yes"/>
      <point x="175" y="23"/>
      <point x="77" y="153"/>
      <point x="77" y="359" type="curve" smooth="yes"/>
      <point x="77" y="545"/>
      <point x="129" y="690"/>
      <point x="399" y="690" type="curve" smooth="yes"/>
      <point x="400" y="690"/>
      <point x="399" y="690"/>
      <point x="401" y="690" type="curve"/>
      <point x="401" y="23" type="line"/>
      <point x="399" y="23"/>
      <point x="402" y="23"/>
    </contour>
  </outline>
</glyph>
<glyph name="Tbar" format="2">
  <advance width="800"/>
  <unicode hex="0166"/>
  <anchor x="400" y="0" name="bottom"/>
  <anchor x="400" y="714" name="top"/>
  <anchor x="802" y="714" name="topright"/>
  <anchor x="400" y="357" name="center"/>
  <outline>
    <contour>
      <point x="129" y="355" type="line"/>
      <point x="672" y="355" type="line"/>
      <point x="672" y="380" type="line"/>
      <point x="129" y="380" type="line"/>
    </contour>
    <component base="T"/>
  </outline>
</glyph>
<glyph name="tbar" format="2">
  <advance width="800"/>
  <unicode hex="0167"/>
  <anchor x="426" y="0" name="bottom"/>
  <anchor x="362" y="659" name="top"/>
  <anchor x="801" y="659" name="topright"/>
  <anchor x="355" y="264" name="center"/>
  <outline>
    <contour>
      <point x="95" y="285" type="line"/>
      <point x="680" y="285" type="line"/>
      <point x="680" y="310" type="line"/>
      <point x="95" y="310" type="line"/>
    </contour>
    <component base="t"/>
  </outline>
</glyph>
<glyph name="uni0180" format="2">
  <advance width="800"/>
  <unicode hex="0180"/>
  <anchor x="400" y="0" name="bottom"/>
  <anchor x="345" y="760" name="top"/>
  <anchor x="771" y="760" name="topright"/>
  <outline>
    <contour>
      <point x="-6" y="630" type="line"/>
      <point x="480" y="630" type="line"/>
      <point x="480" y="655" type="line"/>
      <point x="-6" y="655" type="line"/>
    </contour>
    <component base="b" xOffset="-30"/>
  </outline>
</glyph>
<glyph name="uni0183" format="2">
  <advance width="800"/>
  <unicode hex="0183"/>
  <anchor x="400" y="0" name="bottom"/>
  <anchor x="400" y="760" name="top"/>
  <anchor x="771" y="760" name="topright"/>
  <outline>
    <contour>
      <point x="138" y="735" type="line"/>
      <point x="637" y="735" type="line"/>
      <point x="637" y="760" type="line"/>
      <point x="140" y="760" type="line"/>
    </contour>
    <component base="b" xOffset="-30"/>
  </outline>
</glyph>
<glyph name="uni0184" format="2">
  <advance width="800"/>
  <unicode hex="0184"/>
  <anchor x="400" y="0" name="bottom"/>
  <anchor x="400" y="760" name="top"/>
  <outline>
    <contour>
      <point x="424" y="-10" type="curve" smooth="yes"/>
      <point x="615" y="-10"/>
      <point x="717" y="70"/>
      <point x="717" y="199" type="curve" smooth="yes"/>
      <point x="717" y="336"/>
      <point x="589" y="393"/>
      <point x="414" y="393" type="curve" smooth="yes"/>
      <point x="165" y="393" type="line"/>
      <point x="165" y="714" type="line"/>
      <point x="138" y="714" type="line"/>
      <point x="138" y="234" type="line" smooth="yes"/>
      <point x="138" y="71"/>
      <point x="239" y="-10"/>
    </contour>
    <contour>
      <point x="425" y="15" type="curve" smooth="yes"/>
      <point x="257" y="15"/>
      <point x="165" y="85"/>
      <point x="165" y="242" type="curve" smooth="yes"/>
      <point x="165" y="368" type="line"/>
      <point x="410" y="368" type="line" smooth="yes"/>
      <point x="592" y="368"/>
      <point x="689" y="311"/>
      <point x="689" y="199" type="curve" smooth="yes"/>
      <point x="689" y="80"/>
      <point x="595" y="15"/>
    </contour>
  </outline>
</glyph>
<glyph name="uni0185" format="2">
  <advance width="800"/>
  <unicode hex="0185"/>
  <anchor x="400" y="0" name="bottom"/>
  <anchor x="400" y="760" name="top"/>
  <outline>
    <contour>
      <point x="412" y="-10" type="curve" smooth="yes"/>
      <point x="640" y="-10"/>
      <point x="724" y="114"/>
      <point x="724" y="266" type="curve" smooth="yes"/>
      <point x="724" y="444"/>
      <point x="622" y="539"/>
      <point x="419" y="539" type="curve" smooth="yes"/>
      <point x="280" y="539"/>
      <point x="177" y="478"/>
      <point x="148" y="406" type="curve"/>
      <point x="146" y="406" type="line"/>
      <point x="147" y="439"/>
      <point x="148" y="493"/>
      <point x="148" y="525" type="curve" smooth="yes"/>
      <point x="148" y="760" type="line"/>
      <point x="122" y="760" type="line"/>
      <point x="122" y="252" type="line" smooth="yes"/>
      <point x="122" y="80"/>
      <point x="231" y="-10"/>
    </contour>
    <contour>
      <point x="411" y="15" type="curve" smooth="yes"/>
      <point x="244" y="15"/>
      <point x="148" y="95"/>
      <point x="148" y="253" type="curve" smooth="yes"/>
      <point x="148" y="263" type="line" smooth="yes"/>
      <point x="148" y="419"/>
      <point x="241" y="514"/>
      <point x="422" y="514" type="curve" smooth="yes"/>
      <point x="605" y="514"/>
      <point x="697" y="430"/>
      <point x="697" y="266" type="curve" smooth="yes"/>
      <point x="697" y="106"/>
      <point x="602" y="15"/>
    </contour>
  </outline>
</glyph>
<glyph name="uni0187" format="2">
  <advance width="800"/>
  <unicode hex="0187"/>
  <anchor x="489" y="0" name="bottom"/>
  <anchor x="489" y="858" name="top"/>
  <anchor x="771" y="714" name="topright"/>
  <outline>
    <contour>
      <point x="731" y="687" type="line"/>
      <point x="758" y="687" type="line"/>
      <point x="758" y="757" type="line" smooth="yes"/>
      <point x="758" y="812"/>
      <point x="792" y="834"/>
      <point x="851" y="834" type="curve" smooth="yes"/>
      <point x="886" y="834"/>
      <point x="913" y="828"/>
      <point x="929" y="823" type="curve"/>
      <point x="929" y="849" type="line"/>
      <point x="915" y="853"/>
      <point x="888" y="858"/>
      <point x="849" y="858" type="curve" smooth="yes"/>
      <point x="782" y="858"/>
      <point x="731" y="825"/>
      <point x="731" y="762" type="curve" smooth="yes"/>
    </contour>
    <component base="C" xOffset="-30"/>
  </outline>
</glyph>
<glyph name="uni0188" format="2">
  <advance width="800"/>
  <unicode hex="0188"/>
  <anchor x="400" y="0" name="bottom"/>
  <anchor x="400" y="770" name="top"/>
  <anchor x="771" y="528" name="topright"/>
  <outline>
    <contour>
      <point x="659" y="513" type="line"/>
      <point x="686" y="513" type="line"/>
      <point x="686" y="657" type="line" smooth="yes"/>
      <point x="686" y="725"/>
      <point x="723" y="746"/>
      <point x="787" y="746" type="curve" smooth="yes"/>
      <point x="819" y="746"/>
      <point x="839" y="741"/>
      <point x="853" y="737" type="curve"/>
      <point x="853" y="762" type="line"/>
      <point x="838" y="766"/>
      <point x="824" y="770"/>
      <point x="788" y="770" type="curve" smooth="yes"/>
      <point x="713" y="770"/>
      <point x="659" y="737"/>
      <point x="659" y="662" type="curve" smooth="yes"/>
    </contour>
    <component base="c" xOffset="-30"/>
  </outline>
</glyph>
<glyph name="uni018C" format="2">
  <advance width="800"/>
  <unicode hex="018C"/>
  <anchor x="400" y="0" name="bottom"/>
  <anchor x="414" y="760" name="top"/>
  <anchor x="771" y="760" name="topright"/>
  <anchor x="370" y="264" name="center"/>
  <outline>
    <contour>
      <point x="160" y="735" type="line"/>
      <point x="659" y="735" type="line"/>
      <point x="659" y="760" type="line"/>
      <point x="160" y="760" type="line"/>
    </contour>
    <component base="d" xOffset="-30"/>
  </outline>
</glyph>
<glyph name="florin" format="2">
  <advance width="800"/>
  <unicode hex="0192"/>
  <anchor x="388" y="-240" name="bottom"/>
  <anchor x="495" y="724" name="top"/>
  <outline>
    <contour>
      <point x="230" y="-240" type="curve" smooth="yes"/>
      <point x="338" y="-240"/>
      <point x="393" y="-181"/>
      <point x="393" y="-98" type="curve" smooth="yes"/>
      <point x="393" y="424" type="line"/>
      <point x="592" y="424" type="line"/>
      <point x="592" y="449" type="line"/>
      <point x="394" y="449" type="line"/>
      <point x="394" y="537" type="line" smooth="yes"/>
      <point x="394" y="651"/>
      <point x="450" y="699"/>
      <point x="571" y="699" type="curve" smooth="yes"/>
      <point x="613" y="699"/>
      <point x="647" y="696"/>
      <point x="680" y="688" type="curve"/>
      <point x="686" y="713" type="line"/>
      <point x="645" y="721"/>
      <point x="612" y="724"/>
      <point x="577" y="724" type="curve" smooth="yes"/>
      <point x="430" y="724"/>
      <point x="367" y="658"/>
      <point x="367" y="540" type="curve" smooth="yes"/>
      <point x="367" y="449" type="line"/>
      <point x="234" y="446" type="line"/>
      <point x="234" y="424" type="line"/>
      <point x="367" y="424" type="line"/>
      <point x="367" y="-93" type="line" smooth="yes"/>
      <point x="367" y="-172"/>
      <point x="322" y="-215"/>
      <point x="229" y="-215" type="curve" smooth="yes"/>
      <point x="193" y="-215"/>
      <point x="164" y="-211"/>
      <point x="134" y="-205" type="curve"/>
      <point x="134" y="-231" type="line"/>
      <point x="155" y="-235"/>
      <point x="183" y="-240"/>
    </contour>
  </outline>
</glyph>
<glyph name="uni0193" format="2">
  <advance width="800"/>
  <unicode hex="0193"/>
  <anchor x="414" y="0" name="bottom"/>
  <anchor x="414" y="861" name="top"/>
  <anchor x="772" y="714" name="topright"/>
  <outline>
    <contour>
      <point x="651" y="685" type="line"/>
      <point x="678" y="685" type="line"/>
      <point x="678" y="760" type="line" smooth="yes"/>
      <point x="678" y="815"/>
      <point x="712" y="837"/>
      <point x="771" y="837" type="curve" smooth="yes"/>
      <point x="806" y="837"/>
      <point x="833" y="831"/>
      <point x="849" y="826" type="curve"/>
      <point x="849" y="852" type="line"/>
      <point x="835" y="856"/>
      <point x="808" y="861"/>
      <point x="769" y="861" type="curve" smooth="yes"/>
      <point x="702" y="861"/>
      <point x="651" y="828"/>
      <point x="651" y="765" type="curve" smooth="yes"/>
    </contour>
    <component base="G" xOffset="-30"/>
  </outline>
</glyph>
<glyph name="uni0194" format="2">
  <advance width="800"/>
  <unicode hex="0194"/>
  <anchor x="400" y="-240" name="bottom"/>
  <anchor x="400" y="714" name="top"/>
  <outline>
    <contour>
      <point x="398" y="-240" type="curve" smooth="yes"/>
      <point x="488" y="-240"/>
      <point x="538" y="-194"/>
      <point x="538" y="-128" type="curve" smooth="yes"/>
      <point x="538" y="-58"/>
      <point x="491" y="6"/>
      <point x="413" y="132" type="curve"/>
      <point x="755" y="714" type="line"/>
      <point x="727" y="714" type="line"/>
      <point x="452" y="253" type="line" smooth="yes"/>
      <point x="434" y="223"/>
      <point x="417" y="194"/>
      <point x="399" y="164" type="curve"/>
      <point x="382" y="194"/>
      <point x="366" y="223"/>
      <point x="348" y="253" type="curve" smooth="yes"/>
      <point x="72" y="714" type="line"/>
      <point x="44" y="714" type="line"/>
      <point x="386" y="133" type="line"/>
      <point x="300" y="-6"/>
      <point x="261" y="-55"/>
      <point x="261" y="-128" type="curve" smooth="yes"/>
      <point x="261" y="-195"/>
      <point x="316" y="-240"/>
    </contour>
    <contour>
      <point x="401" y="-216" type="curve" smooth="yes"/>
      <point x="335" y="-216"/>
      <point x="288" y="-185"/>
      <point x="288" y="-126" type="curve" smooth="yes"/>
      <point x="288" y="-59"/>
      <point x="331" y="-8"/>
      <point x="400" y="101" type="curve"/>
      <point x="465" y="-3"/>
      <point x="511" y="-56"/>
      <point x="511" y="-126" type="curve" smooth="yes"/>
      <point x="511" y="-183"/>
      <point x="469" y="-216"/>
    </contour>
  </outline>
</glyph>
<glyph name="uni0196" format="2">
  <advance width="800"/>
  <unicode hex="0196"/>
  <anchor x="443" y="0" name="bottom"/>
  <anchor x="271" y="714" name="top"/>
  <outline>
    <contour>
      <point x="478" y="-10" type="curve" smooth="yes"/>
      <point x="520" y="-10"/>
      <point x="587" y="-5"/>
      <point x="634" y="4" type="curve"/>
      <point x="634" y="29" type="line"/>
      <point x="579" y="20"/>
      <point x="530" y="15"/>
      <point x="483" y="15" type="curve" smooth="yes"/>
      <point x="358" y="15"/>
      <point x="284" y="50"/>
      <point x="284" y="175" type="curve" smooth="yes"/>
      <point x="284" y="714" type="line"/>
      <point x="258" y="714" type="line"/>
      <point x="258" y="166" type="line" smooth="yes"/>
      <point x="258" y="35"/>
      <point x="343" y="-10"/>
    </contour>
  </outline>
</glyph>
<glyph name="uni0198" format="2">
  <advance width="800"/>
  <unicode hex="0198"/>
  <anchor x="400" y="0" name="bottom"/>
  <anchor x="400" y="714" name="top"/>
  <outline>
    <contour>
      <point x="111" y="0" type="line"/>
      <point x="137" y="0" type="line"/>
      <point x="137" y="293" type="line"/>
      <point x="297" y="400" type="line"/>
      <point x="712" y="0" type="line"/>
      <point x="743" y="0" type="line"/>
      <point x="313" y="417" type="line"/>
      <point x="626" y="636" type="line" smooth="yes"/>
      <point x="684" y="676"/>
      <point x="726" y="695"/>
      <point x="781" y="695" type="curve" smooth="yes"/>
      <point x="803" y="695"/>
      <point x="817" y="692"/>
      <point x="828" y="689" type="curve"/>
      <point x="828" y="714" type="line"/>
      <point x="818" y="717"/>
      <point x="804" y="720"/>
      <point x="782" y="720" type="curve" smooth="yes"/>
      <point x="710" y="720"/>
      <point x="661" y="692"/>
      <point x="583" y="638" type="curve" smooth="yes"/>
      <point x="205" y="376" type="line" smooth="yes"/>
      <point x="178" y="357"/>
      <point x="162" y="343"/>
      <point x="137" y="322" type="curve"/>
      <point x="137" y="714" type="line"/>
      <point x="111" y="714" type="line"/>
    </contour>
  </outline>
</glyph>
<glyph name="uni0199" format="2">
  <advance width="800"/>
  <unicode hex="0199"/>
  <anchor x="400" y="0" name="bottom"/>
  <anchor x="400" y="763" name="top"/>
  <outline>
    <contour>
      <point x="177" y="0" type="line"/>
      <point x="203" y="0" type="line"/>
      <point x="203" y="169" type="line"/>
      <point x="403" y="297" type="line"/>
      <point x="715" y="0" type="line"/>
      <point x="747" y="0" type="line"/>
      <point x="422" y="315" type="line"/>
      <point x="717" y="528" type="line"/>
      <point x="681" y="528" type="line"/>
      <point x="302" y="269" type="line" smooth="yes"/>
      <point x="270" y="246"/>
      <point x="238" y="224"/>
      <point x="205" y="201" type="curve"/>
      <point x="203" y="201" type="line"/>
      <point x="204" y="265"/>
      <point x="203" y="321"/>
      <point x="203" y="385" type="curve" smooth="yes"/>
      <point x="203" y="621" type="line" smooth="yes"/>
      <point x="203" y="701"/>
      <point x="255" y="738"/>
      <point x="351" y="738" type="curve" smooth="yes"/>
      <point x="374" y="738"/>
      <point x="391" y="736"/>
      <point x="406" y="734" type="curve"/>
      <point x="406" y="759" type="line"/>
      <point x="394" y="761"/>
      <point x="374" y="763"/>
      <point x="355" y="763" type="curve" smooth="yes"/>
      <point x="240" y="763"/>
      <point x="177" y="711"/>
      <point x="177" y="624" type="curve" smooth="yes"/>
    </contour>
  </outline>
</glyph>
<glyph name="uni019B" format="2">
  <advance width="800"/>
  <unicode hex="019B"/>
  <anchor x="328" y="0" name="bottom"/>
  <anchor x="336" y="766" name="top"/>
  <outline>
    <contour>
      <point x="164" y="581" type="line"/>
      <point x="541" y="657" type="line"/>
      <point x="533" y="681" type="line"/>
      <point x="156" y="605" type="line"/>
    </contour>
    <component base="lambda" xOffset="-30"/>
  </outline>
</glyph>
<glyph name="uni01A2" format="2">
  <advance width="800"/>
  <unicode hex="01A2"/>
  <anchor x="147" y="0" name="bottom"/>
  <anchor x="150" y="10" name="ogonek"/>
  <anchor x="453" y="714" name="top"/>
  <anchor x="-236" y="714" name="topleft"/>
  <anchor x="1137" y="714" name="topright"/>
  <outline>
    <contour>
      <point x="147" y="-10" type="curve" smooth="yes"/>
      <point x="418" y="-10"/>
      <point x="558" y="144"/>
      <point x="558" y="360" type="curve" smooth="yes"/>
      <point x="558" y="560"/>
      <point x="437" y="724"/>
      <point x="154" y="724" type="curve" smooth="yes"/>
      <point x="-113" y="724"/>
      <point x="-269" y="576"/>
      <point x="-269" y="356" type="curve" smooth="yes"/>
      <point x="-269" y="144"/>
      <point x="-125" y="-10"/>
    </contour>
    <contour>
      <point x="147" y="15" type="curve" smooth="yes"/>
      <point x="-113" y="15"/>
      <point x="-242" y="159"/>
      <point x="-242" y="355" type="curve" smooth="yes"/>
      <point x="-242" y="556"/>
      <point x="-107" y="700"/>
      <point x="149" y="700" type="curve" smooth="yes"/>
      <point x="388" y="700"/>
      <point x="531" y="575"/>
      <point x="531" y="359" type="curve" smooth="yes"/>
      <point x="531" y="156"/>
      <point x="405" y="15"/>
    </contour>
    <contour>
      <point x="1043" y="0" type="line"/>
      <point x="1069" y="0" type="line"/>
      <point x="1069" y="473" type="line" smooth="yes"/>
      <point x="1069" y="636"/>
      <point x="948" y="723"/>
      <point x="750" y="723" type="curve" smooth="yes"/>
      <point x="610" y="723"/>
      <point x="511" y="678"/>
      <point x="454" y="618" type="curve"/>
      <point x="471" y="594" type="line"/>
      <point x="523" y="655"/>
      <point x="621" y="698"/>
      <point x="754" y="698" type="curve" smooth="yes"/>
      <point x="934" y="698"/>
      <point x="1043" y="621"/>
      <point x="1043" y="467" type="curve" smooth="yes"/>
    </contour>
  </outline>
</glyph>
<glyph name="uni01A3" format="2">
  <advance width="800"/>
  <unicode hex="01A3"/>
  <anchor x="247" y="0" name="bottom"/>
  <anchor x="247" y="277" name="center"/>
  <anchor x="252" y="10" name="ogonek"/>
  <anchor x="408" y="528" name="top"/>
  <outline>
    <contour>
      <point x="706" y="-232" type="line"/>
      <point x="733" y="-232" type="line"/>
      <point x="733" y="405" type="line" smooth="yes"/>
      <point x="733" y="493"/>
      <point x="681" y="538"/>
      <point x="585" y="538" type="curve" smooth="yes"/>
      <point x="504" y="538"/>
      <point x="456" y="503"/>
      <point x="422" y="462" type="curve"/>
      <point x="387" y="511"/>
      <point x="332" y="538"/>
      <point x="250" y="538" type="curve" smooth="yes"/>
      <point x="103" y="538"/>
      <point x="33" y="445"/>
      <point x="33" y="266" type="curve" smooth="yes"/>
      <point x="33" y="80"/>
      <point x="109" y="-10"/>
      <point x="254" y="-10" type="curve" smooth="yes"/>
      <point x="396" y="-10"/>
      <point x="468" y="77"/>
      <point x="468" y="264" type="curve" smooth="yes"/>
      <point x="468" y="334"/>
      <point x="458" y="393"/>
      <point x="433" y="437" type="curve"/>
      <point x="461" y="472"/>
      <point x="504" y="513"/>
      <point x="583" y="513" type="curve" smooth="yes"/>
      <point x="666" y="513"/>
      <point x="706" y="476"/>
      <point x="706" y="396" type="curve" smooth="yes"/>
    </contour>
    <contour>
      <point x="252" y="15" type="curve" smooth="yes"/>
      <point x="120" y="15"/>
      <point x="60" y="102"/>
      <point x="60" y="266" type="curve" smooth="yes"/>
      <point x="60" y="425"/>
      <point x="115" y="513"/>
      <point x="250" y="513" type="curve" smooth="yes"/>
      <point x="392" y="513"/>
      <point x="441" y="419"/>
      <point x="441" y="265" type="curve" smooth="yes"/>
      <point x="441" y="94"/>
      <point x="381" y="15"/>
    </contour>
  </outline>
</glyph>
<glyph name="uni01A4" format="2">
  <advance width="800"/>
  <unicode hex="01A4"/>
  <anchor x="437" y="0" name="bottom"/>
  <anchor x="437" y="714" name="top"/>
  <outline>
    <contour>
      <point x="210" y="0" type="line"/>
      <point x="236" y="0" type="line"/>
      <point x="236" y="305" type="line"/>
      <point x="365" y="305" type="line" smooth="yes"/>
      <point x="600" y="305"/>
      <point x="743" y="364"/>
      <point x="743" y="516" type="curve" smooth="yes"/>
      <point x="743" y="658"/>
      <point x="619" y="714"/>
      <point x="385" y="714" type="curve" smooth="yes"/>
      <point x="208" y="714" type="line" smooth="yes"/>
      <point x="90" y="714"/>
      <point x="29" y="659"/>
      <point x="29" y="590" type="curve" smooth="yes"/>
      <point x="29" y="568"/>
      <point x="33" y="547"/>
      <point x="42" y="533" type="curve"/>
      <point x="69" y="533" type="line"/>
      <point x="64" y="542"/>
      <point x="55" y="565"/>
      <point x="55" y="587" type="curve" smooth="yes"/>
      <point x="55" y="649"/>
      <point x="102" y="689"/>
      <point x="210" y="689" type="curve"/>
    </contour>
    <contour>
      <point x="236" y="330" type="line"/>
      <point x="236" y="689" type="line"/>
      <point x="380" y="689" type="line" smooth="yes"/>
      <point x="610" y="689"/>
      <point x="715" y="639"/>
      <point x="715" y="516" type="curve" smooth="yes"/>
      <point x="715" y="372"/>
      <point x="569" y="330"/>
      <point x="363" y="330" type="curve" smooth="yes"/>
    </contour>
  </outline>
</glyph>
<glyph name="uni01AA" format="2">
  <advance width="800"/>
  <unicode hex="01AA"/>
  <anchor x="422" y="-240" name="bottom"/>
  <anchor x="422" y="770" name="top"/>
  <outline>
    <contour>
      <point x="621" y="-237" type="curve" smooth="yes"/>
      <point x="652" y="-237"/>
      <point x="690" y="-233"/>
      <point x="724" y="-223" type="curve"/>
      <point x="724" y="-198" type="line"/>
      <point x="690" y="-208"/>
      <point x="654" y="-212"/>
      <point x="617" y="-212" type="curve" smooth="yes"/>
      <point x="497" y="-212"/>
      <point x="437" y="-179"/>
      <point x="437" y="-71" type="curve" smooth="yes"/>
      <point x="437" y="634" type="line" smooth="yes"/>
      <point x="437" y="714"/>
      <point x="372" y="765"/>
      <point x="249" y="765" type="curve" smooth="yes"/>
      <point x="125" y="765"/>
      <point x="56" y="717"/>
      <point x="56" y="652" type="curve" smooth="yes"/>
      <point x="56" y="577"/>
      <point x="133" y="539"/>
      <point x="260" y="539" type="curve" smooth="yes"/>
      <point x="411" y="539" type="line"/>
      <point x="411" y="-78" type="line" smooth="yes"/>
      <point x="411" y="-190"/>
      <point x="475" y="-237"/>
    </contour>
    <contour>
      <point x="264" y="564" type="line" smooth="yes"/>
      <point x="154" y="564"/>
      <point x="85" y="589"/>
      <point x="85" y="653" type="curve" smooth="yes"/>
      <point x="85" y="703"/>
      <point x="137" y="740"/>
      <point x="246" y="740" type="curve" smooth="yes"/>
      <point x="354" y="740"/>
      <point x="411" y="705"/>
      <point x="411" y="623" type="curve" smooth="yes"/>
      <point x="411" y="564" type="line"/>
    </contour>
  </outline>
</glyph>
<glyph name="uni01AB" format="2">
  <advance width="800"/>
  <unicode hex="01AB"/>
  <anchor x="523" y="-240" name="bottom"/>
  <anchor x="400" y="659" name="top"/>
  <anchor x="771" y="659" name="topright"/>
  <anchor x="325" y="264" name="center"/>
  <outline>
    <contour>
      <point x="521" y="-240" type="curve" smooth="yes"/>
      <point x="606" y="-240"/>
      <point x="668" y="-200"/>
      <point x="668" y="-131" type="curve" smooth="yes"/>
      <point x="668" y="18" type="line"/>
      <point x="641" y="6" type="line"/>
      <point x="641" y="-128" type="line" smooth="yes"/>
      <point x="641" y="-188"/>
      <point x="596" y="-216"/>
      <point x="526" y="-216" type="curve" smooth="yes"/>
      <point x="491" y="-216"/>
      <point x="462" y="-211"/>
      <point x="438" y="-203" type="curve"/>
      <point x="438" y="-229" type="line"/>
      <point x="457" y="-235"/>
      <point x="480" y="-240"/>
    </contour>
    <component base="t" xOffset="-30"/>
  </outline>
</glyph>
<glyph name="uni01AC" format="2">
  <advance width="800"/>
  <unicode hex="01AC"/>
  <anchor x="400" y="0" name="bottom"/>
  <anchor x="400" y="714" name="top"/>
  <outline>
    <contour>
      <point x="376" y="0" type="line"/>
      <point x="402" y="0" type="line"/>
      <point x="402" y="689" type="line"/>
      <point x="756" y="689" type="line"/>
      <point x="756" y="714" type="line"/>
      <point x="257" y="714" type="line" smooth="yes"/>
      <point x="112" y="714"/>
      <point x="49" y="657"/>
      <point x="49" y="589" type="curve" smooth="yes"/>
      <point x="49" y="563"/>
      <point x="58" y="543"/>
      <point x="65" y="531" type="curve"/>
      <point x="96" y="531" type="line"/>
      <point x="90" y="540"/>
      <point x="78" y="562"/>
      <point x="78" y="588" type="curve" smooth="yes"/>
      <point x="78" y="649"/>
      <point x="131" y="689"/>
      <point x="258" y="689" type="curve" smooth="yes"/>
      <point x="376" y="689" type="line"/>
    </contour>
  </outline>
</glyph>
<glyph name="uni01AD" format="2">
  <advance width="800"/>
  <unicode hex="01AD"/>
  <anchor x="400" y="0" name="bottom"/>
  <anchor x="400" y="765" name="top"/>
  <outline>
    <contour>
      <point x="560" y="-10" type="curve" smooth="yes"/>
      <point x="609" y="-10"/>
      <point x="638" y="-4"/>
      <point x="667" y="3" type="curve"/>
      <point x="667" y="28" type="line"/>
      <point x="637" y="20"/>
      <point x="605" y="15"/>
      <point x="562" y="15" type="curve" smooth="yes"/>
      <point x="410" y="15"/>
      <point x="370" y="74"/>
      <point x="370" y="183" type="curve" smooth="yes"/>
      <point x="370" y="503" type="line"/>
      <point x="683" y="503" type="line"/>
      <point x="683" y="528" type="line"/>
      <point x="370" y="528" type="line"/>
      <point x="370" y="653" type="line" smooth="yes"/>
      <point x="370" y="713"/>
      <point x="414" y="741"/>
      <point x="490" y="741" type="curve" smooth="yes"/>
      <point x="515" y="741"/>
      <point x="543" y="737"/>
      <point x="567" y="729" type="curve"/>
      <point x="567" y="754" type="line"/>
      <point x="549" y="760"/>
      <point x="525" y="765"/>
      <point x="492" y="765" type="curve" smooth="yes"/>
      <point x="403" y="765"/>
      <point x="344" y="725"/>
      <point x="344" y="656" type="curve" smooth="yes"/>
      <point x="344" y="528" type="line"/>
      <point x="95" y="524" type="line"/>
      <point x="95" y="503" type="line"/>
      <point x="344" y="503" type="line"/>
      <point x="344" y="180" type="line" smooth="yes"/>
      <point x="344" y="62"/>
      <point x="387" y="-10"/>
    </contour>
  </outline>
</glyph>
<glyph name="uni01AE" format="2">
  <advance width="800"/>
  <unicode hex="01AE"/>
  <anchor x="508" y="-153" name="bottom"/>
  <anchor x="400" y="714" name="top"/>
  <outline>
    <contour>
      <point x="571" y="-153" type="curve" smooth="yes"/>
      <point x="606" y="-153"/>
      <point x="633" y="-149"/>
      <point x="653" y="-143" type="curve"/>
      <point x="653" y="-118" type="line"/>
      <point x="633" y="-124"/>
      <point x="607" y="-128"/>
      <point x="566" y="-128" type="curve" smooth="yes"/>
      <point x="474" y="-128"/>
      <point x="413" y="-95"/>
      <point x="413" y="-7" type="curve" smooth="yes"/>
      <point x="413" y="689" type="line"/>
      <point x="758" y="689" type="line"/>
      <point x="758" y="714" type="line"/>
      <point x="43" y="714" type="line"/>
      <point x="43" y="689" type="line"/>
      <point x="387" y="689" type="line"/>
      <point x="387" y="-14" type="line" smooth="yes"/>
      <point x="387" y="-106"/>
      <point x="455" y="-153"/>
    </contour>
  </outline>
</glyph>
<glyph name="uni01B3" format="2">
  <advance width="800"/>
  <unicode hex="01B3"/>
  <anchor x="400" y="0" name="bottom"/>
  <anchor x="400" y="714" name="top"/>
  <outline>
    <contour>
      <point x="392" y="0" type="line"/>
      <point x="418" y="0" type="line"/>
      <point x="418" y="271" type="line"/>
      <point x="756" y="714" type="line"/>
      <point x="726" y="714" type="line"/>
      <point x="405" y="294" type="line"/>
      <point x="143" y="650" type="line" smooth="yes"/>
      <point x="115" y="689"/>
      <point x="91" y="725"/>
      <point x="13" y="725" type="curve" smooth="yes"/>
      <point x="-11" y="725"/>
      <point x="-30" y="721"/>
      <point x="-41" y="717" type="curve"/>
      <point x="-41" y="692" type="line"/>
      <point x="-30" y="696"/>
      <point x="-13" y="700"/>
      <point x="12" y="700" type="curve" smooth="yes"/>
      <point x="75" y="700"/>
      <point x="92" y="674"/>
      <point x="123" y="633" type="curve" smooth="yes"/>
      <point x="392" y="271" type="line"/>
    </contour>
  </outline>
</glyph>
<glyph name="uni01B5" format="2">
  <advance width="800"/>
  <unicode hex="01B5"/>
  <anchor x="417" y="0" name="bottom"/>
  <anchor x="417" y="714" name="top"/>
  <anchor x="771" y="714" name="topright"/>
  <outline>
    <contour>
      <point x="152" y="343" type="line"/>
      <point x="661" y="343" type="line"/>
      <point x="661" y="368" type="line"/>
      <point x="152" y="368" type="line"/>
    </contour>
    <component base="Z" xOffset="-30"/>
  </outline>
</glyph>
<glyph name="uni01BA" format="2">
  <advance width="800"/>
  <unicode hex="01BA"/>
  <anchor x="400" y="-240" name="bottom"/>
  <anchor x="400" y="528" name="top"/>
  <outline>
    <contour>
      <point x="403" y="-240" type="curve" smooth="yes"/>
      <point x="524" y="-240"/>
      <point x="626" y="-229"/>
      <point x="680" y="-215" type="curve"/>
      <point x="680" y="-189" type="line"/>
      <point x="619" y="-203"/>
      <point x="539" y="-215"/>
      <point x="403" y="-215" type="curve" smooth="yes"/>
      <point x="197" y="-215"/>
      <point x="132" y="-189"/>
      <point x="132" y="-122" type="curve" smooth="yes"/>
      <point x="132" y="-38"/>
      <point x="241" y="-32"/>
      <point x="374" y="-24" type="curve" smooth="yes"/>
      <point x="510" y="-16"/>
      <point x="691" y="-4"/>
      <point x="691" y="134" type="curve" smooth="yes"/>
      <point x="691" y="276"/>
      <point x="502" y="287"/>
      <point x="264" y="287" type="curve"/>
      <point x="671" y="509" type="line"/>
      <point x="671" y="528" type="line"/>
      <point x="140" y="528" type="line"/>
      <point x="140" y="503" type="line"/>
      <point x="625" y="503" type="line"/>
      <point x="229" y="288" type="line"/>
      <point x="229" y="263" type="line"/>
      <point x="278" y="263" type="line" smooth="yes"/>
      <point x="516" y="263"/>
      <point x="663" y="250"/>
      <point x="663" y="134" type="curve" smooth="yes"/>
      <point x="663" y="18"/>
      <point x="510" y="9"/>
      <point x="375" y="1" type="curve" smooth="yes"/>
      <point x="245" y="-7"/>
      <point x="101" y="-19"/>
      <point x="101" y="-123" type="curve" smooth="yes"/>
      <point x="101" y="-201"/>
      <point x="173" y="-240"/>
    </contour>
  </outline>
</glyph>
<glyph name="uni01BD" format="2">
  <advance width="800"/>
  <unicode hex="01BD"/>
  <anchor x="400" y="0" name="bottom"/>
  <anchor x="400" y="528" name="top"/>
  <outline>
    <contour>
      <point x="338" y="-7" type="curve" smooth="yes"/>
      <point x="583" y="-7"/>
      <point x="664" y="68"/>
      <point x="664" y="157" type="curve" smooth="yes"/>
      <point x="664" y="244"/>
      <point x="580" y="304"/>
      <point x="390" y="304" type="curve" smooth="yes"/>
      <point x="278" y="304" type="line"/>
      <point x="278" y="503" type="line"/>
      <point x="655" y="503" type="line"/>
      <point x="655" y="528" type="line"/>
      <point x="97" y="528" type="line"/>
      <point x="97" y="503" type="line"/>
      <point x="250" y="503" type="line"/>
      <point x="250" y="279" type="line"/>
      <point x="379" y="279" type="line" smooth="yes"/>
      <point x="574" y="279"/>
      <point x="636" y="232"/>
      <point x="636" y="157" type="curve" smooth="yes"/>
      <point x="636" y="85"/>
      <point x="578" y="18"/>
      <point x="347" y="18" type="curve" smooth="yes"/>
      <point x="239" y="18"/>
      <point x="158" y="35"/>
      <point x="86" y="57" type="curve"/>
      <point x="86" y="27" type="line"/>
      <point x="140" y="11"/>
      <point x="226" y="-7"/>
    </contour>
  </outline>
</glyph>
<glyph name="uni01BE" format="2">
  <advance width="800"/>
  <unicode hex="01BE"/>
  <anchor x="400" y="0" name="bottom"/>
  <anchor x="361" y="659" name="top"/>
  <outline>
    <contour>
      <point x="396" y="-10" type="curve" smooth="yes"/>
      <point x="620" y="-10"/>
      <point x="697" y="55"/>
      <point x="697" y="141" type="curve" smooth="yes"/>
      <point x="697" y="239"/>
      <point x="584" y="263"/>
      <point x="471" y="286" type="curve" smooth="yes"/>
      <point x="409" y="299"/>
      <point x="371" y="316"/>
      <point x="371" y="401" type="curve" smooth="yes"/>
      <point x="371" y="503" type="line"/>
      <point x="684" y="503" type="line"/>
      <point x="684" y="528" type="line"/>
      <point x="371" y="528" type="line"/>
      <point x="371" y="659" type="line"/>
      <point x="350" y="659" type="line"/>
      <point x="344" y="528" type="line"/>
      <point x="94" y="525" type="line"/>
      <point x="94" y="503" type="line"/>
      <point x="345" y="503" type="line"/>
      <point x="345" y="397" type="line" smooth="yes"/>
      <point x="345" y="299"/>
      <point x="389" y="278"/>
      <point x="464" y="263" type="curve" smooth="yes"/>
      <point x="568" y="242"/>
      <point x="669" y="226"/>
      <point x="669" y="138" type="curve" smooth="yes"/>
      <point x="669" y="69"/>
      <point x="612" y="15"/>
      <point x="394" y="15" type="curve" smooth="yes"/>
      <point x="252" y="15"/>
      <point x="163" y="37"/>
      <point x="91" y="61" type="curve"/>
      <point x="91" y="32" type="line"/>
      <point x="136" y="15"/>
      <point x="237" y="-10"/>
    </contour>
  </outline>
</glyph>
<glyph name="uni01BF" format="2">
  <advance width="800"/>
  <unicode hex="01BF"/>
  <anchor x="419" y="-240" name="bottom"/>
  <anchor x="419" y="553" name="top"/>
  <outline>
    <contour>
      <point x="101" y="-232" type="line"/>
      <point x="127" y="-232" type="line"/>
      <point x="127" y="-5" type="line"/>
      <point x="514" y="-4"/>
      <point x="719" y="116"/>
      <point x="719" y="317" type="curve" smooth="yes"/>
      <point x="719" y="456"/>
      <point x="611" y="538"/>
      <point x="426" y="538" type="curve" smooth="yes"/>
      <point x="244" y="538"/>
      <point x="154" y="469"/>
      <point x="127" y="396" type="curve"/>
      <point x="125" y="396" type="line"/>
      <point x="124" y="528" type="line"/>
      <point x="101" y="528" type="line"/>
    </contour>
    <contour>
      <point x="127" y="20" type="curve"/>
      <point x="127" y="256" type="line" smooth="yes"/>
      <point x="127" y="412"/>
      <point x="214" y="513"/>
      <point x="429" y="513" type="curve" smooth="yes"/>
      <point x="593" y="513"/>
      <point x="692" y="439"/>
      <point x="692" y="317" type="curve" smooth="yes"/>
      <point x="692" y="122"/>
      <point x="483" y="21"/>
    </contour>
  </outline>
</glyph>
<glyph name="uni01F7" format="2">
  <advance width="800"/>
  <unicode hex="01F7"/>
  <anchor x="419" y="-240" name="bottom"/>
  <anchor x="419" y="714" name="top"/>
  <outline>
    <contour>
      <point x="120" y="-240" type="line"/>
      <point x="141" y="-240" type="line"/>
      <point x="141" y="-2" type="line"/>
      <point x="432" y="54"/>
      <point x="744" y="202"/>
      <point x="744" y="469" type="curve" smooth="yes"/>
      <point x="744" y="658"/>
      <point x="609" y="725"/>
      <point x="457" y="725" type="curve" smooth="yes"/>
      <point x="265" y="725"/>
      <point x="171" y="646"/>
      <point x="146" y="575" type="curve"/>
      <point x="143" y="575" type="line"/>
      <point x="141" y="715" type="line"/>
      <point x="120" y="715" type="line"/>
    </contour>
    <contour>
      <point x="141" y="22" type="curve"/>
      <point x="141" y="444" type="line"/>
      <point x="141" y="612"/>
      <point x="273" y="700"/>
      <point x="453" y="700" type="curve" smooth="yes"/>
      <point x="589" y="700"/>
      <point x="717" y="646"/>
      <point x="717" y="467" type="curve" smooth="yes"/>
      <point x="717" y="219"/>
      <point x="439" y="80"/>
    </contour>
  </outline>
</glyph>
<glyph name="uni021D" format="2">
  <advance width="800"/>
  <unicode hex="021D"/>
  <anchor x="370" y="-194" name="bottom"/>
  <anchor x="363" y="528" name="top"/>
  <outline>
    <contour>
      <point x="80" y="-241" type="line"/>
      <point x="443" y="-189"/>
      <point x="694" y="-125"/>
      <point x="694" y="44" type="curve" smooth="yes"/>
      <point x="694" y="142"/>
      <point x="595" y="196"/>
      <point x="488" y="222" type="curve"/>
      <point x="603" y="254"/>
      <point x="673" y="305"/>
      <point x="673" y="380" type="curve" smooth="yes"/>
      <point x="673" y="483"/>
      <point x="545" y="539"/>
      <point x="367" y="539" type="curve" smooth="yes"/>
      <point x="263" y="539"/>
      <point x="174" y="519"/>
      <point x="96" y="493" type="curve"/>
      <point x="111" y="471" type="line"/>
      <point x="181" y="495"/>
      <point x="275" y="514"/>
      <point x="367" y="514" type="curve" smooth="yes"/>
      <point x="502" y="514"/>
      <point x="645" y="478"/>
      <point x="645" y="380" type="curve" smooth="yes"/>
      <point x="645" y="276"/>
      <point x="502" y="235"/>
      <point x="241" y="194" type="curve"/>
      <point x="249" y="171" type="line"/>
      <point x="327" y="183"/>
      <point x="396" y="196"/>
      <point x="454" y="210" type="curve"/>
      <point x="587" y="176"/>
      <point x="666" y="126"/>
      <point x="666" y="43" type="curve" smooth="yes"/>
      <point x="666" y="-102"/>
      <point x="432" y="-163"/>
      <point x="80" y="-215" type="curve"/>
    </contour>
  </outline>
</glyph>
<glyph name="uni0221" format="2">
  <advance width="800"/>
  <unicode hex="0221"/>
  <anchor x="437" y="-99" name="bottom"/>
  <anchor x="437" y="760" name="top"/>
  <outline>
    <contour>
      <point x="500" y="-99" type="line"/>
      <point x="504" y="-60"/>
      <point x="510" y="-19"/>
      <point x="518" y="18" type="curve"/>
      <point x="561" y="5"/>
      <point x="607" y="0"/>
      <point x="639" y="0" type="curve" smooth="yes"/>
      <point x="741" y="0"/>
      <point x="793" y="47"/>
      <point x="793" y="113" type="curve" smooth="yes"/>
      <point x="793" y="173"/>
      <point x="741" y="213"/>
      <point x="665" y="213" type="curve" smooth="yes"/>
      <point x="556" y="213"/>
      <point x="518" y="148"/>
      <point x="498" y="60" type="curve"/>
      <point x="470" y="79"/>
      <point x="455" y="106"/>
      <point x="455" y="147" type="curve" smooth="yes"/>
      <point x="455" y="760" type="line"/>
      <point x="427" y="760" type="line"/>
      <point x="427" y="510" type="line" smooth="yes"/>
      <point x="427" y="488"/>
      <point x="428" y="467"/>
      <point x="430" y="442" type="curve"/>
      <point x="427" y="442" type="line"/>
      <point x="413" y="492"/>
      <point x="354" y="537"/>
      <point x="264" y="537" type="curve" smooth="yes"/>
      <point x="116" y="537"/>
      <point x="36" y="440"/>
      <point x="36" y="256" type="curve" smooth="yes"/>
      <point x="36" y="84"/>
      <point x="105" y="-10"/>
      <point x="259" y="-10" type="curve" smooth="yes"/>
      <point x="359" y="-10"/>
      <point x="411" y="44"/>
      <point x="431" y="96" type="curve"/>
      <point x="436" y="96" type="line"/>
      <point x="443" y="72"/>
      <point x="464" y="50"/>
      <point x="494" y="33" type="curve"/>
      <point x="484" y="-7"/>
      <point x="477" y="-51"/>
      <point x="471" y="-97" type="curve"/>
    </contour>
    <contour>
      <point x="258" y="15" type="curve" smooth="yes"/>
      <point x="118" y="15"/>
      <point x="63" y="103"/>
      <point x="63" y="256" type="curve" smooth="yes"/>
      <point x="63" y="426"/>
      <point x="132" y="512"/>
      <point x="264" y="512" type="curve" smooth="yes"/>
      <point x="360" y="512"/>
      <point x="427" y="456"/>
      <point x="427" y="315" type="curve" smooth="yes"/>
      <point x="427" y="211" type="line" smooth="yes"/>
      <point x="427" y="87"/>
      <point x="363" y="15"/>
    </contour>
    <contour>
      <point x="635" y="23" type="curve" smooth="yes"/>
      <point x="608" y="23"/>
      <point x="559" y="29"/>
      <point x="522" y="43" type="curve"/>
      <point x="539" y="122"/>
      <point x="566" y="190"/>
      <point x="667" y="190" type="curve" smooth="yes"/>
      <point x="733" y="190"/>
      <point x="766" y="153"/>
      <point x="766" y="113" type="curve" smooth="yes"/>
      <point x="766" y="56"/>
      <point x="713" y="23"/>
    </contour>
  </outline>
</glyph>
<glyph name="uni0223" format="2">
  <advance width="800"/>
  <unicode hex="0223"/>
  <anchor x="396" y="0" name="bottom"/>
  <anchor x="396" y="760" name="top"/>
  <outline>
    <contour>
      <point x="403" y="-12" type="curve" smooth="yes"/>
      <point x="600" y="-12"/>
      <point x="725" y="67"/>
      <point x="725" y="224" type="curve" smooth="yes"/>
      <point x="725" y="373"/>
      <point x="611" y="436"/>
      <point x="508" y="447" type="curve"/>
      <point x="609" y="463"/>
      <point x="687" y="506"/>
      <point x="687" y="638" type="curve" smooth="yes"/>
      <point x="687" y="760" type="line"/>
      <point x="661" y="760" type="line"/>
      <point x="661" y="645" type="line" smooth="yes"/>
      <point x="661" y="493"/>
      <point x="578" y="461"/>
      <point x="393" y="461" type="curve" smooth="yes"/>
      <point x="211" y="461"/>
      <point x="140" y="500"/>
      <point x="140" y="638" type="curve" smooth="yes"/>
      <point x="140" y="760" type="line"/>
      <point x="114" y="760" type="line"/>
      <point x="114" y="635" type="line" smooth="yes"/>
      <point x="114" y="501"/>
      <point x="181" y="459"/>
      <point x="293" y="447" type="curve"/>
      <point x="197" y="435"/>
      <point x="75" y="372"/>
      <point x="75" y="227" type="curve" smooth="yes"/>
      <point x="75" y="74"/>
      <point x="202" y="-12"/>
    </contour>
    <contour>
      <point x="403" y="13" type="curve" smooth="yes"/>
      <point x="226" y="13"/>
      <point x="102" y="89"/>
      <point x="102" y="227" type="curve" smooth="yes"/>
      <point x="102" y="366"/>
      <point x="215" y="436"/>
      <point x="394" y="436" type="curve" smooth="yes"/>
      <point x="601" y="436"/>
      <point x="697" y="369"/>
      <point x="697" y="224" type="curve" smooth="yes"/>
      <point x="697" y="86"/>
      <point x="580" y="13"/>
    </contour>
  </outline>
</glyph>
<glyph name="uni0224" format="2">
  <advance width="800"/>
  <unicode hex="0224"/>
  <anchor x="456" y="-240" name="bottom"/>
  <anchor x="400" y="714" name="top"/>
  <anchor x="771" y="714" name="topright"/>
  <outline>
    <contour>
      <point x="614" y="-169" type="curve" smooth="yes"/>
      <point x="674" y="-169"/>
      <point x="708" y="-139"/>
      <point x="708" y="-84" type="curve" smooth="yes"/>
      <point x="708" y="25" type="line"/>
      <point x="638" y="25" type="line"/>
      <point x="638" y="0" type="line"/>
      <point x="680" y="0" type="line"/>
      <point x="680" y="-81" type="line" smooth="yes"/>
      <point x="680" y="-125"/>
      <point x="660" y="-144"/>
      <point x="616" y="-144" type="curve" smooth="yes"/>
      <point x="595" y="-144"/>
      <point x="573" y="-140"/>
      <point x="557" y="-135" type="curve"/>
      <point x="557" y="-160" type="line"/>
      <point x="569" y="-165"/>
      <point x="591" y="-169"/>
    </contour>
    <component base="Z" xOffset="-30"/>
  </outline>
</glyph>
<glyph name="uni0225" format="2">
  <advance width="800"/>
  <unicode hex="0225"/>
  <anchor x="456" y="-240" name="bottom"/>
  <anchor x="400" y="528" name="top"/>
  <anchor x="771" y="528" name="topright"/>
  <outline>
    <contour>
      <point x="578" y="-169" type="curve" smooth="yes"/>
      <point x="638" y="-169"/>
      <point x="672" y="-139"/>
      <point x="672" y="-84" type="curve" smooth="yes"/>
      <point x="672" y="25" type="line"/>
      <point x="602" y="25" type="line"/>
      <point x="602" y="0" type="line"/>
      <point x="644" y="0" type="line"/>
      <point x="644" y="-81" type="line" smooth="yes"/>
      <point x="644" y="-125"/>
      <point x="624" y="-144"/>
      <point x="580" y="-144" type="curve" smooth="yes"/>
      <point x="559" y="-144"/>
      <point x="537" y="-140"/>
      <point x="521" y="-135" type="curve"/>
      <point x="521" y="-160" type="line"/>
      <point x="533" y="-165"/>
      <point x="555" y="-169"/>
    </contour>
    <component base="z" xOffset="-30"/>
  </outline>
</glyph>
<glyph name="uni0234" format="2">
  <advance width="800"/>
  <unicode hex="0234"/>
  <anchor x="466" y="0" name="bottom"/>
  <anchor x="264" y="760" name="top"/>
  <outline>
    <contour>
      <point x="132" y="-22" type="line"/>
      <point x="151" y="19"/>
      <point x="200" y="73"/>
      <point x="242" y="96" type="curve"/>
      <point x="265" y="30"/>
      <point x="333" y="-10"/>
      <point x="475" y="-10" type="curve" smooth="yes"/>
      <point x="604" y="-10"/>
      <point x="678" y="26"/>
      <point x="678" y="90" type="curve" smooth="yes"/>
      <point x="678" y="147"/>
      <point x="619" y="185"/>
      <point x="482" y="185" type="curve" smooth="yes"/>
      <point x="376" y="185"/>
      <point x="302" y="162"/>
      <point x="262" y="143" type="curve"/>
      <point x="262" y="760" type="line"/>
      <point x="235" y="760" type="line"/>
      <point x="235" y="189" type="line" smooth="yes"/>
      <point x="235" y="167"/>
      <point x="235" y="144"/>
      <point x="238" y="126" type="curve"/>
      <point x="182" y="93"/>
      <point x="130" y="37"/>
      <point x="106" y="-14" type="curve"/>
    </contour>
    <contour>
      <point x="477" y="13" type="curve" smooth="yes"/>
      <point x="337" y="13"/>
      <point x="277" y="56"/>
      <point x="268" y="115" type="curve"/>
      <point x="312" y="141"/>
      <point x="383" y="160"/>
      <point x="482" y="160" type="curve" smooth="yes"/>
      <point x="597" y="160"/>
      <point x="651" y="133"/>
      <point x="651" y="89" type="curve" smooth="yes"/>
      <point x="651" y="46"/>
      <point x="597" y="13"/>
    </contour>
  </outline>
</glyph>
<glyph name="uni023E" format="2">
  <advance width="800"/>
  <unicode hex="023E"/>
  <anchor x="399" y="-75" name="bottom"/>
  <anchor x="399" y="760" name="top"/>
  <anchor x="773" y="714" name="topright"/>
  <anchor x="371" y="357" name="center"/>
  <outline>
    <contour>
      <point x="60" y="-75" type="line"/>
      <point x="93" y="-75" type="line"/>
      <point x="742" y="760" type="line"/>
      <point x="709" y="760" type="line"/>
    </contour>
    <component base="T" xOffset="-29"/>
  </outline>
</glyph>
<glyph name="uni023F" format="2">
  <advance width="800"/>
  <unicode hex="023F"/>
  <anchor x="429" y="-240" name="bottom"/>
  <anchor x="400" y="528" name="top"/>
  <anchor x="772" y="528" name="topright"/>
  <outline>
    <contour>
      <point x="514" y="-240" type="curve" smooth="yes"/>
      <point x="556" y="-240"/>
      <point x="587" y="-232"/>
      <point x="608" y="-225" type="curve"/>
      <point x="608" y="-201" type="line"/>
      <point x="585" y="-209"/>
      <point x="553" y="-216"/>
      <point x="515" y="-216" type="curve" smooth="yes"/>
      <point x="407" y="-216"/>
      <point x="368" y="-181"/>
      <point x="329" y="-86" type="curve" smooth="yes"/>
      <point x="304" y="-25"/>
      <point x="283" y="-4"/>
      <point x="238" y="9" type="curve"/>
      <point x="186" y="16" type="line"/>
      <point x="252" y="-1"/>
      <point x="271" y="-17"/>
      <point x="304" y="-97" type="curve" smooth="yes"/>
      <point x="344" y="-195"/>
      <point x="392" y="-240"/>
    </contour>
    <component base="s" xOffset="-30"/>
  </outline>
</glyph>
<glyph name="uni0242" format="2">
  <advance width="800"/>
  <unicode hex="0242"/>
  <anchor x="374" y="0" name="bottom"/>
  <anchor x="391" y="528" name="top"/>
  <outline>
    <contour>
      <point x="355" y="0" type="line"/>
      <point x="381" y="0" type="line"/>
      <point x="381" y="118" type="line"/>
      <point x="495" y="152"/>
      <point x="658" y="209"/>
      <point x="658" y="349" type="curve" smooth="yes"/>
      <point x="658" y="463"/>
      <point x="554" y="536"/>
      <point x="383" y="536" type="curve" smooth="yes"/>
      <point x="273" y="536"/>
      <point x="205" y="517"/>
      <point x="141" y="494" type="curve"/>
      <point x="151" y="471" type="line"/>
      <point x="205" y="490"/>
      <point x="276" y="511"/>
      <point x="382" y="511" type="curve" smooth="yes"/>
      <point x="535" y="511"/>
      <point x="631" y="451"/>
      <point x="631" y="347" type="curve" smooth="yes"/>
      <point x="631" y="217"/>
      <point x="488" y="170"/>
      <point x="355" y="134" type="curve"/>
    </contour>
  </outline>
</glyph>
<glyph name="uni0243" format="2">
  <advance width="800"/>
  <unicode hex="0243"/>
  <anchor x="400" y="0" name="bottom"/>
  <anchor x="400" y="714" name="top"/>
  <anchor x="771" y="714" name="topright"/>
  <outline>
    <contour>
      <point x="-30" y="186" type="line"/>
      <point x="379" y="186" type="line"/>
      <point x="379" y="211" type="line"/>
      <point x="-30" y="211" type="line"/>
    </contour>
    <component base="B" xOffset="-30"/>
  </outline>
</glyph>
<glyph name="uni0244" format="2">
  <advance width="800"/>
  <unicode hex="0244"/>
  <anchor x="400" y="0" name="bottom"/>
  <anchor x="400" y="714" name="top"/>
  <anchor x="714" y="10" name="ogonek"/>
  <anchor x="772" y="714" name="topright"/>
  <outline>
    <contour>
      <point x="-30" y="386" type="line"/>
      <point x="830" y="386" type="line"/>
      <point x="830" y="411" type="line"/>
      <point x="-30" y="411" type="line"/>
    </contour>
    <component base="U" xOffset="-30"/>
  </outline>
</glyph>
<glyph name="uni0247" format="2">
  <advance width="800"/>
  <unicode hex="0247"/>
  <anchor x="400" y="-213" name="bottom"/>
  <anchor x="400" y="760" name="top"/>
  <anchor x="393" y="10" name="ogonek"/>
  <anchor x="771" y="528" name="topright"/>
  <outline>
    <contour>
      <point x="135" y="-213" type="line"/>
      <point x="165" y="-213" type="line"/>
      <point x="629" y="760" type="line"/>
      <point x="599" y="760" type="line"/>
    </contour>
    <component base="e" xOffset="-30"/>
  </outline>
</glyph>
<glyph name="uni0249" format="2">
  <advance width="800"/>
  <unicode hex="0249"/>
  <anchor x="400" y="-248" name="bottom"/>
  <anchor x="457" y="734" name="top"/>
  <anchor x="771" y="734" name="topright"/>
  <outline>
    <contour>
      <point x="254" y="251" type="line"/>
      <point x="669" y="251" type="line"/>
      <point x="669" y="276" type="line"/>
      <point x="254" y="276" type="line"/>
    </contour>
    <component base="j" xOffset="-30"/>
  </outline>
</glyph>
<glyph name="uni024A" format="2">
  <advance width="800"/>
  <unicode hex="024A"/>
  <anchor x="400" y="-243" name="bottom"/>
  <anchor x="400" y="714" name="top"/>
  <outline>
    <contour>
      <point x="807" y="-243" type="curve" smooth="yes"/>
      <point x="838" y="-243"/>
      <point x="864" y="-239"/>
      <point x="884" y="-233" type="curve"/>
      <point x="884" y="-208" type="line"/>
      <point x="861" y="-214"/>
      <point x="837" y="-218"/>
      <point x="808" y="-218" type="curve" smooth="yes"/>
      <point x="727" y="-218"/>
      <point x="689" y="-188"/>
      <point x="689" y="-118" type="curve" smooth="yes"/>
      <point x="689" y="192" type="line"/>
      <point x="664" y="170" type="line"/>
      <point x="663" y="139"/>
      <point x="663" y="106"/>
      <point x="663" y="56" type="curve" smooth="yes"/>
      <point x="663" y="-125" type="line" smooth="yes"/>
      <point x="663" y="-202"/>
      <point x="710" y="-243"/>
    </contour>
    <component base="uni2C6D" xOffset="-30"/>
  </outline>
</glyph>
<glyph name="uni024B" format="2">
  <advance width="800"/>
  <unicode hex="024B"/>
  <anchor x="386" y="-243" name="bottom"/>
  <anchor x="388" y="528" name="top"/>
  <outline>
    <contour>
      <point x="795" y="-243" type="curve" smooth="yes"/>
      <point x="827" y="-243"/>
      <point x="851" y="-239"/>
      <point x="872" y="-233" type="curve"/>
      <point x="872" y="-208" type="line"/>
      <point x="847" y="-214"/>
      <point x="827" y="-218"/>
      <point x="795" y="-218" type="curve" smooth="yes"/>
      <point x="714" y="-218"/>
      <point x="675" y="-187"/>
      <point x="675" y="-118" type="curve" smooth="yes"/>
      <point x="675" y="528" type="line"/>
      <point x="652" y="528" type="line"/>
      <point x="648" y="422" type="line"/>
      <point x="646" y="422" type="line"/>
      <point x="614" y="484"/>
      <point x="531" y="537"/>
      <point x="382" y="537" type="curve" smooth="yes"/>
      <point x="161" y="537"/>
      <point x="73" y="416"/>
      <point x="73" y="254" type="curve" smooth="yes"/>
      <point x="73" y="86"/>
      <point x="170" y="-10"/>
      <point x="368" y="-10" type="curve" smooth="yes"/>
      <point x="522" y="-10"/>
      <point x="610" y="46"/>
      <point x="649" y="124" type="curve"/>
      <point x="652" y="124" type="line"/>
      <point x="650" y="91"/>
      <point x="649" y="35"/>
      <point x="649" y="3" type="curve" smooth="yes"/>
      <point x="649" y="-125" type="line" smooth="yes"/>
      <point x="649" y="-202"/>
      <point x="695" y="-243"/>
    </contour>
    <contour>
      <point x="365" y="15" type="curve" smooth="yes"/>
      <point x="187" y="15"/>
      <point x="100" y="98"/>
      <point x="100" y="256" type="curve" smooth="yes"/>
      <point x="100" y="420"/>
      <point x="196" y="512"/>
      <point x="380" y="512" type="curve" smooth="yes"/>
      <point x="556" y="512"/>
      <point x="649" y="430"/>
      <point x="649" y="275" type="curve" smooth="yes"/>
      <point x="649" y="265" type="line" smooth="yes"/>
      <point x="649" y="109"/>
      <point x="556" y="15"/>
    </contour>
  </outline>
</glyph>
<glyph name="uni024C" format="2">
  <advance width="800"/>
  <unicode hex="024C"/>
  <anchor x="465" y="0" name="bottom"/>
  <anchor x="400" y="714" name="top"/>
  <anchor x="771" y="714" name="topright"/>
  <outline>
    <contour>
      <point x="-30" y="320" type="line"/>
      <point x="188" y="320" type="line"/>
      <point x="188" y="345" type="line"/>
      <point x="-30" y="345" type="line"/>
    </contour>
    <component base="R" xOffset="-30"/>
  </outline>
</glyph>
<glyph name="uni024F" format="2">
  <advance width="800"/>
  <unicode hex="024F"/>
  <anchor x="400" y="-247" name="bottom"/>
  <anchor x="400" y="528" name="top"/>
  <anchor x="771" y="528" name="topright"/>
  <outline>
    <contour>
      <point x="15" y="325" type="line"/>
      <point x="803" y="325" type="line"/>
      <point x="803" y="350" type="line"/>
      <point x="15" y="350" type="line"/>
    </contour>
    <component base="y" xOffset="-30"/>
  </outline>
</glyph>
<glyph name="uni0253" format="2">
  <advance width="800"/>
  <unicode hex="0253"/>
  <anchor x="400" y="0" name="bottom"/>
  <anchor x="400" y="765" name="top"/>
  <outline>
    <contour>
      <point x="409" y="-10" type="curve" smooth="yes"/>
      <point x="644" y="-10"/>
      <point x="727" y="112"/>
      <point x="727" y="273" type="curve" smooth="yes"/>
      <point x="727" y="438"/>
      <point x="628" y="537"/>
      <point x="435" y="537" type="curve" smooth="yes"/>
      <point x="282" y="537"/>
      <point x="180" y="477"/>
      <point x="152" y="398" type="curve"/>
      <point x="149" y="398" type="line"/>
      <point x="150" y="440"/>
      <point x="152" y="491"/>
      <point x="152" y="525" type="curve" smooth="yes"/>
      <point x="152" y="612" type="line" smooth="yes"/>
      <point x="152" y="700"/>
      <point x="210" y="740"/>
      <point x="325" y="740" type="curve" smooth="yes"/>
      <point x="355" y="740"/>
      <point x="377" y="738"/>
      <point x="400" y="734" type="curve"/>
      <point x="400" y="760" type="line"/>
      <point x="375" y="763"/>
      <point x="354" y="765"/>
      <point x="328" y="765" type="curve" smooth="yes"/>
      <point x="197" y="765"/>
      <point x="125" y="709"/>
      <point x="125" y="615" type="curve" smooth="yes"/>
      <point x="125" y="0" type="line"/>
      <point x="148" y="0" type="line"/>
      <point x="153" y="104" type="line"/>
      <point x="155" y="104" type="line"/>
      <point x="187" y="38"/>
      <point x="267" y="-10"/>
    </contour>
    <contour>
      <point x="412" y="15" type="curve" smooth="yes"/>
      <point x="235" y="15"/>
      <point x="152" y="97"/>
      <point x="152" y="256" type="curve" smooth="yes"/>
      <point x="152" y="420"/>
      <point x="245" y="512"/>
      <point x="435" y="512" type="curve" smooth="yes"/>
      <point x="616" y="512"/>
      <point x="700" y="421"/>
      <point x="700" y="272" type="curve" smooth="yes"/>
      <point x="700" y="105"/>
      <point x="598" y="15"/>
    </contour>
  </outline>
</glyph>
<glyph name="uni0257" format="2">
  <advance width="800"/>
  <unicode hex="0257"/>
  <anchor x="400" y="0" name="bottom"/>
  <anchor x="400" y="764" name="top"/>
  <outline>
    <contour>
      <point x="374" y="-10" type="curve" smooth="yes"/>
      <point x="528" y="-10"/>
      <point x="607" y="42"/>
      <point x="645" y="113" type="curve"/>
      <point x="648" y="113" type="line"/>
      <point x="653" y="0" type="line"/>
      <point x="675" y="0" type="line"/>
      <point x="675" y="647" type="line" smooth="yes"/>
      <point x="675" y="709"/>
      <point x="709" y="739"/>
      <point x="777" y="739" type="curve" smooth="yes"/>
      <point x="806" y="739"/>
      <point x="827" y="737"/>
      <point x="852" y="730" type="curve"/>
      <point x="852" y="756" type="line"/>
      <point x="834" y="760"/>
      <point x="816" y="764"/>
      <point x="779" y="764" type="curve" smooth="yes"/>
      <point x="714" y="764"/>
      <point x="649" y="732"/>
      <point x="649" y="651" type="curve" smooth="yes"/>
      <point x="649" y="543" type="line" smooth="yes"/>
      <point x="649" y="501"/>
      <point x="648" y="454"/>
      <point x="651" y="409" type="curve"/>
      <point x="649" y="409" type="line"/>
      <point x="618" y="477"/>
      <point x="541" y="537"/>
      <point x="385" y="537" type="curve" smooth="yes"/>
      <point x="188" y="537"/>
      <point x="73" y="437"/>
      <point x="73" y="254" type="curve" smooth="yes"/>
      <point x="73" y="86"/>
      <point x="170" y="-10"/>
    </contour>
    <contour>
      <point x="374" y="15" type="curve" smooth="yes"/>
      <point x="194" y="15"/>
      <point x="100" y="95"/>
      <point x="100" y="254" type="curve" smooth="yes"/>
      <point x="100" y="427"/>
      <point x="204" y="512"/>
      <point x="383" y="512" type="curve" smooth="yes"/>
      <point x="563" y="512"/>
      <point x="649" y="426"/>
      <point x="649" y="266" type="curve" smooth="yes"/>
      <point x="649" y="263" type="line" smooth="yes"/>
      <point x="649" y="106"/>
      <point x="573" y="15"/>
    </contour>
  </outline>
</glyph>
<glyph name="uni025E" format="2">
  <advance width="800"/>
  <unicode hex="025E"/>
  <anchor x="400" y="0" name="bottom"/>
  <anchor x="400" y="528" name="top"/>
  <outline>
    <contour>
      <point x="401" y="-10" type="curve" smooth="yes"/>
      <point x="611" y="-10"/>
      <point x="704" y="56"/>
      <point x="704" y="148" type="curve" smooth="yes"/>
      <point x="704" y="221"/>
      <point x="655" y="262"/>
      <point x="537" y="282" type="curve"/>
      <point x="537" y="284" type="line"/>
      <point x="632" y="299"/>
      <point x="678" y="344"/>
      <point x="678" y="404" type="curve" smooth="yes"/>
      <point x="678" y="488"/>
      <point x="586" y="538"/>
      <point x="426" y="538" type="curve" smooth="yes"/>
      <point x="178" y="538"/>
      <point x="71" y="425"/>
      <point x="71" y="259" type="curve" smooth="yes"/>
      <point x="71" y="94"/>
      <point x="163" y="-10"/>
    </contour>
    <contour>
      <point x="402" y="15" type="curve" smooth="yes"/>
      <point x="182" y="15"/>
      <point x="98" y="104"/>
      <point x="98" y="259" type="curve" smooth="yes"/>
      <point x="98" y="410"/>
      <point x="193" y="513"/>
      <point x="426" y="513" type="curve" smooth="yes"/>
      <point x="571" y="513"/>
      <point x="649" y="470"/>
      <point x="649" y="404" type="curve" smooth="yes"/>
      <point x="649" y="328"/>
      <point x="573" y="294"/>
      <point x="378" y="294" type="curve" smooth="yes"/>
      <point x="305" y="294" type="line"/>
      <point x="305" y="269" type="line"/>
      <point x="386" y="269" type="line" smooth="yes"/>
      <point x="553" y="269"/>
      <point x="676" y="236"/>
      <point x="676" y="148" type="curve" smooth="yes"/>
      <point x="676" y="74"/>
      <point x="598" y="15"/>
    </contour>
  </outline>
</glyph>
<glyph name="uni0260" format="2">
  <advance width="800"/>
  <unicode hex="0260"/>
  <anchor x="400" y="-247" name="bottom"/>
  <anchor x="400" y="764" name="top"/>
  <outline>
    <contour>
      <point x="362" y="-247" type="curve" smooth="yes"/>
      <point x="593" y="-247"/>
      <point x="675" y="-164"/>
      <point x="675" y="-38" type="curve" smooth="yes"/>
      <point x="675" y="640" type="line" smooth="yes"/>
      <point x="675" y="702"/>
      <point x="714" y="739"/>
      <point x="794" y="739" type="curve" smooth="yes"/>
      <point x="822" y="739"/>
      <point x="852" y="737"/>
      <point x="883" y="728" type="curve"/>
      <point x="883" y="754" type="line"/>
      <point x="859" y="760"/>
      <point x="832" y="764"/>
      <point x="796" y="764" type="curve" smooth="yes"/>
      <point x="719" y="764"/>
      <point x="648" y="725"/>
      <point x="648" y="644" type="curve" smooth="yes"/>
      <point x="648" y="523" type="line" smooth="yes"/>
      <point x="648" y="490"/>
      <point x="648" y="459"/>
      <point x="650" y="432" type="curve"/>
      <point x="644" y="432" type="line"/>
      <point x="606" y="490"/>
      <point x="537" y="537"/>
      <point x="392" y="537" type="curve" smooth="yes"/>
      <point x="179" y="537"/>
      <point x="73" y="431"/>
      <point x="73" y="257" type="curve" smooth="yes"/>
      <point x="73" y="80"/>
      <point x="184" y="-10"/>
      <point x="371" y="-10" type="curve" smooth="yes"/>
      <point x="513" y="-10"/>
      <point x="614" y="38"/>
      <point x="648" y="123" type="curve"/>
      <point x="651" y="123" type="line"/>
      <point x="648" y="84"/>
      <point x="648" y="56"/>
      <point x="648" y="17" type="curve" smooth="yes"/>
      <point x="648" y="-32" type="line" smooth="yes"/>
      <point x="648" y="-147"/>
      <point x="572" y="-222"/>
      <point x="366" y="-222" type="curve" smooth="yes"/>
      <point x="262" y="-222"/>
      <point x="178" y="-203"/>
      <point x="113" y="-180" type="curve"/>
      <point x="113" y="-210" type="line"/>
      <point x="178" y="-230"/>
      <point x="256" y="-247"/>
    </contour>
    <contour>
      <point x="373" y="15" type="curve" smooth="yes"/>
      <point x="192" y="15"/>
      <point x="100" y="99"/>
      <point x="100" y="258" type="curve" smooth="yes"/>
      <point x="100" y="416"/>
      <point x="190" y="512"/>
      <point x="388" y="512" type="curve" smooth="yes"/>
      <point x="591" y="512"/>
      <point x="647" y="416"/>
      <point x="647" y="294" type="curve" smooth="yes"/>
      <point x="647" y="246" type="line" smooth="yes"/>
      <point x="647" y="137"/>
      <point x="599" y="15"/>
    </contour>
  </outline>
</glyph>
<glyph name="uni0264" format="2">
  <advance width="800"/>
  <unicode hex="0264"/>
  <anchor x="400" y="0" name="bottom"/>
  <anchor x="400" y="528" name="top"/>
  <outline>
    <contour>
      <point x="396" y="-9" type="curve" smooth="yes"/>
      <point x="472" y="-9"/>
      <point x="512" y="28"/>
      <point x="512" y="89" type="curve" smooth="yes"/>
      <point x="512" y="149"/>
      <point x="469" y="201"/>
      <point x="417" y="260" type="curve"/>
      <point x="569" y="438" type="line" smooth="yes"/>
      <point x="609" y="484"/>
      <point x="635" y="511"/>
      <point x="700" y="511" type="curve" smooth="yes"/>
      <point x="727" y="511"/>
      <point x="752" y="506"/>
      <point x="767" y="499" type="curve"/>
      <point x="767" y="526" type="line"/>
      <point x="755" y="531"/>
      <point x="735" y="536"/>
      <point x="701" y="536" type="curve" smooth="yes"/>
      <point x="636" y="536"/>
      <point x="599" y="515"/>
      <point x="549" y="458" type="curve" smooth="yes"/>
      <point x="443" y="336" type="line" smooth="yes"/>
      <point x="417" y="306"/>
      <point x="407" y="291"/>
      <point x="402" y="280" type="curve"/>
      <point x="401" y="280" type="line"/>
      <point x="393" y="294"/>
      <point x="377" y="314"/>
      <point x="359" y="335" type="curve" smooth="yes"/>
      <point x="256" y="457" type="line" smooth="yes"/>
      <point x="208" y="515"/>
      <point x="173" y="536"/>
      <point x="109" y="536" type="curve" smooth="yes"/>
      <point x="73" y="536"/>
      <point x="44" y="529"/>
      <point x="32" y="523" type="curve"/>
      <point x="32" y="497" type="line"/>
      <point x="42" y="502"/>
      <point x="70" y="512"/>
      <point x="106" y="512" type="curve" smooth="yes"/>
      <point x="164" y="512"/>
      <point x="196" y="488"/>
      <point x="234" y="441" type="curve" smooth="yes"/>
      <point x="383" y="260" type="line"/>
      <point x="336" y="207"/>
      <point x="281" y="152"/>
      <point x="281" y="86" type="curve" smooth="yes"/>
      <point x="281" y="27"/>
      <point x="319" y="-9"/>
    </contour>
    <contour>
      <point x="394" y="14" type="curve" smooth="yes"/>
      <point x="344" y="14"/>
      <point x="310" y="36"/>
      <point x="310" y="87" type="curve" smooth="yes"/>
      <point x="310" y="137"/>
      <point x="345" y="185"/>
      <point x="400" y="238" type="curve"/>
      <point x="454" y="181"/>
      <point x="482" y="136"/>
      <point x="482" y="89" type="curve" smooth="yes"/>
      <point x="482" y="35"/>
      <point x="442" y="14"/>
    </contour>
  </outline>
</glyph>
<glyph name="uni0268" format="2">
  <advance width="800"/>
  <unicode hex="0268"/>
  <anchor x="400" y="0" name="bottom"/>
  <anchor x="400" y="734" name="top"/>
  <anchor x="643" y="734" name="topright"/>
  <outline>
    <contour>
      <point x="214" y="251" type="line"/>
      <point x="629" y="251" type="line"/>
      <point x="629" y="276" type="line"/>
      <point x="214" y="276" type="line"/>
    </contour>
    <component base="i" xOffset="-30"/>
  </outline>
</glyph>
<glyph name="uni026E" format="2">
  <advance width="800"/>
  <unicode hex="026E"/>
  <anchor x="398" y="-240" name="bottom"/>
  <anchor x="123" y="760" name="top"/>
  <outline>
    <contour>
      <point x="398" y="-240" type="curve" smooth="yes"/>
      <point x="602" y="-240"/>
      <point x="717" y="-149"/>
      <point x="717" y="-14" type="curve" smooth="yes"/>
      <point x="717" y="119"/>
      <point x="605" y="195"/>
      <point x="296" y="195" type="curve"/>
      <point x="697" y="508" type="line"/>
      <point x="697" y="528" type="line"/>
      <point x="130" y="528" type="line"/>
      <point x="130" y="760" type="line"/>
      <point x="104" y="760" type="line"/>
      <point x="104" y="0" type="line"/>
      <point x="130" y="0" type="line"/>
      <point x="130" y="503" type="line"/>
      <point x="650" y="503" type="line"/>
      <point x="258" y="192" type="line"/>
      <point x="258" y="170" type="line"/>
      <point x="309" y="170" type="line" smooth="yes"/>
      <point x="578" y="170"/>
      <point x="689" y="111"/>
      <point x="689" y="-14" type="curve" smooth="yes"/>
      <point x="689" y="-135"/>
      <point x="585" y="-215"/>
      <point x="397" y="-215" type="curve" smooth="yes"/>
      <point x="311" y="-215"/>
      <point x="236" y="-203"/>
      <point x="166" y="-180" type="curve"/>
      <point x="166" y="-208" type="line"/>
      <point x="234" y="-228"/>
      <point x="304" y="-240"/>
    </contour>
  </outline>
</glyph>
<glyph name="uni0270" format="2">
  <advance width="800"/>
  <unicode hex="0270"/>
  <anchor x="715" y="-240" name="bottom"/>
  <anchor x="395" y="528" name="top"/>
  <outline>
    <contour>
      <point x="698" y="-240" type="line"/>
      <point x="726" y="-240" type="line"/>
      <point x="726" y="528" type="line"/>
      <point x="698" y="528" type="line"/>
      <point x="698" y="200" type="line" smooth="yes"/>
      <point x="698" y="118"/>
      <point x="653" y="16"/>
      <point x="534" y="16" type="curve" smooth="yes"/>
      <point x="468" y="16"/>
      <point x="408" y="49"/>
      <point x="408" y="173" type="curve" smooth="yes"/>
      <point x="408" y="528" type="line"/>
      <point x="380" y="528" type="line"/>
      <point x="380" y="187" type="line" smooth="yes"/>
      <point x="380" y="85"/>
      <point x="317" y="16"/>
      <point x="219" y="16" type="curve" smooth="yes"/>
      <point x="151" y="16"/>
      <point x="94" y="52"/>
      <point x="94" y="156" type="curve" smooth="yes"/>
      <point x="94" y="528" type="line"/>
      <point x="66" y="528" type="line"/>
      <point x="66" y="147" type="line" smooth="yes"/>
      <point x="66" y="41"/>
      <point x="127" y="-9"/>
      <point x="220" y="-9" type="curve" smooth="yes"/>
      <point x="315" y="-9"/>
      <point x="363" y="37"/>
      <point x="388" y="97" type="curve"/>
      <point x="392" y="97" type="line"/>
      <point x="400" y="42"/>
      <point x="437" y="-9"/>
      <point x="537" y="-9" type="curve" smooth="yes"/>
      <point x="639" y="-9"/>
      <point x="677" y="42"/>
      <point x="694" y="79" type="curve"/>
      <point x="698" y="79" type="line"/>
    </contour>
  </outline>
</glyph>
<glyph name="uni0271" format="2">
  <advance width="800"/>
  <unicode hex="0271"/>
  <anchor x="647" y="-240" name="bottom"/>
  <anchor x="413" y="528" name="top"/>
  <outline>
    <contour>
      <point x="614" y="-240" type="curve" smooth="yes"/>
      <point x="680" y="-240"/>
      <point x="734" y="-207"/>
      <point x="734" y="-126" type="curve" smooth="yes"/>
      <point x="734" y="381" type="line" smooth="yes"/>
      <point x="734" y="487"/>
      <point x="673" y="537"/>
      <point x="580" y="537" type="curve" smooth="yes"/>
      <point x="485" y="537"/>
      <point x="441" y="491"/>
      <point x="412" y="431" type="curve"/>
      <point x="408" y="431" type="line"/>
      <point x="400" y="486"/>
      <point x="363" y="537"/>
      <point x="263" y="537" type="curve" smooth="yes"/>
      <point x="151" y="537"/>
      <point x="118" y="476"/>
      <point x="99" y="430" type="curve"/>
      <point x="96" y="430" type="line"/>
      <point x="94" y="527" type="line"/>
      <point x="74" y="527" type="line"/>
      <point x="74" y="0" type="line"/>
      <point x="102" y="0" type="line"/>
      <point x="102" y="328" type="line" smooth="yes"/>
      <point x="102" y="410"/>
      <point x="147" y="512"/>
      <point x="266" y="512" type="curve" smooth="yes"/>
      <point x="332" y="512"/>
      <point x="392" y="479"/>
      <point x="392" y="355" type="curve" smooth="yes"/>
      <point x="392" y="0" type="line"/>
      <point x="420" y="0" type="line"/>
      <point x="420" y="341" type="line" smooth="yes"/>
      <point x="420" y="443"/>
      <point x="483" y="512"/>
      <point x="581" y="512" type="curve" smooth="yes"/>
      <point x="649" y="512"/>
      <point x="706" y="476"/>
      <point x="706" y="372" type="curve" smooth="yes"/>
      <point x="706" y="-122" type="line" smooth="yes"/>
      <point x="706" y="-184"/>
      <point x="679" y="-216"/>
      <point x="615" y="-216" type="curve" smooth="yes"/>
      <point x="593" y="-216"/>
      <point x="570" y="-212"/>
      <point x="552" y="-205" type="curve"/>
      <point x="552" y="-231" type="line"/>
      <point x="567" y="-236"/>
      <point x="588" y="-240"/>
    </contour>
  </outline>
</glyph>
<glyph name="uni0272" format="2">
  <advance width="800"/>
  <unicode hex="0272"/>
  <anchor x="435" y="-240" name="bottom"/>
  <anchor x="406" y="529" name="top"/>
  <outline>
    <contour>
      <point x="5" y="-240" type="curve" smooth="yes"/>
      <point x="84" y="-240"/>
      <point x="151" y="-201"/>
      <point x="151" y="-120" type="curve" smooth="yes"/>
      <point x="151" y="302" type="line" smooth="yes"/>
      <point x="151" y="446"/>
      <point x="266" y="512"/>
      <point x="427" y="512" type="curve" smooth="yes"/>
      <point x="569" y="512"/>
      <point x="656" y="462"/>
      <point x="656" y="345" type="curve" smooth="yes"/>
      <point x="656" y="0" type="line"/>
      <point x="682" y="0" type="line"/>
      <point x="682" y="354" type="line" smooth="yes"/>
      <point x="682" y="477"/>
      <point x="585" y="537"/>
      <point x="424" y="537" type="curve" smooth="yes"/>
      <point x="260" y="537"/>
      <point x="184" y="478"/>
      <point x="152" y="417" type="curve"/>
      <point x="150" y="417" type="line"/>
      <point x="147" y="528" type="line"/>
      <point x="125" y="528" type="line"/>
      <point x="125" y="-116" type="line" smooth="yes"/>
      <point x="125" y="-178"/>
      <point x="86" y="-215"/>
      <point x="8" y="-215" type="curve" smooth="yes"/>
      <point x="-21" y="-215"/>
      <point x="-51" y="-213"/>
      <point x="-81" y="-204" type="curve"/>
      <point x="-81" y="-230" type="line"/>
      <point x="-58" y="-236"/>
      <point x="-30" y="-240"/>
    </contour>
  </outline>
</glyph>
<glyph name="uni027B" format="2">
  <advance width="800"/>
  <unicode hex="027B"/>
  <anchor x="339" y="-240" name="bottom"/>
  <anchor x="452" y="528" name="top"/>
  <outline>
    <contour>
      <point x="621" y="-237" type="curve" smooth="yes"/>
      <point x="653" y="-237"/>
      <point x="687" y="-232"/>
      <point x="705" y="-227" type="curve"/>
      <point x="705" y="-202" type="line"/>
      <point x="686" y="-207"/>
      <point x="658" y="-212"/>
      <point x="619" y="-212" type="curve" smooth="yes"/>
      <point x="525" y="-212"/>
      <point x="465" y="-179"/>
      <point x="465" y="-91" type="curve" smooth="yes"/>
      <point x="465" y="528" type="line"/>
      <point x="439" y="528" type="line"/>
      <point x="439" y="251" type="line" smooth="yes"/>
      <point x="439" y="110"/>
      <point x="354" y="18"/>
      <point x="187" y="18" type="curve" smooth="yes"/>
      <point x="131" y="18"/>
      <point x="90" y="23"/>
      <point x="53" y="31" type="curve"/>
      <point x="45" y="5" type="line"/>
      <point x="80" y="-3"/>
      <point x="120" y="-8"/>
      <point x="178" y="-8" type="curve" smooth="yes"/>
      <point x="332" y="-8"/>
      <point x="408" y="53"/>
      <point x="435" y="121" type="curve"/>
      <point x="438" y="121" type="line"/>
      <point x="438" y="97"/>
      <point x="439" y="53"/>
      <point x="439" y="29" type="curve" smooth="yes"/>
      <point x="439" y="-98" type="line" smooth="yes"/>
      <point x="439" y="-190"/>
      <point x="502" y="-237"/>
    </contour>
  </outline>
</glyph>
<glyph name="uni0280" format="2">
  <advance width="800"/>
  <unicode hex="0280"/>
  <anchor x="460" y="0" name="bottom"/>
  <anchor x="400" y="528" name="top"/>
  <outline>
    <contour>
      <point x="165" y="0" type="line"/>
      <point x="191" y="0" type="line"/>
      <point x="191" y="229" type="line"/>
      <point x="463" y="229" type="line"/>
      <point x="687" y="0" type="line"/>
      <point x="722" y="0" type="line"/>
      <point x="496" y="232" type="line"/>
      <point x="590" y="245"/>
      <point x="674" y="296"/>
      <point x="674" y="383" type="curve" smooth="yes"/>
      <point x="674" y="476"/>
      <point x="594" y="528"/>
      <point x="394" y="528" type="curve"/>
      <point x="165" y="528" type="line"/>
    </contour>
    <contour>
      <point x="191" y="254" type="line"/>
      <point x="191" y="503" type="line"/>
      <point x="389" y="503" type="line" smooth="yes"/>
      <point x="569" y="503"/>
      <point x="647" y="465"/>
      <point x="647" y="382" type="curve" smooth="yes"/>
      <point x="647" y="309"/>
      <point x="578" y="254"/>
      <point x="445" y="254" type="curve" smooth="yes"/>
    </contour>
  </outline>
</glyph>
<glyph name="uni0282" format="2">
  <advance width="800"/>
  <unicode hex="0282"/>
  <anchor x="415" y="-291" name="bottom"/>
  <anchor x="400" y="528" name="top"/>
  <anchor x="772" y="528" name="topright"/>
  <outline>
    <contour>
      <point x="286" y="-240" type="curve" smooth="yes"/>
      <point x="324" y="-240"/>
      <point x="347" y="-235"/>
      <point x="368" y="-230" type="curve"/>
      <point x="368" y="-205" type="line"/>
      <point x="346" y="-211"/>
      <point x="318" y="-215"/>
      <point x="287" y="-215" type="curve" smooth="yes"/>
      <point x="211" y="-215"/>
      <point x="172" y="-185"/>
      <point x="172" y="-116" type="curve" smooth="yes"/>
      <point x="172" y="23" type="line"/>
      <point x="145" y="44" type="line"/>
      <point x="145" y="-125" type="line" smooth="yes"/>
      <point x="145" y="-199"/>
      <point x="192" y="-240"/>
    </contour>
    <component base="s" xOffset="-30"/>
  </outline>
</glyph>
<glyph name="eshcurl" format="2">
  <advance width="800"/>
  <unicode hex="0286"/>
  <anchor x="282" y="-240" name="bottom"/>
  <anchor x="572" y="763" name="top"/>
  <outline>
    <contour>
      <point x="285" y="-240" type="curve" smooth="yes"/>
      <point x="384" y="-240"/>
      <point x="426" y="-195"/>
      <point x="426" y="-73" type="curve"/>
      <point x="537" y="-73" type="line"/>
      <point x="537" y="-49" type="line"/>
      <point x="426" y="-49" type="line"/>
      <point x="426" y="575" type="line" smooth="yes"/>
      <point x="426" y="687"/>
      <point x="489" y="738"/>
      <point x="607" y="738" type="curve" smooth="yes"/>
      <point x="652" y="738"/>
      <point x="697" y="731"/>
      <point x="719" y="724" type="curve"/>
      <point x="719" y="749" type="line"/>
      <point x="696" y="756"/>
      <point x="658" y="763"/>
      <point x="611" y="763" type="curve" smooth="yes"/>
      <point x="471" y="763"/>
      <point x="400" y="697"/>
      <point x="400" y="578" type="curve" smooth="yes"/>
      <point x="400" y="-49" type="line"/>
      <point x="323" y="-49" type="line" smooth="yes"/>
      <point x="225" y="-49"/>
      <point x="162" y="-85"/>
      <point x="162" y="-146" type="curve" smooth="yes"/>
      <point x="162" y="-205"/>
      <point x="213" y="-240"/>
    </contour>
    <contour>
      <point x="286" y="-216" type="curve" smooth="yes"/>
      <point x="229" y="-216"/>
      <point x="189" y="-190"/>
      <point x="189" y="-146" type="curve" smooth="yes"/>
      <point x="189" y="-100"/>
      <point x="229" y="-73"/>
      <point x="325" y="-73" type="curve" smooth="yes"/>
      <point x="400" y="-73" type="line"/>
      <point x="400" y="-96" type="line" smooth="yes"/>
      <point x="400" y="-184"/>
      <point x="355" y="-216"/>
    </contour>
  </outline>
</glyph>
<glyph name="uni0290" format="2">
  <advance width="800"/>
  <unicode hex="0290"/>
  <anchor x="415" y="-240" name="bottom"/>
  <anchor x="400" y="528" name="top"/>
  <anchor x="771" y="528" name="topright"/>
  <outline>
    <contour>
      <point x="735" y="-240" type="curve" smooth="yes"/>
      <point x="761" y="-240"/>
      <point x="780" y="-236"/>
      <point x="794" y="-231" type="curve"/>
      <point x="794" y="-207" type="line"/>
      <point x="778" y="-212"/>
      <point x="755" y="-216"/>
      <point x="736" y="-216" type="curve" smooth="yes"/>
      <point x="685" y="-216"/>
      <point x="656" y="-195"/>
      <point x="656" y="-155" type="curve" smooth="yes"/>
      <point x="656" y="25" type="line"/>
      <point x="629" y="0" type="line"/>
      <point x="629" y="-161" type="line" smooth="yes"/>
      <point x="629" y="-206"/>
      <point x="661" y="-240"/>
    </contour>
    <component base="z" xOffset="-30"/>
  </outline>
</glyph>
<glyph name="uni0291" format="2">
  <advance width="800"/>
  <unicode hex="0291"/>
  <anchor x="387" y="-108" name="bottom"/>
  <anchor x="387" y="528" name="top"/>
  <outline>
    <contour>
      <point x="258" y="-84" type="line"/>
      <point x="272" y="-54"/>
      <point x="289" y="-24"/>
      <point x="304" y="0" type="curve"/>
      <point x="509" y="0" type="line" smooth="yes"/>
      <point x="668" y="0"/>
      <point x="743" y="45"/>
      <point x="743" y="112" type="curve" smooth="yes"/>
      <point x="743" y="169"/>
      <point x="688" y="203"/>
      <point x="601" y="203" type="curve" smooth="yes"/>
      <point x="461" y="203"/>
      <point x="359" y="133"/>
      <point x="284" y="25" type="curve"/>
      <point x="114" y="25" type="line"/>
      <point x="612" y="508" type="line"/>
      <point x="612" y="528" type="line"/>
      <point x="118" y="528" type="line"/>
      <point x="118" y="503" type="line"/>
      <point x="571" y="503" type="line"/>
      <point x="78" y="20" type="line"/>
      <point x="78" y="0" type="line"/>
      <point x="272" y="0" type="line"/>
      <point x="255" y="-24"/>
      <point x="241" y="-50"/>
      <point x="228" y="-77" type="curve"/>
    </contour>
    <contour>
      <point x="316" y="25" type="line"/>
      <point x="386" y="117"/>
      <point x="478" y="178"/>
      <point x="599" y="178" type="curve" smooth="yes"/>
      <point x="673" y="178"/>
      <point x="714" y="150"/>
      <point x="714" y="112" type="curve" smooth="yes"/>
      <point x="714" y="65"/>
      <point x="659" y="25"/>
      <point x="504" y="25" type="curve" smooth="yes"/>
    </contour>
  </outline>
</glyph>
<glyph name="ezhcurl" format="2">
  <advance width="800"/>
  <unicode hex="0293"/>
  <anchor x="409" y="-241" name="bottom"/>
  <anchor x="396" y="528" name="top"/>
  <outline>
    <contour>
      <point x="717" y="-241" type="curve"/>
      <point x="744" y="-226" type="line"/>
      <point x="713" y="-192"/>
      <point x="668" y="-146"/>
      <point x="635" y="-117" type="curve"/>
      <point x="650" y="-99"/>
      <point x="676" y="-61"/>
      <point x="676" y="-5" type="curve" smooth="yes"/>
      <point x="676" y="130"/>
      <point x="580" y="195"/>
      <point x="226" y="195" type="curve"/>
      <point x="656" y="508" type="line"/>
      <point x="656" y="528" type="line"/>
      <point x="107" y="528" type="line"/>
      <point x="107" y="503" type="line"/>
      <point x="608" y="503" type="line"/>
      <point x="188" y="192" type="line"/>
      <point x="188" y="171" type="line"/>
      <point x="234" y="171" type="line" smooth="yes"/>
      <point x="539" y="171"/>
      <point x="648" y="123"/>
      <point x="648" y="-6" type="curve" smooth="yes"/>
      <point x="648" y="-49"/>
      <point x="630" y="-85"/>
      <point x="618" y="-98" type="curve"/>
      <point x="547" y="-41"/>
      <point x="438" y="-2"/>
      <point x="273" y="-2" type="curve" smooth="yes"/>
      <point x="101" y="-2"/>
      <point x="36" y="-55"/>
      <point x="36" y="-120" type="curve" smooth="yes"/>
      <point x="36" y="-201"/>
      <point x="131" y="-240"/>
      <point x="288" y="-240" type="curve" smooth="yes"/>
      <point x="491" y="-240"/>
      <point x="587" y="-174"/>
      <point x="618" y="-139" type="curve"/>
      <point x="646" y="-162"/>
      <point x="687" y="-209"/>
    </contour>
    <contour>
      <point x="289" y="-215" type="curve" smooth="yes"/>
      <point x="153" y="-215"/>
      <point x="65" y="-183"/>
      <point x="65" y="-120" type="curve" smooth="yes"/>
      <point x="65" y="-66"/>
      <point x="119" y="-27"/>
      <point x="273" y="-27" type="curve" smooth="yes"/>
      <point x="414" y="-27"/>
      <point x="512" y="-53"/>
      <point x="603" y="-120" type="curve"/>
      <point x="556" y="-167"/>
      <point x="466" y="-215"/>
    </contour>
  </outline>
</glyph>
<glyph name="uni0294" format="2">
  <advance width="800"/>
  <unicode hex="0294"/>
  <anchor x="342" y="0" name="bottom"/>
  <anchor x="342" y="763" name="top"/>
  <outline>
    <contour>
      <point x="329" y="0" type="line"/>
      <point x="355" y="0" type="line"/>
      <point x="355" y="323" type="line"/>
      <point x="493" y="359"/>
      <point x="667" y="412"/>
      <point x="667" y="567" type="curve" smooth="yes"/>
      <point x="667" y="690"/>
      <point x="566" y="763"/>
      <point x="341" y="763" type="curve" smooth="yes"/>
      <point x="223" y="763"/>
      <point x="143" y="741"/>
      <point x="90" y="721" type="curve"/>
      <point x="99" y="698" type="line"/>
      <point x="142" y="714"/>
      <point x="224" y="738"/>
      <point x="347" y="738" type="curve" smooth="yes"/>
      <point x="546" y="738"/>
      <point x="640" y="678"/>
      <point x="640" y="566" type="curve" smooth="yes"/>
      <point x="640" y="425"/>
      <point x="491" y="378"/>
      <point x="329" y="339" type="curve"/>
    </contour>
  </outline>
</glyph>
<glyph name="uni029F" format="2">
  <advance width="800"/>
  <unicode hex="029F"/>
  <anchor x="465" y="0" name="bottom"/>
  <anchor x="242" y="528" name="top"/>
  <outline>
    <contour>
      <point x="232" y="0" type="line"/>
      <point x="672" y="0" type="line"/>
      <point x="672" y="25" type="line"/>
      <point x="258" y="25" type="line"/>
      <point x="258" y="528" type="line"/>
      <point x="232" y="528" type="line"/>
    </contour>
  </outline>
</glyph>
<glyph name="qhook" format="2">
  <advance width="800"/>
  <unicode hex="02A0"/>
  <anchor x="400" y="-240" name="bottom"/>
  <anchor x="400" y="764" name="top"/>
  <outline>
    <contour>
      <point x="649" y="-240" type="line"/>
      <point x="675" y="-240" type="line"/>
      <point x="675" y="640" type="line" smooth="yes"/>
      <point x="675" y="702"/>
      <point x="714" y="739"/>
      <point x="792" y="739" type="curve" smooth="yes"/>
      <point x="820" y="739"/>
      <point x="850" y="737"/>
      <point x="880" y="728" type="curve"/>
      <point x="880" y="754" type="line"/>
      <point x="857" y="760"/>
      <point x="829" y="764"/>
      <point x="796" y="764" type="curve" smooth="yes"/>
      <point x="716" y="764"/>
      <point x="649" y="725"/>
      <point x="649" y="644" type="curve" smooth="yes"/>
      <point x="649" y="543" type="line" smooth="yes"/>
      <point x="649" y="501"/>
      <point x="648" y="457"/>
      <point x="651" y="412" type="curve"/>
      <point x="649" y="412" type="line"/>
      <point x="619" y="482"/>
      <point x="534" y="538"/>
      <point x="387" y="538" type="curve" smooth="yes"/>
      <point x="189" y="538"/>
      <point x="73" y="437"/>
      <point x="73" y="259" type="curve" smooth="yes"/>
      <point x="73" y="83"/>
      <point x="175" y="-10"/>
      <point x="371" y="-10" type="curve" smooth="yes"/>
      <point x="526" y="-10"/>
      <point x="619" y="52"/>
      <point x="649" y="122" type="curve"/>
      <point x="651" y="122" type="line"/>
      <point x="650" y="89"/>
      <point x="649" y="35"/>
      <point x="649" y="3" type="curve" smooth="yes"/>
    </contour>
    <contour>
      <point x="369" y="15" type="curve" smooth="yes"/>
      <point x="195" y="15"/>
      <point x="100" y="94"/>
      <point x="100" y="259" type="curve" smooth="yes"/>
      <point x="100" y="427"/>
      <point x="210" y="513"/>
      <point x="385" y="513" type="curve" smooth="yes"/>
      <point x="540" y="513"/>
      <point x="647" y="436"/>
      <point x="647" y="266" type="curve" smooth="yes"/>
      <point x="647" y="263" type="line" smooth="yes"/>
      <point x="647" y="107"/>
      <point x="548" y="15"/>
    </contour>
  </outline>
</glyph>
<glyph name="uni02A1" format="2">
  <advance width="800"/>
  <unicode hex="02A1"/>
  <anchor x="343" y="0" name="bottom"/>
  <anchor x="400" y="763" name="top"/>
  <outline>
    <contour>
      <point x="149" y="154" type="line"/>
      <point x="539" y="154" type="line"/>
      <point x="539" y="179" type="line"/>
      <point x="149" y="179" type="line"/>
    </contour>
    <component base="uni0294" xOffset="-30"/>
  </outline>
</glyph>
<glyph name="dzlig" format="2">
  <advance width="800"/>
  <unicode hex="02A3"/>
  <anchor x="400" y="0" name="bottom"/>
  <anchor x="400" y="761" name="top"/>
  <outline>
    <contour>
      <point x="236" y="-10" type="curve" smooth="yes"/>
      <point x="351" y="-10"/>
      <point x="400" y="38"/>
      <point x="419" y="92" type="curve"/>
      <point x="420" y="92" type="line"/>
      <point x="421" y="0" type="line"/>
      <point x="791" y="0" type="line"/>
      <point x="791" y="25" type="line"/>
      <point x="475" y="25" type="line"/>
      <point x="793" y="514" type="line"/>
      <point x="793" y="529" type="line"/>
      <point x="447" y="529" type="line"/>
      <point x="447" y="761" type="line"/>
      <point x="419" y="761" type="line"/>
      <point x="419" y="544" type="line" smooth="yes"/>
      <point x="419" y="502"/>
      <point x="419" y="490"/>
      <point x="420" y="445" type="curve"/>
      <point x="419" y="445" type="line"/>
      <point x="397" y="509"/>
      <point x="336" y="539"/>
      <point x="252" y="539" type="curve" smooth="yes"/>
      <point x="99" y="539"/>
      <point x="32" y="450"/>
      <point x="32" y="254" type="curve" smooth="yes"/>
      <point x="32" y="73"/>
      <point x="95" y="-10"/>
    </contour>
    <contour>
      <point x="233" y="15" type="curve" smooth="yes"/>
      <point x="115" y="15"/>
      <point x="61" y="84"/>
      <point x="61" y="254" type="curve" smooth="yes"/>
      <point x="61" y="433"/>
      <point x="116" y="514"/>
      <point x="248" y="514" type="curve" smooth="yes"/>
      <point x="366" y="514"/>
      <point x="419" y="447"/>
      <point x="419" y="266" type="curve" smooth="yes"/>
      <point x="419" y="263" type="line" smooth="yes"/>
      <point x="419" y="107"/>
      <point x="381" y="15"/>
    </contour>
    <contour>
      <point x="447" y="27" type="line"/>
      <point x="447" y="504" type="line"/>
      <point x="755" y="504" type="line"/>
    </contour>
  </outline>
</glyph>
<glyph name="dzligcurl" format="2">
  <advance width="800"/>
  <unicode hex="02A5"/>
  <anchor x="404" y="0" name="bottom"/>
  <anchor x="404" y="760" name="top"/>
  <outline>
    <contour>
      <point x="574" y="-84" type="line"/>
      <point x="588" y="-54"/>
      <point x="604" y="-24"/>
      <point x="619" y="0" type="curve"/>
      <point x="825" y="0" type="line" smooth="yes"/>
      <point x="997" y="0"/>
      <point x="1067" y="45"/>
      <point x="1067" y="111" type="curve" smooth="yes"/>
      <point x="1067" y="169"/>
      <point x="1014" y="203"/>
      <point x="915" y="203" type="curve" smooth="yes"/>
      <point x="768" y="203"/>
      <point x="671" y="133"/>
      <point x="599" y="25" type="curve"/>
      <point x="410" y="25" type="line"/>
      <point x="967" y="508" type="line"/>
      <point x="967" y="528" type="line"/>
      <point x="384" y="528" type="line"/>
      <point x="384" y="760" type="line"/>
      <point x="358" y="760" type="line"/>
      <point x="358" y="543" type="line" smooth="yes"/>
      <point x="358" y="501"/>
      <point x="357" y="459"/>
      <point x="360" y="414" type="curve"/>
      <point x="358" y="414" type="line"/>
      <point x="328" y="476"/>
      <point x="252" y="538"/>
      <point x="70" y="538" type="curve" smooth="yes"/>
      <point x="-150" y="538"/>
      <point x="-267" y="442"/>
      <point x="-267" y="259" type="curve" smooth="yes"/>
      <point x="-267" y="88"/>
      <point x="-166" y="-10"/>
      <point x="61" y="-10" type="curve" smooth="yes"/>
      <point x="252" y="-10"/>
      <point x="326" y="55"/>
      <point x="358" y="120" type="curve"/>
      <point x="360" y="120" type="line"/>
      <point x="363" y="0" type="line"/>
      <point x="587" y="0" type="line"/>
      <point x="571" y="-24"/>
      <point x="558" y="-50"/>
      <point x="545" y="-77" type="curve"/>
    </contour>
    <contour>
      <point x="61" y="15" type="curve" smooth="yes"/>
      <point x="-148" y="15"/>
      <point x="-240" y="99"/>
      <point x="-240" y="259" type="curve" smooth="yes"/>
      <point x="-240" y="430"/>
      <point x="-133" y="513"/>
      <point x="69" y="513" type="curve" smooth="yes"/>
      <point x="269" y="513"/>
      <point x="358" y="429"/>
      <point x="358" y="266" type="curve" smooth="yes"/>
      <point x="358" y="263" type="line" smooth="yes"/>
      <point x="358" y="107"/>
      <point x="279" y="15"/>
    </contour>
    <contour>
      <point x="631" y="25" type="line"/>
      <point x="698" y="119"/>
      <point x="786" y="178"/>
      <point x="913" y="178" type="curve" smooth="yes"/>
      <point x="1000" y="178"/>
      <point x="1039" y="150"/>
      <point x="1039" y="111" type="curve" smooth="yes"/>
      <point x="1039" y="66"/>
      <point x="988" y="25"/>
      <point x="820" y="25" type="curve" smooth="yes"/>
    </contour>
    <contour>
      <point x="384" y="29" type="line"/>
      <point x="384" y="503" type="line"/>
      <point x="927" y="503" type="line"/>
    </contour>
  </outline>
</glyph>
<glyph name="uni02AD" format="2">
  <advance width="800"/>
  <unicode hex="02AD"/>
  <anchor x="400" y="0" name="bottom"/>
  <anchor x="400" y="714" name="top"/>
  <outline>
    <contour>
      <point x="92" y="481" type="line"/>
      <point x="118" y="481" type="line"/>
      <point x="118" y="689" type="line"/>
      <point x="668" y="689" type="line"/>
      <point x="668" y="481" type="line"/>
      <point x="694" y="481" type="line"/>
      <point x="694" y="714" type="line"/>
      <point x="92" y="714" type="line"/>
    </contour>
    <contour>
      <point x="92" y="0" type="line"/>
      <point x="118" y="0" type="line"/>
      <point x="118" y="208" type="line"/>
      <point x="668" y="208" type="line"/>
      <point x="668" y="0" type="line"/>
      <point x="694" y="0" type="line"/>
      <point x="694" y="233" type="line"/>
      <point x="92" y="233" type="line"/>
    </contour>
  </outline>
</glyph>
<glyph name="uni02AE" format="2">
  <advance width="800"/>
  <unicode hex="02AE"/>
  <anchor x="401" y="-240" name="bottom"/>
  <anchor x="401" y="528" name="top"/>
  <outline>
    <contour>
      <point x="665" y="-232" type="line"/>
      <point x="691" y="-232" type="line"/>
      <point x="691" y="528" type="line"/>
      <point x="665" y="528" type="line"/>
      <point x="665" y="226" type="line" smooth="yes"/>
      <point x="665" y="82"/>
      <point x="552" y="16"/>
      <point x="388" y="16" type="curve" smooth="yes"/>
      <point x="245" y="16"/>
      <point x="159" y="66"/>
      <point x="159" y="183" type="curve" smooth="yes"/>
      <point x="159" y="418" type="line" smooth="yes"/>
      <point x="159" y="506"/>
      <point x="106" y="546"/>
      <point x="0" y="546" type="curve" smooth="yes"/>
      <point x="-33" y="546"/>
      <point x="-50" y="543"/>
      <point x="-67" y="540" type="curve"/>
      <point x="-67" y="515" type="line"/>
      <point x="-51" y="518"/>
      <point x="-31" y="521"/>
      <point x="1" y="521" type="curve" smooth="yes"/>
      <point x="86" y="521"/>
      <point x="133" y="492"/>
      <point x="133" y="415" type="curve" smooth="yes"/>
      <point x="133" y="178" type="line" smooth="yes"/>
      <point x="133" y="51"/>
      <point x="230" y="-9"/>
      <point x="390" y="-9" type="curve" smooth="yes"/>
      <point x="556" y="-9"/>
      <point x="639" y="50"/>
      <point x="665" y="116" type="curve"/>
      <point x="667" y="116" type="line"/>
      <point x="666" y="85"/>
      <point x="665" y="64"/>
      <point x="665" y="32" type="curve" smooth="yes"/>
    </contour>
  </outline>
</glyph>
<glyph name="uni02BE" format="2">
  <advance width="800"/>
  <unicode hex="02BE"/>
  <outline>
    <contour>
      <point x="321" y="575" type="line"/>
      <point x="416" y="575"/>
      <point x="480" y="614"/>
      <point x="480" y="680" type="curve" smooth="yes"/>
      <point x="480" y="747"/>
      <point x="416" y="786"/>
      <point x="321" y="786" type="curve"/>
      <point x="321" y="763" type="line"/>
      <point x="405" y="763"/>
      <point x="451" y="733"/>
      <point x="451" y="680" type="curve" smooth="yes"/>
      <point x="451" y="627"/>
      <point x="395" y="597"/>
      <point x="321" y="597" type="curve"/>
    </contour>
  </outline>
</glyph>
<glyph name="uni02C4" format="2">
  <advance width="800"/>
  <unicode hex="02C4"/>
  <outline>
    <contour>
      <point x="230" y="549" type="line"/>
      <point x="263" y="549" type="line"/>
      <point x="398" y="738" type="line"/>
      <point x="533" y="549" type="line"/>
      <point x="570" y="549" type="line"/>
      <point x="402" y="778" type="line"/>
      <point x="393" y="778" type="line"/>
    </contour>
  </outline>
</glyph>
<glyph name="caron" format="2">
  <advance width="800"/>
  <unicode hex="02C7"/>
  <anchor x="399" y="528" name="_top"/>
  <anchor x="399" y="763" name="top"/>
  <outline>
    <contour>
      <point x="389" y="606" type="curve"/>
      <point x="408" y="606" type="line"/>
      <point x="443" y="647"/>
      <point x="520" y="716"/>
      <point x="573" y="757" type="curve"/>
      <point x="573" y="763" type="line"/>
      <point x="550" y="763" type="line"/>
      <point x="497" y="726"/>
      <point x="437" y="676"/>
      <point x="399" y="638" type="curve"/>
      <point x="359" y="676"/>
      <point x="304" y="726"/>
      <point x="250" y="763" type="curve"/>
      <point x="227" y="763" type="line"/>
      <point x="227" y="757" type="line"/>
      <point x="280" y="716"/>
      <point x="355" y="647"/>
    </contour>
  </outline>
</glyph>
<glyph name="uni02D7" format="2">
  <advance width="800"/>
  <unicode hex="02D7"/>
  <outline>
    <contour>
      <point x="233" y="343" type="line"/>
      <point x="233" y="312" type="line"/>
      <point x="568" y="312" type="line"/>
      <point x="568" y="343" type="line"/>
    </contour>
  </outline>
</glyph>
<glyph name="breve" format="2">
  <advance width="800"/>
  <unicode hex="02D8"/>
  <anchor x="398" y="528" name="_top"/>
  <anchor x="396" y="765" name="top"/>
  <outline>
    <contour>
      <point x="399" y="606" type="curve" smooth="yes"/>
      <point x="492" y="606"/>
      <point x="554" y="645"/>
      <point x="568" y="718" type="curve"/>
      <point x="539" y="718" type="line"/>
      <point x="531" y="665"/>
      <point x="486" y="629"/>
      <point x="400" y="629" type="curve" smooth="yes"/>
      <point x="313" y="629"/>
      <point x="265" y="665"/>
      <point x="259" y="718" type="curve"/>
      <point x="229" y="718" type="line"/>
      <point x="238" y="645"/>
      <point x="307" y="606"/>
    </contour>
  </outline>
</glyph>
<glyph name="dotaccent" format="2">
  <advance width="800"/>
  <unicode hex="02D9"/>
  <outline>
    <contour>
      <point x="399" y="660" type="curve" smooth="yes"/>
      <point x="435" y="660"/>
      <point x="437" y="679"/>
      <point x="437" y="697" type="curve" smooth="yes"/>
      <point x="437" y="716"/>
      <point x="432" y="734"/>
      <point x="399" y="734" type="curve" smooth="yes"/>
      <point x="364" y="734"/>
      <point x="359" y="716"/>
      <point x="359" y="697" type="curve" smooth="yes"/>
      <point x="359" y="677"/>
      <point x="365" y="660"/>
    </contour>
  </outline>
</glyph>
<glyph name="ring" format="2">
  <advance width="800"/>
  <unicode hex="02DA"/>
  <outline>
    <contour>
      <point x="399" y="611" type="curve" smooth="yes"/>
      <point x="478" y="611"/>
      <point x="542" y="650"/>
      <point x="542" y="710" type="curve" smooth="yes"/>
      <point x="542" y="769"/>
      <point x="479" y="811"/>
      <point x="399" y="811" type="curve" smooth="yes"/>
      <point x="320" y="811"/>
      <point x="257" y="771"/>
      <point x="257" y="709" type="curve" smooth="yes"/>
      <point x="257" y="646"/>
      <point x="325" y="611"/>
    </contour>
    <contour>
      <point x="399" y="633" type="curve" smooth="yes"/>
      <point x="333" y="633"/>
      <point x="286" y="664"/>
      <point x="286" y="710" type="curve" smooth="yes"/>
      <point x="286" y="755"/>
      <point x="330" y="789"/>
      <point x="400" y="789" type="curve" smooth="yes"/>
      <point x="469" y="789"/>
      <point x="513" y="755"/>
      <point x="513" y="711" type="curve" smooth="yes"/>
      <point x="513" y="666"/>
      <point x="467" y="633"/>
    </contour>
  </outline>
</glyph>
<glyph name="ogonek" format="2">
  <advance width="800"/>
  <unicode hex="02DB"/>
  <outline>
    <contour>
      <point x="422" y="-217" type="curve" smooth="yes"/>
      <point x="451" y="-217"/>
      <point x="477" y="-213"/>
      <point x="491" y="-209" type="curve"/>
      <point x="491" y="-185" type="line"/>
      <point x="476" y="-189"/>
      <point x="450" y="-192"/>
      <point x="422" y="-192" type="curve" smooth="yes"/>
      <point x="365" y="-192"/>
      <point x="337" y="-170"/>
      <point x="337" y="-131" type="curve" smooth="yes"/>
      <point x="337" y="-80"/>
      <point x="407" y="-36"/>
      <point x="473" y="0" type="curve"/>
      <point x="453" y="11" type="line"/>
      <point x="347" y="-41"/>
      <point x="308" y="-87"/>
      <point x="308" y="-135" type="curve" smooth="yes"/>
      <point x="308" y="-190"/>
      <point x="360" y="-217"/>
    </contour>
  </outline>
</glyph>
<glyph name="hungarumlaut" format="2">
  <advance width="800"/>
  <unicode hex="02DD"/>
  <outline>
    <contour>
      <point x="444" y="606" type="line"/>
      <point x="469" y="606" type="line"/>
      <point x="529" y="650"/>
      <point x="593" y="712"/>
      <point x="636" y="759" type="curve"/>
      <point x="636" y="766" type="line"/>
      <point x="604" y="766" type="line"/>
      <point x="571" y="721"/>
      <point x="497" y="651"/>
      <point x="444" y="612" type="curve"/>
    </contour>
    <contour>
      <point x="250" y="606" type="line"/>
      <point x="275" y="606" type="line"/>
      <point x="335" y="650"/>
      <point x="398" y="712"/>
      <point x="441" y="759" type="curve"/>
      <point x="441" y="766" type="line"/>
      <point x="410" y="766" type="line"/>
      <point x="377" y="721"/>
      <point x="303" y="651"/>
      <point x="250" y="612" type="curve"/>
    </contour>
  </outline>
</glyph>
<glyph name="rhotichookmod" format="2">
  <advance width="800"/>
  <unicode hex="02DE"/>
  <outline>
    <contour>
      <point x="404" y="242" type="curve" smooth="yes"/>
      <point x="437" y="242"/>
      <point x="465" y="248"/>
      <point x="503" y="256" type="curve"/>
      <point x="490" y="282" type="line"/>
      <point x="467" y="276"/>
      <point x="436" y="270"/>
      <point x="403" y="270" type="curve" smooth="yes"/>
      <point x="324" y="270"/>
      <point x="304" y="299"/>
      <point x="272" y="369" type="curve" smooth="yes"/>
      <point x="252" y="414" type="line"/>
      <point x="-200" y="307" type="line"/>
      <point x="-198" y="282" type="line"/>
      <point x="231" y="382" type="line"/>
      <point x="257" y="323"/>
      <point x="273" y="242"/>
    </contour>
  </outline>
</glyph>
<glyph name="uni02E7" format="2">
  <advance width="800"/>
  <unicode hex="02E7"/>
  <outline>
    <contour>
      <point x="494" y="0" type="line"/>
      <point x="588" y="0" type="line"/>
      <point x="588" y="688" type="line"/>
      <point x="494" y="688" type="line"/>
      <point x="494" y="392" type="line"/>
      <point x="213" y="392" type="line"/>
      <point x="213" y="326" type="line"/>
      <point x="494" y="326" type="line"/>
    </contour>
  </outline>
</glyph>
<glyph name="uni02EB" format="2">
  <advance width="800"/>
  <unicode hex="02EB"/>
  <outline>
    <contour>
      <point x="213" y="166" type="line"/>
      <point x="308" y="166" type="line"/>
      <point x="308" y="314" type="line"/>
      <point x="588" y="314" type="line"/>
      <point x="588" y="380" type="line"/>
      <point x="308" y="380" type="line"/>
      <point x="308" y="528" type="line"/>
      <point x="213" y="528" type="line"/>
    </contour>
  </outline>
</glyph>
<glyph name="uni02FE" format="2">
  <advance width="800"/>
  <unicode hex="02FE"/>
  <outline>
    <contour>
      <point x="205" y="-179" type="line"/>
      <point x="596" y="-179" type="line"/>
      <point x="596" y="-152" type="line"/>
      <point x="260" y="-152" type="line"/>
      <point x="260" y="-49" type="line"/>
      <point x="205" y="-49" type="line"/>
    </contour>
  </outline>
</glyph>
<glyph name="uni02FF" format="2">
  <advance width="800"/>
  <unicode hex="02FF"/>
  <outline>
    <contour>
      <point x="396" y="-197" type="line"/>
      <point x="396" y="-163" type="line"/>
      <point x="206" y="-94" type="line"/>
      <point x="674" y="-94" type="line"/>
      <point x="674" y="-70" type="line"/>
      <point x="206" y="-70" type="line"/>
      <point x="396" y="-2" type="line"/>
      <point x="396" y="32" type="line"/>
      <point x="126" y="-74" type="line"/>
      <point x="126" y="-89" type="line"/>
    </contour>
  </outline>
</glyph>
<glyph name="dblgravecomb" format="2">
  <unicode hex="030F"/>
  <anchor x="0" y="528" name="_top"/>
  <anchor x="0" y="766" name="top"/>
  <outline>
    <contour>
      <point x="140" y="606" type="curve"/>
      <point x="165" y="606" type="line"/>
      <point x="165" y="612" type="line"/>
      <point x="112" y="651"/>
      <point x="38" y="721"/>
      <point x="5" y="766" type="curve"/>
      <point x="-27" y="766" type="line"/>
      <point x="-27" y="759" type="line"/>
      <point x="16" y="712"/>
      <point x="80" y="650"/>
    </contour>
    <contour>
      <point x="-87" y="606" type="curve"/>
      <point x="-62" y="606" type="line"/>
      <point x="-62" y="612" type="line"/>
      <point x="-115" y="651"/>
      <point x="-188" y="721"/>
      <point x="-222" y="766" type="curve"/>
      <point x="-253" y="766" type="line"/>
      <point x="-253" y="759" type="line"/>
      <point x="-210" y="712"/>
      <point x="-146" y="650"/>
    </contour>
  </outline>
</glyph>
<glyph name="ringhalfleftbelowcomb" format="2">
  <unicode hex="031C"/>
  <anchor x="0" y="0" name="_bottom"/>
  <anchor x="0" y="-236" name="bottom"/>
  <outline>
    <contour>
      <point x="77" y="-236" type="curve"/>
      <point x="77" y="-216" type="line"/>
      <point x="-8" y="-216"/>
      <point x="-55" y="-184"/>
      <point x="-55" y="-130" type="curve" smooth="yes"/>
      <point x="-55" y="-76"/>
      <point x="2" y="-45"/>
      <point x="77" y="-45" type="curve"/>
      <point x="77" y="-25" type="line"/>
      <point x="-16" y="-25"/>
      <point x="-79" y="-64"/>
      <point x="-79" y="-130" type="curve" smooth="yes"/>
      <point x="-79" y="-197"/>
      <point x="-16" y="-236"/>
    </contour>
  </outline>
</glyph>
<glyph name="hookretroflexbelowcomb" format="2">
  <unicode hex="0322"/>
  <outline>
    <contour>
      <point x="37" y="-235" type="curve" smooth="yes"/>
      <point x="60" y="-235"/>
      <point x="84" y="-226"/>
      <point x="86" y="-224" type="curve"/>
      <point x="86" y="-196" type="line"/>
      <point x="77" y="-199"/>
      <point x="48" y="-205"/>
      <point x="10" y="-205" type="curve" smooth="yes"/>
      <point x="-28" y="-205"/>
      <point x="-54" y="-178"/>
      <point x="-54" y="-150" type="curve" smooth="yes"/>
      <point x="-54" y="31" type="line"/>
      <point x="-87" y="31" type="line"/>
      <point x="-87" y="-140" type="line" smooth="yes"/>
      <point x="-87" y="-193"/>
      <point x="-55" y="-235"/>
    </contour>
  </outline>
</glyph>
<glyph name="commaaccent" format="2">
  <unicode hex="0326"/>
  <anchor x="0" y="0" name="_bottom"/>
  <anchor x="0" y="-221" name="bottom"/>
  <outline>
    <contour>
      <point x="-79" y="-221" type="line"/>
      <point x="-60" y="-221" type="line"/>
      <point x="-21" y="-174"/>
      <point x="3" y="-119"/>
      <point x="21" y="-67" type="curve"/>
      <point x="21" y="-61" type="line"/>
      <point x="-11" y="-61" type="line"/>
      <point x="-19" y="-104"/>
      <point x="-56" y="-185"/>
      <point x="-79" y="-215" type="curve"/>
    </contour>
  </outline>
</glyph>
<glyph name="ringhalfrightbelowcomb" format="2">
  <unicode hex="0339"/>
  <anchor x="0" y="0" name="_bottom"/>
  <anchor x="0" y="-236" name="bottom"/>
  <outline>
    <contour>
      <point x="-78" y="-236" type="line"/>
      <point x="15" y="-236"/>
      <point x="78" y="-197"/>
      <point x="78" y="-130" type="curve" smooth="yes"/>
      <point x="78" y="-64"/>
      <point x="15" y="-25"/>
      <point x="-78" y="-25" type="curve"/>
      <point x="-78" y="-44" type="line"/>
      <point x="-9" y="-44"/>
      <point x="54" y="-75"/>
      <point x="54" y="-130" type="curve" smooth="yes"/>
      <point x="54" y="-184"/>
      <point x="11" y="-215"/>
      <point x="-78" y="-215" type="curve"/>
    </contour>
  </outline>
</glyph>
<glyph name="leftanglebelowcomb" format="2">
  <unicode hex="0349"/>
  <anchor x="0" y="0" name="_bottom"/>
  <anchor x="0" y="-230" name="bottom"/>
  <outline>
    <contour>
      <point x="73" y="-230" type="line"/>
      <point x="108" y="-230" type="line"/>
      <point x="108" y="-73" type="line"/>
      <point x="-108" y="-73" type="line"/>
      <point x="-108" y="-106" type="line"/>
      <point x="73" y="-106" type="line"/>
    </contour>
  </outline>
</glyph>
<glyph name="arrowheadrightabovecomb" format="2">
  <unicode hex="0350"/>
  <anchor x="0" y="528" name="_top"/>
  <anchor x="0" y="802" name="top"/>
  <outline>
    <contour>
      <point x="-112" y="588" type="line"/>
      <point x="-104" y="588" type="line"/>
      <point x="-45" y="622"/>
      <point x="56" y="664"/>
      <point x="112" y="686" type="curve"/>
      <point x="112" y="703" type="line"/>
      <point x="56" y="724"/>
      <point x="-48" y="771"/>
      <point x="-104" y="802" type="curve"/>
      <point x="-112" y="802" type="line"/>
      <point x="-112" y="781" type="line"/>
      <point x="-67" y="752"/>
      <point x="7" y="717"/>
      <point x="60" y="694" type="curve"/>
      <point x="10" y="673"/>
      <point x="-63" y="638"/>
      <point x="-112" y="608" type="curve"/>
    </contour>
  </outline>
</glyph>
<glyph name="arrowheadrightbelowcomb" format="2">
  <unicode hex="0355"/>
  <anchor x="0" y="0" name="_bottom"/>
  <anchor x="0" y="-246" name="bottom"/>
  <outline>
    <contour>
      <point x="-113" y="-246" type="line"/>
      <point x="-105" y="-246" type="line"/>
      <point x="-46" y="-212"/>
      <point x="55" y="-170"/>
      <point x="111" y="-148" type="curve"/>
      <point x="111" y="-131" type="line"/>
      <point x="55" y="-110"/>
      <point x="-49" y="-63"/>
      <point x="-105" y="-32" type="curve"/>
      <point x="-113" y="-32" type="line"/>
      <point x="-113" y="-53" type="line"/>
      <point x="-68" y="-82"/>
      <point x="6" y="-117"/>
      <point x="59" y="-140" type="curve"/>
      <point x="9" y="-161"/>
      <point x="-64" y="-196"/>
      <point x="-113" y="-226" type="curve"/>
    </contour>
  </outline>
</glyph>
<glyph name="asteriskbelowcomb" format="2">
  <unicode hex="0359"/>
  <anchor x="0" y="0" name="_bottom"/>
  <anchor x="0" y="-240" name="bottom"/>
  <outline>
    <contour>
      <point x="-45" y="-240" type="line"/>
      <point x="0" y="-176" type="line"/>
      <point x="44" y="-240" type="line"/>
      <point x="125" y="-198" type="line"/>
      <point x="51" y="-150" type="line"/>
      <point x="152" y="-140" type="line"/>
      <point x="120" y="-74" type="line"/>
      <point x="31" y="-108" type="line"/>
      <point x="50" y="-38" type="line"/>
      <point x="-50" y="-38" type="line"/>
      <point x="-32" y="-108" type="line"/>
      <point x="-120" y="-74" type="line"/>
      <point x="-152" y="-140" type="line"/>
      <point x="-52" y="-150" type="line"/>
      <point x="-125" y="-198" type="line"/>
    </contour>
  </outline>
</glyph>
<glyph name="zigzagabovecomb" format="2">
  <unicode hex="035B"/>
  <anchor x="0" y="528" name="_top"/>
  <anchor x="0" y="772" name="top"/>
  <outline>
    <contour>
      <point x="41" y="602" type="line"/>
      <point x="89" y="602" type="line"/>
      <point x="134" y="705" type="line"/>
      <point x="-73" y="705" type="line"/>
      <point x="-42" y="772" type="line"/>
      <point x="-89" y="772" type="line"/>
      <point x="-135" y="669" type="line"/>
      <point x="72" y="669" type="line"/>
    </contour>
  </outline>
</glyph>
<glyph name="doublemacroncomb" format="2">
  <unicode hex="035E"/>
  <anchor x="0" y="528" name="_top"/>
  <anchor x="0" y="676" name="top"/>
  <outline>
    <contour>
      <point x="-430" y="645" type="line"/>
      <point x="430" y="645" type="line"/>
      <point x="430" y="676" type="line"/>
      <point x="-430" y="676" type="line"/>
    </contour>
  </outline>
</glyph>
<glyph name="tildedoublecomb" format="2">
  <unicode hex="0360"/>
  <anchor x="0" y="528" name="_top"/>
  <anchor x="0" y="709" name="top"/>
  <outline>
    <contour>
      <point x="-535" y="607" type="curve"/>
      <point x="-501" y="607" type="line"/>
      <point x="-494" y="646"/>
      <point x="-447" y="676"/>
      <point x="-276" y="676" type="curve" smooth="yes"/>
      <point x="-50" y="676"/>
      <point x="90" y="608"/>
      <point x="285" y="608" type="curve" smooth="yes"/>
      <point x="426" y="608"/>
      <point x="502" y="633"/>
      <point x="534" y="709" type="curve"/>
      <point x="500" y="709" type="line"/>
      <point x="497" y="670"/>
      <point x="447" y="640"/>
      <point x="276" y="640" type="curve" smooth="yes"/>
      <point x="60" y="640"/>
      <point x="-106" y="706"/>
      <point x="-278" y="706" type="curve" smooth="yes"/>
      <point x="-425" y="706"/>
      <point x="-504" y="681"/>
    </contour>
  </outline>
</glyph>
<glyph name="breveinverteddoublecomb" format="2">
  <unicode hex="0361"/>
  <anchor x="0" y="628" name="_top"/>
  <anchor x="0" y="864" name="top"/>
  <outline>
    <contour>
      <point x="-535" y="687" type="curve"/>
      <point x="-488" y="687" type="line"/>
      <point x="-414" y="784"/>
      <point x="-220" y="822"/>
      <point x="-4" y="822" type="curve" smooth="yes"/>
      <point x="278" y="822"/>
      <point x="428" y="775"/>
      <point x="489" y="687" type="curve"/>
      <point x="534" y="687" type="line"/>
      <point x="449" y="805"/>
      <point x="245" y="864"/>
      <point x="-7" y="864" type="curve" smooth="yes"/>
      <point x="-237" y="864"/>
      <point x="-434" y="814"/>
    </contour>
  </outline>
</glyph>
<glyph name="heta" format="2">
  <advance width="800"/>
  <unicode hex="0371"/>
  <anchor x="400" y="0" name="bottom"/>
  <anchor x="400" y="528" name="top"/>
  <outline>
    <contour>
      <point x="250" y="0" type="line"/>
      <point x="276" y="0" type="line"/>
      <point x="276" y="263" type="line"/>
      <point x="551" y="263" type="line"/>
      <point x="551" y="288" type="line"/>
      <point x="276" y="288" type="line"/>
      <point x="276" y="527" type="line"/>
      <point x="250" y="527" type="line"/>
    </contour>
  </outline>
</glyph>
<glyph name="Archaicsampi" format="2">
  <advance width="800"/>
  <unicode hex="0372"/>
  <anchor x="400" y="0" name="bottom"/>
  <anchor x="400" y="714" name="top"/>
  <anchor x="772" y="714" name="topright"/>
  <anchor x="370" y="357" name="center"/>
  <outline>
    <contour>
      <point x="729" y="519" type="line"/>
      <point x="758" y="519" type="line"/>
      <point x="758" y="714" type="line"/>
      <point x="729" y="714" type="line"/>
    </contour>
    <contour>
      <point x="43" y="519" type="line"/>
      <point x="72" y="519" type="line"/>
      <point x="72" y="714" type="line"/>
      <point x="43" y="714" type="line"/>
    </contour>
    <component base="T" xOffset="-30"/>
  </outline>
</glyph>
